<?xml version="1.0" encoding="UTF-8"?> <svg xmlns="http://www.w3.org/2000/svg" width="1882" height="1759" viewBox="0 0 1882 1759" fill="none"> <g filter="url(#filter0_f_930_125)"> <path fill-rule="evenodd" clip-rule="evenodd" d="M1249.8 650.601C1291.46 693.636 1333.99 733.588 1358.14 788.396C1381.87 842.251 1382.26 899.686 1385.47 958.452C1389.9 1039.63 1431.87 1133.4 1380.4 1196.33C1329.47 1258.6 999.985 1235.14 920.286 1246.04C839.024 1257.15 744.466 1312.15 680.695 1260.58C614.878 1207.35 672.801 1093.38 636.808 1016.77C600.539 939.565 469.633 910.596 476.326 825.564C482.804 743.274 605.305 731.462 663.846 673.269C725.648 611.835 739.88 482.67 826.845 477.132C915.325 471.497 1188.14 586.898 1249.8 650.601Z" fill="url(#paint0_linear_930_125)"></path> </g> <defs> <filter id="filter0_f_930_125" x="0.078125" y="0.933594" width="1881.71" height="1757.37" filterUnits="userSpaceOnUse" color-interpolation-filters="sRGB"> <feFlood flood-opacity="0" result="BackgroundImageFix"></feFlood> <feBlend mode="normal" in="SourceGraphic" in2="BackgroundImageFix" result="shape"></feBlend> <feGaussianBlur stdDeviation="238" result="effect1_foregroundBlur_930_125"></feGaussianBlur> </filter> <linearGradient id="paint0_linear_930_125" x1="818.057" y1="455.101" x2="919.024" y2="1296.2" gradientUnits="userSpaceOnUse"> <stop stop-color="#04B066"></stop> <stop offset="1" stop-color="#6D75FE"></stop> </linearGradient> </defs> </svg> 