<?xml version="1.0" encoding="UTF-8"?> <svg xmlns="http://www.w3.org/2000/svg" width="18" height="18" viewBox="0 0 18 18" fill="none"> <path d="M17.1609 2.84417L14.8345 0.519903C14.6704 0.355071 14.4753 0.224288 14.2605 0.135067C14.0457 0.0458453 13.8154 -5.57467e-05 13.5828 5.08096e-08C13.1088 5.08096e-08 12.6632 0.18568 12.3289 0.519903L9.82558 3.0233C9.66075 3.18741 9.52997 3.38247 9.44075 3.59728C9.35153 3.81208 9.30563 4.0424 9.30569 4.275C9.30569 4.74903 9.49136 5.19466 9.82558 5.52888L11.6561 7.35947C11.2276 8.30394 10.6319 9.16315 9.89767 9.89563C9.16527 10.6317 8.30615 11.2296 7.36154 11.6607L5.53099 9.8301C5.36688 9.66527 5.17182 9.53448 4.95702 9.44526C4.74221 9.35604 4.5119 9.31014 4.27931 9.31019C3.80528 9.31019 3.35966 9.49587 3.02544 9.8301L0.519896 12.3313C0.354864 12.4957 0.223971 12.6911 0.134747 12.9063C0.0455227 13.1215 -0.000270693 13.3522 1.2037e-06 13.5852C1.2037e-06 14.0592 0.185678 14.5049 0.519896 14.8391L2.84195 17.1612C3.37495 17.6964 4.1111 18 4.86692 18C5.02638 18 5.17929 17.9869 5.33002 17.9607C8.27463 17.4757 11.1952 15.9095 13.5522 13.5546C15.907 11.2019 17.4711 8.2835 17.9626 5.3301C18.1111 4.42791 17.8119 3.49951 17.1609 2.84417V2.84417Z" fill="#14A15A"></path> </svg> 