<?xml version="1.0" encoding="UTF-8"?> <svg xmlns="http://www.w3.org/2000/svg" width="376" height="225" viewBox="0 0 376 225" fill="none"> <path d="M268.562 50.7812H112.762V149.431H268.562V50.7812Z" fill="white" stroke="#263238" stroke-miterlimit="10"></path> <path d="M161.57 39.3119L158.57 30.6719H109.73V156.612H271.59V39.3119H161.57ZM268.57 149.432H112.76V50.7819H268.56L268.57 149.432Z" fill="#30B46F" stroke="#263238" stroke-miterlimit="10"></path> <path d="M238.951 42.582H161.551V47.322H238.951V42.582Z" fill="white" stroke="#263238" stroke-miterlimit="10"></path> <path d="M116.511 41.8203L114.281 43.9703L116.591 46.4503" stroke="#263238" stroke-linecap="round" stroke-linejoin="round"></path> <path d="M114.281 43.9688H119.241" stroke="#263238" stroke-linecap="round" stroke-linejoin="round"></path> <path d="M129.162 41.8203L131.402 43.9703L129.082 46.4503" stroke="#263238" stroke-linecap="round" stroke-linejoin="round"></path> <path d="M131.401 43.9688H126.441" stroke="#263238" stroke-linecap="round" stroke-linejoin="round"></path> <path d="M142.062 43.6795C141.922 43.1801 141.626 42.7382 141.218 42.4182C140.81 42.0981 140.31 41.9164 139.792 41.8995C139.486 41.879 139.179 41.9217 138.89 42.0247C138.601 42.1277 138.336 42.289 138.112 42.4986C137.888 42.7081 137.71 42.9615 137.587 43.2429C137.465 43.5243 137.402 43.8278 137.402 44.1345C137.402 44.4413 137.465 44.7448 137.587 45.0262C137.71 45.3076 137.888 45.5609 138.112 45.7705C138.336 45.98 138.601 46.1413 138.89 46.2444C139.179 46.3474 139.486 46.39 139.792 46.3695C140.307 46.3707 140.807 46.1901 141.202 45.8595" stroke="#263238" stroke-linecap="round" stroke-linejoin="round"></path> <path d="M140.562 43.9311H142.292V41.8711" stroke="#263238" stroke-linecap="round" stroke-linejoin="round"></path> <path d="M153.891 43.2012L151.831 41.5312L149.871 43.2012V46.8313H153.891V43.2012Z" stroke="#263238" stroke-linecap="round" stroke-linejoin="round"></path> <path d="M152.621 44.1797H151.051V46.6997H152.621V44.1797Z" fill="#263238"></path> <path d="M149.871 43.1992L148.691 44.2792" stroke="#263238" stroke-linecap="round" stroke-linejoin="round"></path> <path d="M153.891 43.1992L155.001 44.1792" stroke="#263238" stroke-linecap="round" stroke-linejoin="round"></path> <path d="M153.152 35.1406L156.292 38.3806" stroke="#263238" stroke-linecap="round" stroke-linejoin="round"></path> <path d="M156.342 35.1914L153.102 38.3314" stroke="#263238" stroke-linecap="round" stroke-linejoin="round"></path> <path d="M260.352 43.4492H266.562" stroke="#263238" stroke-linecap="round" stroke-linejoin="round"></path> <path d="M260.352 44.8516H266.562" stroke="#263238" stroke-linecap="round" stroke-linejoin="round"></path> <path d="M260.352 46.2383H266.562" stroke="#263238" stroke-linecap="round" stroke-linejoin="round"></path> <path d="M260.352 47.6406H266.562" stroke="#263238" stroke-linecap="round" stroke-linejoin="round"></path> <path d="M227.773 62.4219H235.593" stroke="#263238" stroke-linecap="round" stroke-linejoin="round"></path> <path d="M217.652 62.4219H224.512" stroke="#263238" stroke-linecap="round" stroke-linejoin="round"></path> <path d="M200.82 62.4219H215.11" stroke="#263238" stroke-linecap="round" stroke-linejoin="round"></path> <path d="M200.82 67.1992H235.59" stroke="#263238" stroke-linecap="round" stroke-linejoin="round"></path> <path d="M230.48 71.9688H235.59" stroke="#263238" stroke-linecap="round" stroke-linejoin="round"></path> <path d="M206.441 71.9688H227.221" stroke="#263238" stroke-linecap="round" stroke-linejoin="round"></path> <path d="M200.82 71.9688H203.55" stroke="#263238" stroke-linecap="round" stroke-linejoin="round"></path> <path d="M200.82 76.7383H235.59" stroke="#263238" stroke-linecap="round" stroke-linejoin="round"></path> <path d="M212.941 116.559H205.211V140.309H212.941V116.559Z" fill="#263238" stroke="#263238" stroke-linecap="round" stroke-linejoin="round"></path> <path d="M223.992 88.3906H216.262V140.321H223.992V88.3906Z" fill="#30B46F" stroke="#263238" stroke-miterlimit="10"></path> <path d="M235.043 103.859H227.312V140.319H235.043V103.859Z" fill="#263238" stroke="#263238" stroke-linecap="round" stroke-linejoin="round"></path> <path d="M246.082 88.3906H238.352V140.321H246.082V88.3906Z" fill="#30B46F" stroke="#263238" stroke-miterlimit="10"></path> <path d="M257.132 65.7383H249.402V140.318H257.132V65.7383Z" fill="#263238" stroke="#263238" stroke-linecap="round" stroke-linejoin="round"></path> <path d="M180.753 20.7695H24.9531V119.42H180.753V20.7695Z" fill="white" stroke="#263238" stroke-miterlimit="10"></path> <path d="M73.7519 9.31015L70.7519 0.660156H21.9219V126.6H183.772V9.31015H73.7519ZM180.752 119.42H25.0019V20.7702H180.802L180.752 119.42Z" fill="#30B46F" stroke="#263238" stroke-miterlimit="10"></path> <path d="M151.13 12.5703H73.7305V17.3103H151.13V12.5703Z" fill="white" stroke="#263238" stroke-miterlimit="10"></path> <path d="M28.7009 11.8086L26.4609 13.9686L28.7809 16.4486" stroke="#263238" stroke-linecap="round" stroke-linejoin="round"></path> <path d="M26.4609 13.9688H31.4309" stroke="#263238" stroke-linecap="round" stroke-linejoin="round"></path> <path d="M41.3534 11.8086L43.5834 13.9686L41.2734 16.4486" stroke="#263238" stroke-linecap="round" stroke-linejoin="round"></path> <path d="M43.5911 13.9688H38.6211" stroke="#263238" stroke-linecap="round" stroke-linejoin="round"></path> <path d="M54.2534 13.6784C54.1158 13.1814 53.8237 12.741 53.4192 12.421C53.0147 12.101 52.5188 11.918 52.0034 11.8984C51.412 11.8984 50.8448 12.1334 50.4266 12.5516C50.0084 12.9698 49.7734 13.537 49.7734 14.1284C49.7734 14.7199 50.0084 15.2871 50.4266 15.7053C50.8448 16.1235 51.412 16.3584 52.0034 16.3584C52.5199 16.3582 53.0208 16.1818 53.4234 15.8584" stroke="#263238" stroke-linecap="round" stroke-linejoin="round"></path> <path d="M52.7422 13.9294H54.4822V11.8594" stroke="#263238" stroke-linecap="round" stroke-linejoin="round"></path> <path d="M66.0825 13.1913L64.0225 11.5312L62.0625 13.1913V16.8213H66.0825V13.1913Z" stroke="#263238" stroke-linecap="round" stroke-linejoin="round"></path> <path d="M64.8005 14.1719H63.2305V16.6919H64.8005V14.1719Z" fill="#263238"></path> <path d="M62.0628 13.1914L60.8828 14.2714" stroke="#263238" stroke-linecap="round" stroke-linejoin="round"></path> <path d="M66.082 13.1914L67.192 14.1814" stroke="#263238" stroke-linecap="round" stroke-linejoin="round"></path> <path d="M65.3438 5.14062L68.4738 8.37062" stroke="#263238" stroke-linecap="round" stroke-linejoin="round"></path> <path d="M68.523 5.19141L65.293 8.32141" stroke="#263238" stroke-linecap="round" stroke-linejoin="round"></path> <path d="M172.543 13.4414H178.753" stroke="#263238" stroke-linecap="round" stroke-linejoin="round"></path> <path d="M172.543 14.8398H178.753" stroke="#263238" stroke-linecap="round" stroke-linejoin="round"></path> <path d="M172.543 16.2383H178.753" stroke="#263238" stroke-linecap="round" stroke-linejoin="round"></path> <path d="M172.543 17.6406H178.753" stroke="#263238" stroke-linecap="round" stroke-linejoin="round"></path> <path d="M32.9609 109.902V75.832L43.8009 98.782L53.0109 94.762L63.4309 102.992L81.1809 91.452L92.0209 106.592L99.6109 102.812L106.111 106.592L114.241 105.642L125.071 108.252L136.451 107.302L143.691 109.902H32.9609Z" fill="#263238"></path> <path d="M147.062 50.7812H158.872" stroke="#263238" stroke-linecap="round" stroke-linejoin="round"></path> <path d="M131.773 50.7812H142.143" stroke="#263238" stroke-linecap="round" stroke-linejoin="round"></path> <path d="M106.352 50.7812H127.952" stroke="#263238" stroke-linecap="round" stroke-linejoin="round"></path> <path d="M106.352 55.5508H158.872" stroke="#263238" stroke-linecap="round" stroke-linejoin="round"></path> <path d="M151.152 60.332H158.872" stroke="#263238" stroke-linecap="round" stroke-linejoin="round"></path> <path d="M114.844 60.332H146.244" stroke="#263238" stroke-linecap="round" stroke-linejoin="round"></path> <path d="M106.352 60.332H110.472" stroke="#263238" stroke-linecap="round" stroke-linejoin="round"></path> <path d="M106.352 65.1016H158.872" stroke="#263238" stroke-linecap="round" stroke-linejoin="round"></path> <path d="M158.872 72.7812H147.062" stroke="#263238" stroke-linecap="round" stroke-linejoin="round"></path> <path d="M131.773 72.7812H142.143" stroke="#263238" stroke-linecap="round" stroke-linejoin="round"></path> <path d="M106.352 72.7812H127.952" stroke="#263238" stroke-linecap="round" stroke-linejoin="round"></path> <path d="M106.352 77.5508H158.872" stroke="#263238" stroke-linecap="round" stroke-linejoin="round"></path> <path d="M158.872 82.332H151.152" stroke="#263238" stroke-linecap="round" stroke-linejoin="round"></path> <path d="M114.844 82.332H146.244" stroke="#263238" stroke-linecap="round" stroke-linejoin="round"></path> <path d="M106.352 82.332H110.472" stroke="#263238" stroke-linecap="round" stroke-linejoin="round"></path> <path d="M106.352 87.1016H158.872" stroke="#263238" stroke-linecap="round" stroke-linejoin="round"></path> <path d="M46.4338 58.6407L40.2238 72.6407C36.5241 70.9937 33.6301 67.9444 32.1786 64.1637C30.7271 60.383 30.8369 56.1805 32.4838 52.4807C33.6692 49.763 35.6295 47.455 38.1196 45.8453C40.6096 44.2357 43.519 43.3958 46.4838 43.4307L46.4338 58.6407Z" fill="#30B46F"></path> <g opacity="0.47"> <path d="M46.4338 58.6407L40.2238 72.6407C36.5241 70.9937 33.6301 67.9444 32.1786 64.1637C30.7271 60.383 30.8369 56.1805 32.4838 52.4807C33.6692 49.763 35.6295 47.455 38.1196 45.8453C40.6096 44.2357 43.519 43.3958 46.4838 43.4307L46.4338 58.6407Z" fill="white"></path> </g> <path d="M46.4327 58.6406L53.6027 72.1306C51.5642 73.2495 49.2914 73.8741 46.9674 73.954C44.6434 74.0339 42.3332 73.5669 40.2227 72.5906L46.4327 58.6406Z" fill="#263238"></path> <path d="M46.4336 58.64L58.3036 49C59.5695 50.5614 60.5145 52.3575 61.0843 54.2852C61.654 56.2129 61.8373 58.2342 61.6236 60.233C61.4099 62.2317 60.8034 64.1685 59.8389 65.9322C58.8745 67.6958 57.5711 69.2516 56.0036 70.51C55.246 71.1296 54.4286 71.6722 53.5636 72.13L46.4336 58.64Z" fill="#30B46F"></path> <path d="M46.4336 58.6396V43.3796C48.7138 43.3225 50.9756 43.8013 53.0372 44.7774C55.0988 45.7534 56.9026 47.1996 58.3036 48.9996L46.4336 58.6396Z" fill="#263238"></path> <path d="M46.4311 66.9794C51.0206 66.9794 54.7411 63.2589 54.7411 58.6694C54.7411 54.0799 51.0206 50.3594 46.4311 50.3594C41.8416 50.3594 38.1211 54.0799 38.1211 58.6694C38.1211 63.2589 41.8416 66.9794 46.4311 66.9794Z" fill="white"></path> <path d="M87.812 58.6403L81.602 72.6403C79.7692 71.8258 78.1149 70.658 76.7338 69.2037C75.3527 67.7494 74.2718 66.0371 73.5529 64.1648C72.8341 62.2924 72.4914 60.2967 72.5444 58.2918C72.5974 56.2868 73.0452 54.312 73.862 52.4803C75.043 49.7696 76.9953 47.4663 79.4758 45.8571C81.9563 44.2479 84.8554 43.4039 87.812 43.4303V58.6403Z" fill="#30B46F"></path> <g opacity="0.47"> <path d="M87.812 58.6403L81.602 72.6403C79.7692 71.8258 78.1149 70.658 76.7338 69.2037C75.3527 67.7494 74.2718 66.0371 73.5529 64.1648C72.8341 62.2924 72.4914 60.2967 72.5444 58.2918C72.5974 56.2868 73.0452 54.312 73.862 52.4803C75.043 49.7696 76.9953 47.4663 79.4758 45.8571C81.9563 44.2479 84.8554 43.4039 87.812 43.4303V58.6403Z" fill="white"></path> </g> <path d="M87.8111 58.6406L95.0011 72.1306C92.9626 73.2495 90.6899 73.8741 88.3659 73.954C86.0419 74.0339 83.7316 73.5669 81.6211 72.5906L87.8111 58.6406Z" fill="#263238"></path> <path d="M87.8125 58.6391L99.6725 49.0391C101.089 50.7882 102.101 52.8286 102.637 55.0145C103.174 57.2003 103.22 59.4776 102.774 61.6836C102.328 63.8896 101.4 65.9698 100.056 67.7755C98.713 69.5812 96.9872 71.0678 95.0025 72.1291L87.8125 58.6391Z" fill="#30B46F"></path> <path d="M87.8125 58.6396V43.3796C90.0913 43.3225 92.3517 43.8013 94.4116 44.7775C96.4716 45.7536 98.2736 47.1998 99.6725 48.9996L87.8125 58.6396Z" fill="#263238"></path> <path d="M87.81 66.9794C92.3995 66.9794 96.12 63.2589 96.12 58.6694C96.12 54.0799 92.3995 50.3594 87.81 50.3594C83.2205 50.3594 79.5 54.0799 79.5 58.6694C79.5 63.2589 83.2205 66.9794 87.81 66.9794Z" fill="white"></path> <path d="M32.4219 31.5312H130.522" stroke="#263238" stroke-linecap="round" stroke-linejoin="round"></path> <path d="M32.4219 36.3086H148.752" stroke="#263238" stroke-linecap="round" stroke-linejoin="round"></path> <path d="M251.901 130.002C251.901 130.002 247.051 135.622 247.561 136.642C248.071 137.662 252.161 140.212 252.411 138.642C252.889 136.194 253.223 133.719 253.411 131.232C253.441 129.472 253.691 129.002 251.901 130.002Z" fill="white" stroke="#263238" stroke-linecap="round" stroke-linejoin="round"></path> <path d="M254.462 117.999C254.462 117.999 251.142 125.149 250.882 126.689C250.622 128.229 252.162 130.259 252.162 131.029C252.162 131.799 250.162 134.089 250.162 137.669C250.162 141.249 249.902 149.419 252.972 151.459C256.042 153.499 261.142 151.209 261.142 151.209L265.992 160.659L285.402 149.419L282.592 145.079C282.592 145.079 286.682 134.079 283.592 125.669C280.502 117.259 269.592 115.959 265.202 115.669C260.812 115.379 256.002 114.909 254.462 117.999Z" fill="white"></path> <path d="M282.551 145.05C282.551 145.05 286.641 134.05 283.551 125.64C280.461 117.23 269.551 115.93 265.161 115.64C264.451 115.64 263.721 115.55 262.991 115.52L257.331 120C257.331 120 252.671 126.67 254.671 129.33C256.671 131.99 258.001 134.67 257.331 139C256.661 143.33 252.241 150.82 256.671 151C257.581 151 259.021 151.16 260.731 151.33L261.101 151.18L261.201 151.38C267.741 152.04 277.671 153.33 277.671 153.33L278.671 153.28L285.381 149.39L282.551 145.05Z" fill="white"></path> <path opacity="0.5" d="M282.551 145.05C282.551 145.05 286.641 134.05 283.551 125.64C280.461 117.23 269.551 115.93 265.161 115.64C264.451 115.64 263.721 115.55 262.991 115.52L257.331 120C257.331 120 252.671 126.67 254.671 129.33C256.671 131.99 258.001 134.67 257.331 139C256.661 143.33 252.241 150.82 256.671 151C257.581 151 259.021 151.16 260.731 151.33L261.101 151.18L261.201 151.38C267.741 152.04 277.671 153.33 277.671 153.33L278.671 153.28L285.381 149.39L282.551 145.05Z" fill="white"></path> <path d="M254.462 117.999C254.462 117.999 251.142 125.149 250.882 126.689C250.622 128.229 252.162 130.259 252.162 131.029C252.162 131.799 250.162 134.089 250.162 137.669C250.162 141.249 249.902 149.419 252.972 151.459C256.042 153.499 261.142 151.209 261.142 151.209L265.992 160.659L285.402 149.419L282.592 145.079C282.592 145.079 286.682 134.079 283.592 125.669C280.502 117.259 269.592 115.959 265.202 115.669C260.812 115.379 256.002 114.909 254.462 117.999Z" stroke="#263238" stroke-linecap="round" stroke-linejoin="round"></path> <path d="M281.001 110.06C281.001 110.06 271.551 107.25 263.381 107.5C255.211 107.75 247.031 110.06 247.291 114.4C247.551 118.74 255.201 120.27 255.201 120.27C255.201 120.27 259.551 120.53 258.271 121.8C256.991 123.07 253.671 125.64 256.271 128.7C258.871 131.76 261.371 134.32 260.611 135.34C259.851 136.36 260.861 138.66 261.881 137.9C262.901 137.14 261.371 134.06 264.181 133.04C266.991 132.02 269.801 136.36 268.781 139.17C267.761 141.98 265.971 141.73 266.991 143.77C268.011 145.81 274.401 149.13 278.741 149.13C283.081 149.13 284.361 143.51 288.961 134.57C293.561 125.63 290.471 112.61 281.001 110.06Z" fill="#263238" stroke="#263238" stroke-linecap="round" stroke-linejoin="round"></path> <path d="M256.762 162.93L259.312 167.78L287.412 149.39L284.602 146.07C284.602 146.07 261.102 159.09 256.762 162.93Z" fill="white" stroke="#263238" stroke-linecap="round" stroke-linejoin="round"></path> <path d="M262.122 163.691C262.122 163.691 256.502 171.351 254.462 175.181C252.422 179.011 243.732 201.491 239.902 209.411C237.665 213.962 235.889 218.726 234.602 223.631H288.172C288.172 223.631 294.302 193.061 294.302 179.781C294.302 166.501 291.242 156.541 290.212 153.991C289.182 151.441 285.362 149.391 285.362 149.391L262.122 163.691Z" fill="white"></path> <path d="M262.122 163.691C262.122 163.691 256.502 171.351 254.462 175.181C252.422 179.011 243.732 201.491 239.902 209.411C237.665 213.962 235.889 218.726 234.602 223.631H288.172C288.172 223.631 294.302 193.061 294.302 179.781C294.302 166.501 291.242 156.541 290.212 153.991C289.182 151.441 285.362 149.391 285.362 149.391L262.122 163.691Z" fill="#BDBDBD" stroke="#263238" stroke-linecap="round" stroke-linejoin="round"></path> <path d="M247.431 192.42C247.431 192.42 259.431 173.63 263.951 168.77C268.471 163.91 290.891 152.41 290.891 152.41L287.351 148.57C287.351 148.57 264.281 160.02 260.711 163.57C257.141 167.12 246.791 188.2 247.431 192.42Z" fill="#BDBDBD" stroke="#263238" stroke-linecap="round" stroke-linejoin="round"></path> <path d="M262.122 163.691C262.122 163.691 256.502 171.351 254.462 175.181C252.422 179.011 243.732 201.491 239.902 209.411C237.665 213.962 235.889 218.726 234.602 223.631H288.172C288.172 223.631 294.302 193.061 294.302 179.781C294.302 166.501 291.242 156.541 290.212 153.991C289.182 151.441 285.362 149.391 285.362 149.391L262.122 163.691Z" stroke="#263238" stroke-linecap="round" stroke-linejoin="round"></path> <path d="M276.93 163.691C276.93 163.691 262.93 172.891 260.84 176.461C258.75 180.031 260.59 185.661 260.59 186.461C260.59 187.261 258.59 189.781 258.59 190.551V193.101L247.59 222.731H272.59C272.59 222.731 283.32 196.681 285.36 191.571C287.4 186.461 288.43 177.271 287.41 172.161" stroke="#263238" stroke-linecap="round" stroke-linejoin="round"></path> <path d="M262.891 185.66C262.891 185.66 269.021 178.5 278.211 177.48" stroke="#263238" stroke-linecap="round" stroke-linejoin="round"></path> <path d="M322.4 133.31C322.4 133.31 304.76 129.78 299.82 134.01C294.88 138.24 297.7 164.01 296.29 170.71C294.88 177.41 291.35 184.47 292.76 191.52C294.17 198.57 297.35 203.52 298.76 207.05C300.17 210.58 298.4 223.63 298.4 223.63H349.92C349.92 223.63 359.09 199.29 359.09 180.94C359.09 162.59 353.44 146.72 344.98 140.72C336.52 134.72 322.4 133.31 322.4 133.31Z" fill="#30B46F"></path> <path opacity="0.26" d="M303.511 144.332C298.511 152.672 304.181 198.332 305.511 202.672C306.841 207.012 297.181 203.002 300.181 205.332C303.181 207.662 308.841 211.672 308.841 211.672C305.625 210.284 302.341 209.06 299.001 208.002C299.177 209.047 299.267 210.103 299.271 211.162C302.62 213.78 306.141 216.168 309.811 218.312L298.861 219.232C298.631 221.742 298.371 223.612 298.371 223.612H349.891C349.891 223.612 359.061 199.272 359.061 180.922C359.118 173.281 358.05 165.673 355.891 158.342L325.151 145.342C325.151 145.342 308.511 136.002 303.511 144.332Z" fill="black"></path> <path d="M322.4 133.31C322.4 133.31 304.76 129.78 299.82 134.01C294.88 138.24 297.7 164.01 296.29 170.71C294.88 177.41 291.35 184.47 292.76 191.52C294.17 198.57 297.35 203.52 298.76 207.05C300.17 210.58 298.4 223.63 298.4 223.63H349.92C349.92 223.63 359.09 199.29 359.09 180.94C359.09 162.59 353.44 146.72 344.98 140.72C336.52 134.72 322.4 133.31 322.4 133.31Z" stroke="#263238" stroke-linecap="round" stroke-linejoin="round"></path> <path d="M322.002 69.801C322.002 69.801 314.242 63.451 306.832 68.041C299.422 72.631 286.722 93.791 288.132 104.381C289.542 114.971 302.252 124.841 293.782 130.491C285.312 136.141 288.492 146.361 292.722 149.191L295.192 149.541C295.192 149.541 295.192 139.311 302.252 136.481C309.312 133.651 319.532 136.131 322.002 139.311C324.472 142.491 319.892 158.711 325.882 162.951C331.872 167.191 340.352 167.891 338.592 172.121C336.832 176.351 330.822 183.061 334.702 189.061C338.582 195.061 348.112 201.061 351.292 198.931C354.472 196.801 349.882 194.351 351.642 192.931C353.402 191.511 367.872 186.581 365.402 180.581C362.932 174.581 357.642 171.401 360.112 168.931C362.582 166.461 371.752 160.471 370.692 152.001C369.632 143.531 349.522 137.181 348.822 128.001C348.122 118.821 360.822 117.771 356.582 97.001C352.342 76.231 339.332 67.001 333.002 67.001C329.157 66.9913 325.373 67.9545 322.002 69.801V69.801Z" fill="#263238" stroke="#263238" stroke-linecap="round" stroke-linejoin="round"></path> <path d="M328.859 80.8711C334.179 88.2511 340.859 99.1211 341.089 107.341C341.419 121.031 329.399 126.711 331.399 137.391C333.399 148.071 356.749 149.911 358.449 159.391C360.149 168.871 349.449 165.391 352.099 170.741C354.749 176.091 365.099 180.741 360.789 186.741" stroke="white" stroke-linecap="round" stroke-linejoin="round"></path> <path d="M322.391 72.6211C322.391 72.6211 323.511 73.9011 325.201 76.0411" stroke="white" stroke-linecap="round" stroke-linejoin="round"></path> <path d="M317.102 126.742C318.322 128.022 319.052 129.212 319.052 130.382" stroke="white" stroke-linecap="round" stroke-linejoin="round"></path> <path d="M296.681 86C296.681 86 291.341 100.69 299.351 110.71C303.621 116.05 308.931 119.96 312.961 123.16" stroke="white" stroke-linecap="round" stroke-linejoin="round"></path> <path d="M344.77 146.871C346.32 147.431 348.01 147.871 349.77 148.411" stroke="white" stroke-linecap="round" stroke-linejoin="round"></path> <path d="M346.76 83C346.76 83 358.109 97.36 354.109 109.71C350.109 122.06 336.75 128.71 336.75 136.71C336.611 139.153 337.425 141.554 339.019 143.41" stroke="white" stroke-linecap="round" stroke-linejoin="round"></path> <path d="M211.86 211.872C211.86 211.872 209.74 214.482 209.74 216.112C209.74 217.742 208.93 220.992 209.91 221.162C210.89 221.332 211.53 217.732 212.51 216.432C213.49 215.132 215.93 214.802 215.77 213.012C215.61 211.222 213.33 209.592 211.86 211.872Z" fill="white" stroke="#263238" stroke-linecap="round" stroke-linejoin="round"></path> <path d="M235.329 214.151C235.329 214.151 226.199 206.491 223.919 205.681C221.639 204.871 217.069 210.081 214.299 215.131C211.529 220.181 212.999 221.321 214.469 221.481C215.939 221.641 222.289 218.881 222.289 218.881C224.54 220.671 227.154 221.947 229.949 222.621C234.349 223.621 240.699 220.991 240.869 218.391C241.039 215.791 235.329 214.151 235.329 214.151Z" fill="white" stroke="#263238" stroke-linecap="round" stroke-linejoin="round"></path> <path d="M320.282 161.86C320.282 161.86 320.632 215.16 319.222 219.4C317.812 223.64 312.872 223.63 304.762 223.98C296.652 224.33 247.252 222.93 247.252 222.93C244.446 223.343 241.617 223.577 238.782 223.63C234.902 223.63 228.192 222.93 225.722 221.16C223.252 219.39 221.142 219.04 220.082 219.4C219.022 219.76 216.202 223.28 213.732 223.28C211.262 223.28 208.432 222.22 210.202 221.87C211.972 221.52 221.492 211.28 223.612 211.28C225.732 211.28 240.892 215.16 243.722 214.81C246.552 214.46 297.002 204.58 297.002 204.58L295.242 149.58C295.242 149.58 293.472 140.05 302.302 136.52" fill="#30B46F"></path> <path opacity="0.26" d="M306.22 141.812C305.095 142.377 304.154 143.251 303.51 144.332C298.51 152.672 304.18 198.333 305.51 202.673C306.84 207.013 297.18 203.002 300.18 205.332C303.18 207.662 308.84 211.673 308.84 211.673C308.84 211.673 292.51 204.673 296.84 209.003C301.17 213.333 309.84 218.332 309.84 218.332L252.84 223.082C266.02 223.442 298.3 224.263 304.73 223.983C312.84 223.633 317.78 223.632 319.19 219.402C320.6 215.172 320.25 160.832 320.25 160.832L306.22 141.812Z" fill="black"></path> <path d="M320.282 161.86C320.282 161.86 320.632 215.16 319.222 219.4C317.812 223.64 312.872 223.63 304.762 223.98C296.652 224.33 247.252 222.93 247.252 222.93C244.446 223.343 241.617 223.577 238.782 223.63C234.902 223.63 228.192 222.93 225.722 221.16C223.252 219.39 221.142 219.04 220.082 219.4C219.022 219.76 216.202 223.28 213.732 223.28C211.262 223.28 208.432 222.22 210.202 221.87C211.972 221.52 221.492 211.28 223.612 211.28C225.732 211.28 240.892 215.16 243.722 214.81C246.552 214.46 297.002 204.58 297.002 204.58L295.242 149.58C295.242 149.58 293.472 140.05 302.302 136.52" stroke="#263238" stroke-linecap="round" stroke-linejoin="round"></path> <path d="M261.942 223.322C260.854 219.334 261.096 215.1 262.632 211.262C252.992 213.122 244.812 214.672 243.722 214.812C240.892 215.162 225.722 211.282 223.612 211.282C221.502 211.282 212.002 221.512 210.202 221.872C208.402 222.232 211.262 223.282 213.732 223.282C216.202 223.282 219.022 219.752 220.082 219.402C221.142 219.052 223.252 219.402 225.722 221.162C228.192 222.922 234.902 223.632 238.782 223.632C241.617 223.579 244.446 223.345 247.252 222.932L261.942 223.322Z" fill="white" stroke="#263238" stroke-linecap="round" stroke-linejoin="round"></path> <path d="M215.611 208.121C214.066 209.037 212.776 210.326 211.861 211.871C210.861 213.991 211.861 220.501 213.491 220.501C215.121 220.501 216.261 218.711 216.261 216.431C216.261 214.151 215.611 208.121 215.611 208.121Z" fill="white" stroke="#263238" stroke-linecap="round" stroke-linejoin="round"></path> <path d="M217.89 206.82C217.89 206.82 215.28 206.98 214.3 208.94C213.32 210.9 213.49 219.2 215.12 219.53C216.75 219.86 217.4 217.08 217.4 215.29C217.4 213.5 217.89 206.82 217.89 206.82Z" fill="white" stroke="#263238" stroke-linecap="round" stroke-linejoin="round"></path> <path d="M223.922 205.681C223.922 205.681 220.012 205.021 218.382 206.171C216.752 207.321 216.382 217.411 217.562 218.221C218.742 219.031 220.662 216.921 220.662 215.781C220.662 214.641 222.942 208.451 222.942 208.451" fill="white"></path> <path d="M223.922 205.681C223.922 205.681 220.012 205.021 218.382 206.171C216.752 207.321 216.382 217.411 217.562 218.221C218.742 219.031 220.662 216.921 220.662 215.781C220.662 214.641 222.942 208.451 222.942 208.451" stroke="#263238" stroke-linecap="round" stroke-linejoin="round"></path> <path d="M125.999 166.327C125.999 166.327 121.319 173.427 123.289 176.877C125.259 180.327 132.409 187.467 147.179 186.477C161.949 185.487 153.089 160.627 154.809 145.357C156.529 130.087 150.139 127.877 144.959 131.817C139.779 135.757 133.389 154.717 130.959 157.917C129.068 160.573 127.408 163.387 125.999 166.327V166.327Z" fill="#30B46F"></path> <path opacity="0.42" d="M125.999 166.327C125.999 166.327 121.319 173.427 123.289 176.877C125.259 180.327 132.409 187.467 147.179 186.477C161.949 185.487 153.089 160.627 154.809 145.357C156.529 130.087 150.139 127.877 144.959 131.817C139.779 135.757 133.389 154.717 130.959 157.917C129.068 160.573 127.408 163.387 125.999 166.327V166.327Z" fill="black" stroke="#263238" stroke-linecap="round" stroke-linejoin="round"></path> <path d="M125.999 166.327C125.999 166.327 121.319 173.427 123.289 176.877C125.259 180.327 132.409 187.467 147.179 186.477C161.949 185.487 153.089 160.627 154.809 145.357C156.529 130.087 150.139 127.877 144.959 131.817C139.779 135.757 133.389 154.717 130.959 157.917C129.068 160.573 127.408 163.387 125.999 166.327V166.327Z" stroke="#263238" stroke-linecap="round" stroke-linejoin="round"></path> <path d="M144 170.479C144 170.479 144 192.389 144.25 199.289C144.5 206.189 145.48 222.929 145.48 222.929H191.77L189.31 172.929L188.57 170.469L144 170.479Z" fill="#263238" stroke="#263238" stroke-linecap="round" stroke-linejoin="round"></path> <path d="M170.907 176.277L189.487 177.027L189.287 172.937L188.547 170.477H170.617L170.907 176.277Z" fill="white" stroke="#263238" stroke-linecap="round" stroke-linejoin="round"></path> <path d="M148.9 170.477H144C144 170.477 144 172.367 144 175.207L148.91 175.397L148.9 170.477Z" fill="white" stroke="#263238" stroke-linecap="round" stroke-linejoin="round"></path> <path d="M150.469 170.477L150.749 175.477L167.569 176.147L167.399 170.477H150.469Z" fill="white" stroke="#263238" stroke-linecap="round" stroke-linejoin="round"></path> <path d="M144.23 132.549C144.23 132.549 143.98 160.869 144.23 165.309C144.48 169.749 142.23 171.219 145.95 171.959C149.67 172.699 179.69 173.429 182.64 172.959C185.59 172.489 185.64 170.959 186.34 169.509C187.04 168.059 196.92 104.749 194.71 103.019C192.5 101.289 178.46 96.1289 177.22 96.1289C175.98 96.1289 157.77 97.1289 154.32 97.6089C150.87 98.0889 146.93 97.1089 146.69 99.0789C146.45 101.049 144.23 132.549 144.23 132.549Z" fill="white"></path> <path d="M159.317 105.509C159.317 105.509 153.547 105.229 152.447 105.779C151.827 106.089 148.047 115.369 144.877 123.369C144.507 128.579 144.227 132.549 144.227 132.549C144.227 132.549 143.977 160.869 144.227 165.309C144.387 168.219 143.497 169.849 143.897 170.839C145.147 166.499 147.137 159.009 149.427 148.359C153.277 130.499 159.317 105.509 159.317 105.509Z" fill="#BDBDBD"></path> <path d="M144.23 132.549C144.23 132.549 143.98 160.869 144.23 165.309C144.48 169.749 142.23 171.219 145.95 171.959C149.67 172.699 179.69 173.429 182.64 172.959C185.59 172.489 185.64 170.959 186.34 169.509C187.04 168.059 196.92 104.749 194.71 103.019C192.5 101.289 178.46 96.1289 177.22 96.1289C175.98 96.1289 157.77 97.1289 154.32 97.6089C150.87 98.0889 146.93 97.1089 146.69 99.0789C146.45 101.049 144.23 132.549 144.23 132.549Z" stroke="#263238" stroke-linecap="round" stroke-linejoin="round"></path> <path d="M92.9985 117C92.9985 117 84.1385 112.57 80.9385 111.83C77.7385 111.09 67.3884 108.63 66.6484 109.61C65.9084 110.59 66.8985 111.61 67.8885 111.61C68.8785 111.61 75.2685 114.32 75.2685 114.32C75.2685 114.32 74.5384 120.23 74.5384 121.71C74.5384 123.19 82.4185 126.14 84.1385 126.39C85.8585 126.64 89.3285 125.32 89.3285 125.32L91.7685 124.66L92.9985 117Z" fill="white" stroke="#263238" stroke-linecap="round" stroke-linejoin="round"></path> <path d="M74.5367 115.316C74.5367 115.316 73.5367 121.966 74.2867 122.696C75.0367 123.426 80.1967 126.886 80.9367 125.166C81.6767 123.446 81.4267 116.786 81.4267 116.056C81.4267 115.326 74.5367 115.316 74.5367 115.316Z" fill="white" stroke="#263238" stroke-linecap="round" stroke-linejoin="round"></path> <path d="M90.0469 117.29C90.0469 117.29 81.6769 114.09 79.7069 114.09C77.7369 114.09 74.5369 116.79 72.8069 117.29C71.0769 117.79 73.2969 119.29 74.5369 119.01C75.7769 118.73 79.2069 117.78 79.2069 117.78C79.9728 119.245 81.0724 120.509 82.4169 121.47C84.4169 122.7 88.5669 121.97 88.5669 121.97" fill="white"></path> <path d="M90.0469 117.29C90.0469 117.29 81.6769 114.09 79.7069 114.09C77.7369 114.09 74.5369 116.79 72.8069 117.29C71.0769 117.79 73.2969 119.29 74.5369 119.01C75.7769 118.73 79.2069 117.78 79.2069 117.78C79.9728 119.245 81.0724 120.509 82.4169 121.47C84.4169 122.7 88.5669 121.97 88.5669 121.97" stroke="#263238" stroke-linecap="round" stroke-linejoin="round"></path> <path d="M165.098 95.9369C165.098 95.9369 150.328 94.6669 147.328 95.3269C144.328 95.9869 137.328 112.997 136.328 115.327C135.328 117.657 124.328 128.327 124.328 128.327L92.6681 115.997L89.3281 125.327C89.3281 125.327 114.998 141.997 119.328 143.997C123.658 145.997 129.668 145.667 131.668 145.667C133.137 145.517 134.529 144.936 135.668 143.997L125.998 166.327C125.998 166.327 141.668 147.667 146.328 138.667C150.988 129.667 161.668 103.327 162.668 102.667C163.668 102.007 165.098 95.9369 165.098 95.9369Z" fill="#30B46F"></path> <path opacity="0.26" d="M130.909 134.627C130.109 134.627 129.039 134.097 127.969 134.097C126.899 134.097 129.309 138.097 128.769 139.457C128.229 140.817 89.9294 124.457 89.9294 124.457L89.8594 125.667C93.4794 128.017 115.359 142.167 119.329 143.997C123.669 145.997 129.669 145.667 131.669 145.667C132.98 145.562 134.233 145.083 135.279 144.287C138.199 136.837 140.279 124.457 140.279 124.457C140.279 124.457 131.719 134.627 130.909 134.627Z" fill="black"></path> <path d="M165.098 95.9369C165.098 95.9369 150.328 94.6669 147.328 95.3269C144.328 95.9869 137.328 112.997 136.328 115.327C135.328 117.657 124.328 128.327 124.328 128.327L92.6681 115.997L89.3281 125.327C89.3281 125.327 114.998 141.997 119.328 143.997C123.658 145.997 129.668 145.667 131.668 145.667C133.137 145.517 134.529 144.936 135.668 143.997L125.998 166.327C125.998 166.327 141.668 147.667 146.328 138.667C150.988 129.667 161.668 103.327 162.668 102.667C163.668 102.007 165.098 95.9369 165.098 95.9369Z" stroke="#263238" stroke-linecap="round" stroke-linejoin="round"></path> <path d="M165.1 95.9375L161 99.8275L161.21 107.607L165.53 103.497L165.1 95.9375Z" fill="white" stroke="#263238" stroke-linecap="round" stroke-linejoin="round"></path> <path d="M157.318 57.9983C157.318 57.9983 152.898 64.7983 153.178 66.2183C153.458 67.6383 154.178 69.0883 154.178 70.2183C154.178 71.3483 149.178 75.3283 149.758 76.2183C150.338 77.1083 153.168 78.4883 153.168 78.4883C153.168 78.4883 153.048 89.5783 155.598 90.9983C158.148 92.4183 162.998 90.1383 162.998 90.1383L165.548 104.358L180.048 94.1183V83.8883C180.048 83.8883 188.578 74.2283 189.148 66.5483C189.718 58.8683 179.148 50.3483 168.678 48.9283C158.208 47.5083 152.478 54.6083 154.178 56.9283C155.878 59.2483 157.318 57.9983 157.318 57.9983Z" fill="white"></path> <path d="M174.648 97.9389L180.058 94.1189V83.8889C180.058 83.8889 188.588 74.2289 189.158 66.5489C189.528 61.5489 185.158 56.1589 179.158 52.6289L164.078 58.8789C164.078 58.8789 156.998 65.0989 157.928 65.9389C158.858 66.7789 161.578 70.2589 160.928 71.8589C160.928 71.8589 158.398 72.8589 158.658 74.5889C158.918 76.3189 164.808 87.5889 164.808 87.5889L162.998 90.1389L174.648 97.9389Z" fill="white"></path> <path opacity="0.5" d="M174.648 97.9389L180.058 94.1189V83.8889C180.058 83.8889 188.588 74.2289 189.158 66.5489C189.528 61.5489 185.158 56.1589 179.158 52.6289L164.078 58.8789C164.078 58.8789 156.998 65.0989 157.928 65.9389C158.858 66.7789 161.578 70.2589 160.928 71.8589C160.928 71.8589 158.398 72.8589 158.658 74.5889C158.918 76.3189 164.808 87.5889 164.808 87.5889L162.998 90.1389L174.648 97.9389Z" fill="white"></path> <path d="M157.318 57.9983C157.318 57.9983 152.898 64.7983 153.178 66.2183C153.458 67.6383 154.178 69.0883 154.178 70.2183C154.178 71.3483 149.178 75.3283 149.758 76.2183C150.338 77.1083 153.168 78.4883 153.168 78.4883C153.168 78.4883 153.048 89.5783 155.598 90.9983C158.148 92.4183 162.998 90.1383 162.998 90.1383L165.548 104.358L180.048 94.1183V83.8883C180.048 83.8883 188.578 74.2283 189.148 66.5483C189.718 58.8683 179.148 50.3483 168.678 48.9283C158.208 47.5083 152.478 54.6083 154.178 56.9283C155.878 59.2483 157.318 57.9983 157.318 57.9983Z" stroke="#263238" stroke-linecap="round" stroke-linejoin="round"></path> <path d="M179.93 96.3477C179.93 96.3477 176.73 107.678 172.79 121.968C168.85 136.258 169.59 180.568 169.59 183.038C169.59 185.508 175.25 194.358 181.66 196.828C185.849 198.366 190.218 199.357 194.66 199.778C194.66 199.778 190.23 170.478 190.23 162.108C190.23 153.738 194.17 140.678 194.17 140.678C194.17 140.678 200.08 155.458 202.54 157.428C205 159.398 214.85 161.608 214.61 152.498C214.37 143.388 205.99 110.878 203.77 107.678C201.55 104.478 190.96 101.278 190.96 101.278L179.93 96.3477Z" fill="#30B46F"></path> <g opacity="0.26"> <path d="M190.279 162.109C184.679 163.559 180.199 164.599 180.199 164.599C180.199 164.599 187.059 178.329 189.809 178.329H191.749C190.939 171.669 190.279 165.329 190.279 162.109Z" fill="black"></path> <path d="M195.58 121.44C198.58 124.73 204.91 123.09 204.91 124.19C204.91 125.29 199.97 127.76 201.91 131.6C203.85 135.44 215.1 151.93 211.8 154.95C210.85 155.82 207.8 156.95 203.98 158.21C207.56 159.79 214.89 160.38 214.68 152.5C214.43 143.39 206.06 110.88 203.84 107.68C203.82 107.68 192.55 118.14 195.58 121.44Z" fill="black"></path> <path d="M187.58 125.289C186.754 126.009 186.154 126.954 185.854 128.008C185.554 129.063 185.566 130.182 185.89 131.229C187.02 134.899 191.26 138.579 190.13 140.559C189 142.539 180.51 141.129 180.8 143.959C181.09 146.789 189.85 156.119 189.85 156.119L193.52 139.429L187.58 125.289Z" fill="black"></path> </g> <path d="M179.93 96.3477C179.93 96.3477 176.73 107.678 172.79 121.968C168.85 136.258 169.59 180.568 169.59 183.038C169.59 185.508 175.25 194.358 181.66 196.828C185.849 198.366 190.218 199.357 194.66 199.778C194.66 199.778 190.23 170.478 190.23 162.108C190.23 153.738 194.17 140.678 194.17 140.678C194.17 140.678 200.08 155.458 202.54 157.428C205 159.398 214.85 161.608 214.61 152.498C214.37 143.388 205.99 110.878 203.77 107.678C201.55 104.478 190.96 101.278 190.96 101.278L179.93 96.3477Z" stroke="#263238" stroke-linecap="round" stroke-linejoin="round"></path> <path d="M180.018 91.3984L167.258 100.468L168.128 108.468L182.178 95.7184L180.018 91.3984Z" fill="white" stroke="#263238" stroke-linecap="round" stroke-linejoin="round"></path> <path d="M184.118 157.917C184.118 157.917 174.758 153.727 174.018 153.727C173.278 153.727 165.898 157.667 164.418 157.667C162.938 157.667 162.198 158.667 163.188 159.397C164.009 159.881 164.945 160.136 165.898 160.137C165.898 160.137 162.448 162.137 162.688 163.087C162.928 164.037 164.908 164.807 164.908 164.807C165.919 166.358 167.381 167.562 169.098 168.257C171.558 168.997 180.178 166.047 180.178 166.047L186.828 165.547L184.118 157.917Z" fill="white"></path> <path d="M174 158C171 158.67 164.91 164.81 164.91 164.81C165.921 166.361 167.384 167.565 169.1 168.26C171.56 169 180.18 166.05 180.18 166.05L186.83 165.55L184.12 157.92C184.12 157.92 177 157.33 174 158Z" fill="white"></path> <path opacity="0.5" d="M174 158C171 158.67 164.91 164.81 164.91 164.81C165.921 166.361 167.384 167.565 169.1 168.26C171.56 169 180.18 166.05 180.18 166.05L186.83 165.55L184.12 157.92C184.12 157.92 177 157.33 174 158Z" fill="white"></path> <path d="M184.118 157.917C184.118 157.917 174.758 153.727 174.018 153.727C173.278 153.727 165.898 157.667 164.418 157.667C162.938 157.667 162.198 158.667 163.188 159.397C164.009 159.881 164.945 160.136 165.898 160.137C165.898 160.137 162.448 162.137 162.688 163.087C162.928 164.037 164.908 164.807 164.908 164.807C165.919 166.358 167.381 167.562 169.098 168.257C171.558 168.997 180.178 166.047 180.178 166.047L186.828 165.547L184.118 157.917Z" stroke="#263238" stroke-linecap="round" stroke-linejoin="round"></path> <path d="M206.529 147.329L183.379 156.689L185.099 166.539C185.099 166.539 216.099 162.109 217.609 159.889C219.119 157.669 213.419 145.109 213.419 145.109" fill="#30B46F"></path> <path opacity="0.26" d="M184.57 163.508L185.1 166.508C185.1 166.508 216.1 162.078 217.61 159.858C219.12 157.638 213.42 145.078 213.42 145.078L210.11 146.148C212.02 150.148 213.11 153.668 211.78 154.918C209.3 157.218 192.65 161.518 184.57 163.508Z" fill="black"></path> <path d="M206.529 147.329L183.379 156.689L185.099 166.539C185.099 166.539 216.099 162.109 217.609 159.889C219.119 157.669 213.419 145.109 213.419 145.109" stroke="#263238" stroke-linecap="round" stroke-linejoin="round"></path> <path d="M135.668 143.997C135.668 143.997 140.288 126.147 141.758 116.297Z" fill="white"></path> <path d="M135.668 143.997C135.668 143.997 140.288 126.147 141.758 116.297" stroke="#263238" stroke-linecap="round" stroke-linejoin="round"></path> <path d="M156.047 195.258L162.687 200.798L163.797 222.958" stroke="white" stroke-linecap="round" stroke-linejoin="round"></path> <path d="M194.22 140.679L187.68 128.679C187.68 128.679 185.79 126.159 189.57 119.859" stroke="#263238" stroke-linecap="round" stroke-linejoin="round"></path> <path d="M168.688 48.9283C158.168 47.5083 152.488 54.6083 154.188 56.9283C154.609 57.5895 155.256 58.0761 156.008 58.2983L157.318 58.0583C157.318 58.0583 166.978 58.3483 166.418 61.4683C165.858 64.5883 160.158 64.8883 162.418 67.4683C163.014 68.1245 163.685 68.7085 164.418 69.2083H164.088C164.701 69.727 165.169 70.3952 165.448 71.1483C165.838 72.3183 163.698 82.0383 163.308 82.8183C162.918 83.5983 160.778 82.6183 158.058 80.6783C156.638 79.5762 154.969 78.8412 153.198 78.5383L153.008 80.2883C153.008 80.2883 155.728 81.0683 156.118 82.6183C156.508 84.1683 153.978 84.3683 153.978 85.7383C153.978 87.1083 153.788 89.5483 155.628 91.0483C157.468 92.5483 163.028 90.1883 163.028 90.1883C163.028 90.1883 167.198 87.2883 167.788 84.1883C168.258 81.6483 168.608 77.1883 169.038 74.9683C169.656 74.2186 170.211 73.4192 170.698 72.5783C170.698 72.5783 175.248 71.4383 173.828 75.9883C172.408 80.5383 169.558 80.5383 169.558 80.5383C172.785 82.3959 176.358 83.5734 180.058 83.9983V83.9282C180.058 83.9282 188.588 74.2683 189.158 66.5883C189.728 58.9083 179.208 50.3483 168.688 48.9283Z" fill="#263238" stroke="#263238" stroke-linecap="round" stroke-linejoin="round"></path> <path d="M195.539 198.82H178.699V223.7H195.539V198.82Z" fill="white" stroke="#263238" stroke-linecap="round" stroke-linejoin="round"></path> <path d="M194.79 220.321H193C192.631 220.321 192.278 220.175 192.017 219.914C191.756 219.653 191.61 219.3 191.61 218.931C191.61 218.562 191.756 218.209 192.017 217.948C192.278 217.688 192.631 217.541 193 217.541H194.76C195.457 217.541 196.126 217.264 196.62 216.771C197.113 216.278 197.39 215.609 197.39 214.911V208.911C197.39 208.213 197.113 207.543 196.62 207.048C196.127 206.553 195.458 206.274 194.76 206.271H192.5C192.308 206.287 192.115 206.264 191.933 206.202C191.751 206.139 191.584 206.04 191.442 205.91C191.3 205.78 191.187 205.621 191.11 205.445C191.032 205.269 190.992 205.079 190.992 204.886C190.992 204.694 191.032 204.503 191.11 204.327C191.187 204.151 191.3 203.993 191.442 203.862C191.584 203.732 191.751 203.633 191.933 203.571C192.115 203.508 192.308 203.485 192.5 203.501H194.76C195.47 203.501 196.174 203.641 196.83 203.913C197.487 204.185 198.083 204.583 198.585 205.086C199.088 205.588 199.486 206.184 199.758 206.841C200.03 207.497 200.17 208.201 200.17 208.911V214.911C200.167 216.34 199.601 217.71 198.593 218.723C197.586 219.736 196.219 220.311 194.79 220.321V220.321Z" fill="white" stroke="#263238" stroke-linecap="round" stroke-linejoin="round"></path> <path d="M106.282 223.37H60.5218C60.3484 223.371 60.1784 223.322 60.0327 223.227C59.887 223.133 59.772 222.999 59.7018 222.84L47.0019 194C46.9417 193.864 46.9166 193.715 46.9288 193.567C46.941 193.419 46.9901 193.276 47.0716 193.152C47.1532 193.028 47.2645 192.926 47.3956 192.855C47.5266 192.785 47.6732 192.749 47.8219 192.75H93.5819C93.755 192.75 93.9242 192.802 94.0683 192.898C94.2124 192.994 94.3249 193.13 94.3918 193.29L107.062 222.18C107.111 222.31 107.129 222.449 107.113 222.587C107.098 222.725 107.051 222.857 106.975 222.974C106.899 223.09 106.796 223.186 106.676 223.255C106.555 223.324 106.42 223.363 106.282 223.37Z" fill="white" stroke="#263238" stroke-linecap="round" stroke-linejoin="round"></path> <path d="M102.001 221.12H62.9411C62.795 221.119 62.6522 221.076 62.5299 220.996C62.4075 220.916 62.3107 220.803 62.2511 220.67L51.4411 196C51.3895 195.884 51.3676 195.758 51.3772 195.632C51.3868 195.506 51.4278 195.384 51.4963 195.278C51.5648 195.172 51.6587 195.084 51.7696 195.023C51.8804 194.963 52.0047 194.93 52.1311 194.93H91.1811C91.3294 194.932 91.4741 194.976 91.5981 195.058C91.7221 195.139 91.8203 195.254 91.8811 195.39L102.691 220.04C102.745 220.156 102.769 220.283 102.76 220.411C102.752 220.538 102.711 220.661 102.642 220.769C102.573 220.877 102.479 220.965 102.367 221.026C102.255 221.088 102.129 221.12 102.001 221.12Z" fill="#263238" stroke="#263238" stroke-linecap="round" stroke-linejoin="round"></path> <path d="M59.8828 223.711H128.633V221.461H59.8828V223.711Z" fill="white" stroke="#263238" stroke-linecap="round" stroke-linejoin="round"></path> <path d="M59.8809 223.711H93.2109V221.461H59.8809V223.711Z" fill="white" stroke="#263238" stroke-linecap="round" stroke-linejoin="round"></path> <path d="M1.32812 223.711H374.668" stroke="#263238" stroke-width="2" stroke-linecap="round" stroke-linejoin="round"></path> </svg> 