<?xml version="1.0" encoding="UTF-8"?> <svg xmlns="http://www.w3.org/2000/svg" width="500" height="500" viewBox="0 0 500 500" fill="none"> <path d="M49 431H448" stroke="#263238" stroke-miterlimit="10"></path> <path d="M245.56 469.84C341.012 469.84 418.39 462.604 418.39 453.68C418.39 444.755 341.012 437.52 245.56 437.52C150.109 437.52 72.7305 444.755 72.7305 453.68C72.7305 462.604 150.109 469.84 245.56 469.84Z" fill="#30B46F"></path> <path opacity="0.5" d="M245.56 469.84C341.012 469.84 418.39 462.604 418.39 453.68C418.39 444.755 341.012 437.52 245.56 437.52C150.109 437.52 72.7305 444.755 72.7305 453.68C72.7305 462.604 150.109 469.84 245.56 469.84Z" fill="white"></path> <path d="M239.569 168.26C239.569 168.26 240.099 156.38 230.919 152.67C221.739 148.96 208.859 154.44 205.709 161.35C202.559 168.26 202.999 173.41 192.439 189.8C181.879 206.19 173.439 220.92 139.029 225.16C104.619 229.4 68.5691 204.9 74.5691 168.89C80.5691 132.88 110.629 120.12 133.309 135.32C155.989 150.52 162.259 164.09 183.309 158.71C204.359 153.33 197.929 91.7095 173.989 69.8995C150.049 48.0895 127.269 78.0795 128.209 108.35C129.149 138.62 146.959 166.8 165.079 171.27C183.199 175.74 203.079 156.38 205.319 137.7C207.559 119.02 219.469 101.78 237.759 108.46C256.049 115.14 261.239 142.85 281.919 151.55C302.599 160.25 338.459 136.67 346.159 103.48C353.859 70.2895 333.159 33.4795 298.419 34.0295C263.679 34.5795 272.589 81.2495 260.709 80.7195C248.829 80.1895 263.349 58.2995 240.349 48.2995C217.349 38.2995 194.899 44.5395 188.519 66.5095C182.139 88.4795 197.819 127.2 218.879 131.44C239.939 135.68 252.499 135.44 266.709 155.73C280.919 176.02 300.339 178.2 317.569 171.64C334.799 165.08 330.999 136.52 351.669 117.1C372.339 97.6795 401.239 116.84 400.829 148.69C400.419 180.54 383.209 178.23 360.299 178.58C337.389 178.93 320.169 195.12 320.299 215.09C320.429 235.06 351.039 238.54 371.639 236.89C392.239 235.24 389.309 226.59 390.989 201.29C392.669 175.99 426.379 171.81 422.789 200.97C419.199 230.13 400.289 224.97 392.869 243.33C385.449 261.69 405.079 275.66 380.049 286.54C355.019 297.42 356.249 275.87 356.309 258.1C356.369 240.33 350.719 243.74 325.189 239.1C299.659 234.46 288.939 211.65 308.119 192.35C327.299 173.05 313.329 174.17 300.679 182.59C288.029 191.01 255.929 150.59 245.109 144.85C234.289 139.11 242.279 146.55 243.839 156.79C245.399 167.03 239.569 168.26 239.569 168.26Z" stroke="#30B46F" stroke-linecap="round" stroke-linejoin="round"></path> <path d="M143.853 195.245C151.002 181.908 145.984 165.3 132.647 158.152C119.309 151.003 102.702 156.02 95.553 169.358C88.4045 182.696 93.4217 199.303 106.759 206.451C120.097 213.6 136.704 208.583 143.853 195.245Z" stroke="#263238" stroke-linecap="round" stroke-linejoin="round"></path> <path d="M141.722 185.597C143.542 173.438 135.16 162.107 123.002 160.288C110.843 158.468 99.5118 166.85 97.6925 179.009C95.8732 191.167 104.255 202.498 116.413 204.318C128.572 206.137 139.903 197.755 141.722 185.597Z" stroke="#263238" stroke-linecap="round" stroke-linejoin="round"></path> <path d="M118.261 180.532L108.261 173.852L107.531 174.942L117.531 181.612C117.661 181.187 117.915 180.81 118.261 180.532V180.532Z" fill="#263238"></path> <path d="M118.061 183.852L108.871 199.942L110.011 200.592L119.191 184.502C118.758 184.403 118.364 184.176 118.061 183.852Z" fill="#263238"></path> <path d="M122.002 182.11C121.967 181.661 121.799 181.231 121.52 180.877C121.241 180.522 120.863 180.259 120.434 180.119C120.005 179.98 119.544 179.971 119.11 180.094C118.676 180.216 118.287 180.465 117.995 180.808C117.702 181.151 117.517 181.574 117.465 182.022C117.412 182.47 117.494 182.924 117.699 183.325C117.904 183.727 118.224 184.059 118.618 184.279C119.012 184.499 119.463 184.597 119.912 184.56C120.513 184.509 121.069 184.224 121.461 183.765C121.852 183.306 122.047 182.712 122.002 182.11V182.11Z" stroke="#263238" stroke-linecap="round" stroke-linejoin="round"></path> <path d="M243.214 73.0283L198.218 76.6328C197.222 76.7126 196.479 77.5851 196.559 78.5816L198.679 105.057C198.759 106.053 199.632 106.796 200.628 106.716L245.624 103.112C246.62 103.032 247.364 102.16 247.284 101.163L245.163 74.688C245.083 73.6916 244.211 72.9485 243.214 73.0283Z" stroke="#263238" stroke-linecap="round" stroke-linejoin="round"></path> <path d="M246.018 85.3877L197.414 89.2812L198.23 99.4686L246.834 95.5751L246.018 85.3877Z" stroke="#263238" stroke-linecap="round" stroke-linejoin="round"></path> <path d="M230.374 80.3341C231.103 80.0951 231.501 79.3099 231.262 78.5804C231.023 77.8509 230.238 77.4532 229.508 77.6922C228.779 77.9312 228.381 78.7164 228.62 79.4459C228.859 80.1754 229.644 80.5731 230.374 80.3341Z" stroke="#263238" stroke-linecap="round" stroke-linejoin="round"></path> <path d="M236.721 78.4714C236.742 78.7452 236.681 79.019 236.547 79.2583C236.412 79.4975 236.21 79.6916 235.965 79.816C235.72 79.9403 235.444 79.9894 235.171 79.9571C234.899 79.9247 234.642 79.8123 234.433 79.6341C234.224 79.4559 234.073 79.2198 233.998 78.9557C233.923 78.6915 233.928 78.4111 234.012 78.1499C234.097 77.8886 234.257 77.6581 234.472 77.4876C234.687 77.317 234.948 77.2139 235.221 77.1914C235.59 77.1638 235.954 77.2828 236.235 77.5225C236.516 77.7623 236.691 78.1034 236.721 78.4714Z" stroke="#263238" stroke-linecap="round" stroke-linejoin="round"></path> <path d="M242.119 78.0013C242.142 78.2753 242.083 78.5499 241.95 78.7904C241.816 79.0308 241.615 79.2264 241.37 79.3523C241.126 79.4782 240.85 79.5288 240.576 79.4976C240.303 79.4665 240.045 79.3551 239.836 79.1774C239.626 78.9997 239.473 78.7639 239.398 78.4996C239.322 78.2353 239.326 77.9544 239.41 77.6926C239.494 77.4308 239.653 77.1997 239.869 77.0286C240.084 76.8575 240.345 76.754 240.619 76.7313C240.986 76.7009 241.351 76.8176 241.632 77.0557C241.913 77.2939 242.088 77.634 242.119 78.0013Z" stroke="#263238" stroke-linecap="round" stroke-linejoin="round"></path> <path d="M274.752 71.5891C274.752 71.5891 273.682 84.8491 281.192 94.2191C288.702 103.589 302.452 110.679 298.872 123.779L335.272 98.0791C335.272 98.0791 335.562 88.4391 329.152 83.9691C322.742 79.4991 316.832 76.7691 314.702 67.9991C312.572 59.2291 311.252 51.5391 311.252 51.5391L274.752 71.5891Z" stroke="#263238" stroke-linecap="round" stroke-linejoin="round"></path> <path d="M276.311 85.8203L259.141 96.3203C261.901 101.081 264.978 105.651 268.351 110C273.141 116 284.871 119.84 287.471 127C289.017 131.548 289.317 136.427 288.341 141.13L322.001 117.67C322.001 117.67 323.361 112.49 320.001 108.67" stroke="#263238" stroke-linecap="round" stroke-linejoin="round"></path> <path d="M294.652 99.5714L318.742 83.6914" stroke="#263238" stroke-linecap="round" stroke-linejoin="round"></path> <path d="M297.051 104.189L323.621 87.6094" stroke="#263238" stroke-linecap="round" stroke-linejoin="round"></path> <path d="M300.98 108.949L327.45 91.1094" stroke="#263238" stroke-linecap="round" stroke-linejoin="round"></path> <path d="M281.582 116.851L293.382 109.051" stroke="#263238" stroke-linecap="round" stroke-linejoin="round"></path> <path d="M285.68 120.57L296.03 113.66" stroke="#263238" stroke-linecap="round" stroke-linejoin="round"></path> <path d="M290.689 79.3615C291.151 80.2898 291.288 81.346 291.079 82.3615C292.249 82.7515 292.799 83.7915 293.429 84.8315C293.429 84.8915 293.569 85.0615 293.589 85.1215C294.12 85.9427 294.462 86.8719 294.589 87.8415C294.589 88.7315 294.239 88.9715 293.589 89.4315C292.939 89.8915 292.119 90.2215 291.459 90.6715C289.409 86.3715 287.459 82.1115 285.539 77.7315C286.189 77.4215 286.879 76.9515 287.539 76.7315C288.199 76.5115 288.539 76.3515 289.199 76.8115C289.827 77.4141 290.288 78.1684 290.539 79.0015C290.569 79.0015 290.669 79.2915 290.689 79.3615ZM289.239 82.5515C289.409 82.4115 289.559 82.4415 289.739 82.2615C289.919 82.0815 290.069 82.0715 290.009 81.6515C289.904 81.1466 289.746 80.654 289.539 80.1815C289.479 80.0415 289.319 79.6215 289.219 79.3715C289.104 79.0294 288.928 78.711 288.699 78.4315C288.626 78.3606 288.533 78.3146 288.432 78.3002C288.331 78.2859 288.229 78.3038 288.139 78.3515C287.939 78.4115 287.849 78.5015 287.669 78.5615C288.209 79.8915 288.709 81.2215 289.239 82.5515ZM292.239 88.3515C292.419 88.2115 292.559 88.2215 292.759 88.0515C292.959 87.8815 293.129 87.7815 293.059 87.3915C292.925 86.9197 292.727 86.4688 292.469 86.0515C292.259 85.7015 292.139 85.4815 291.949 85.1315C291.729 84.7069 291.468 84.3049 291.169 83.9315C291.095 83.8294 290.986 83.7571 290.864 83.7278C290.741 83.6985 290.611 83.714 290.499 83.7715C290.239 83.8315 290.129 83.9815 289.899 84.0715C290.629 85.5215 291.399 87.0015 292.239 88.3515Z" fill="#263238"></path> <path d="M296.57 88.0016C294.223 83.9378 292.216 79.6866 290.57 75.2916C291.01 75.0716 291.44 74.8416 291.88 74.6016C293.443 79.0409 295.453 83.3095 297.88 87.3416L296.57 88.0016Z" fill="#263238"></path> <path d="M299.23 86.6308C296.677 82.657 294.659 78.3631 293.23 73.8608L294.61 73.0508C296.13 77.2908 297.03 80.6708 299.66 84.3308C300.29 83.9608 300.91 83.5908 301.53 83.2008L302.53 84.7108C301.43 85.3708 300.33 86.0108 299.23 86.6308Z" fill="#263238"></path> <path d="M303.352 84.1806C300.93 80.1279 298.92 75.8432 297.352 71.3906L298.852 70.3906C300.28 74.2726 302.001 78.0402 304.002 81.6606L306.002 80.3706C306.302 80.9006 306.582 81.4306 306.882 81.9606C305.662 82.7106 304.512 83.4506 303.352 84.1806Z" fill="#263238"></path> <path d="M305.549 78.0496C305.429 77.8396 305.149 77.2596 305.009 77.0496C305.489 76.6996 306.009 76.3896 306.469 76.0496C306.679 76.4696 306.879 76.8496 307.099 77.2796C307.328 77.7614 307.628 78.2063 307.989 78.5996C308.031 78.659 308.085 78.7089 308.148 78.7464C308.21 78.7839 308.28 78.808 308.352 78.8174C308.424 78.8268 308.498 78.8212 308.568 78.8009C308.638 78.7807 308.703 78.7462 308.759 78.6996C309.049 78.5396 309.129 78.4096 309.069 78.0296C308.982 77.6105 308.819 77.2107 308.589 76.8496C308.355 76.4017 308.047 75.9961 307.679 75.6496C307.297 75.3221 306.869 75.0526 306.409 74.8496C305.959 74.6496 305.629 74.5496 305.169 74.3196C304.643 74.0865 304.158 73.7727 303.729 73.3896C303.3 72.9415 302.96 72.4154 302.729 71.8396C302.323 71.0031 302.13 70.0788 302.169 69.1496C302.197 68.7756 302.322 68.4153 302.53 68.1035C302.739 67.7916 303.024 67.5389 303.359 67.3696C303.639 67.1335 303.993 67.0039 304.359 67.0039C304.725 67.0039 305.079 67.1335 305.359 67.3696C306.085 68.0048 306.633 68.8182 306.949 69.7296C307.019 69.8796 307.359 70.3496 307.259 70.4896C306.999 70.8296 306.339 71.0396 305.979 71.3396C305.829 70.9896 305.739 70.7596 305.579 70.3996C305.415 69.9487 305.186 69.5242 304.899 69.1396C304.639 68.8596 304.489 68.8696 304.219 69.0096C304.098 69.0637 303.997 69.1547 303.93 69.2697C303.864 69.3846 303.835 69.5176 303.849 69.6496C303.861 69.998 303.95 70.3395 304.109 70.6496C304.232 70.9919 304.434 71.3003 304.699 71.5496C305.01 71.7841 305.346 71.9852 305.699 72.1496L306.959 72.7896C307.554 73.1226 308.105 73.5291 308.599 73.9996C309.089 74.4931 309.495 75.0641 309.799 75.6896C310.3 76.5598 310.604 77.5292 310.689 78.5296C310.713 78.9012 310.623 79.2713 310.432 79.5909C310.241 79.9105 309.957 80.1646 309.619 80.3196C309.321 80.5687 308.951 80.715 308.564 80.7366C308.176 80.7582 307.792 80.6541 307.469 80.4396C306.645 79.81 305.986 78.9899 305.549 78.0496V78.0496Z" fill="#263238"></path> <path d="M275.87 101.3C276.171 101.684 276.393 102.124 276.524 102.594C276.654 103.064 276.69 103.556 276.63 104.04C277.791 104.368 278.797 105.098 279.47 106.1L279.68 106.34C280.335 107.01 280.816 107.831 281.08 108.73C281.19 109.54 280.83 109.79 280.18 110.25C279.53 110.71 278.67 111.08 277.99 111.54C275.28 107.8 272.63 104.1 270.09 100.27C270.77 99.9399 271.47 99.4599 272.17 99.1899C272.442 99.0229 272.753 98.9295 273.072 98.919C273.391 98.9084 273.707 98.9811 273.99 99.1299C274.69 99.5874 275.264 100.213 275.66 100.95L275.87 101.3ZM274.63 104.3C274.8 104.15 274.97 104.18 275.15 104C275.33 103.82 275.49 103.79 275.37 103.42C275.196 102.964 274.968 102.531 274.69 102.13C274.61 102 274.4 101.64 274.26 101.42C274.085 101.11 273.859 100.833 273.59 100.6C273.495 100.546 273.388 100.518 273.28 100.518C273.171 100.518 273.064 100.546 272.97 100.6C272.76 100.67 272.66 100.76 272.47 100.83C273.21 102 273.9 103.14 274.63 104.31V104.3ZM278.55 109.3C278.73 109.16 278.88 109.16 279.08 108.99C279.28 108.82 279.46 108.72 279.34 108.37C279.141 107.94 278.875 107.545 278.55 107.2L277.87 106.4C277.572 106.033 277.237 105.697 276.87 105.4C276.769 105.311 276.644 105.254 276.51 105.236C276.377 105.218 276.241 105.24 276.12 105.3C275.84 105.38 275.75 105.53 275.5 105.62C276.48 106.89 277.48 108.14 278.55 109.33V109.3Z" fill="#263238"></path> <path d="M283.25 108.698C280.266 105.252 277.589 101.551 275.25 97.638C275.71 97.4046 276.16 97.1646 276.6 96.918C278.864 100.886 281.546 104.6 284.6 107.998L283.25 108.698Z" fill="#263238"></path> <path d="M286 107.22C282.822 103.912 280.129 100.172 278 96.1095C278.48 95.8395 278.95 95.5495 279.42 95.2695C281.55 98.9995 282.91 101.99 286.19 105.1C286.84 104.72 287.48 104.33 288.11 103.94C288.52 104.36 288.92 104.8 289.32 105.23C288.25 105.91 287.13 106.57 286 107.22Z" fill="#263238"></path> <path d="M334.27 193.359L380.2 193.939C380.2 193.939 379.02 221.119 372.45 228.579L326.59 223.299C326.59 223.299 335.05 214.339 334.27 193.359Z" stroke="#263238" stroke-linecap="round" stroke-linejoin="round"></path> <path d="M380.2 193.941L382.47 225.091L375.23 224.111" stroke="#263238" stroke-linecap="round" stroke-linejoin="round"></path> <path d="M338.261 201.328L375.541 202.818C375.541 202.818 374.231 217.248 370.861 222.668L332.941 218.758C332.941 218.758 338.481 209.588 338.261 201.328Z" stroke="#263238" stroke-linecap="round" stroke-linejoin="round"></path> <path d="M341.862 201.488C341.862 201.488 340.372 213.688 336.562 219.138" stroke="#263238" stroke-linecap="round" stroke-linejoin="round"></path> <path d="M346.82 202C346.82 202 345.34 214.21 341.52 219.66" stroke="#263238" stroke-linecap="round" stroke-linejoin="round"></path> <path d="M351.31 202.07C351.31 202.07 349.82 214.28 346 219.73" stroke="#263238" stroke-linecap="round" stroke-linejoin="round"></path> <path d="M355.339 202.199C355.339 202.199 353.859 214.399 350.039 219.859" stroke="#263238" stroke-linecap="round" stroke-linejoin="round"></path> <path d="M359.62 202.531C359.62 202.531 358.14 214.731 354.32 220.181" stroke="#263238" stroke-linecap="round" stroke-linejoin="round"></path> <path d="M363.68 202.871C363.68 202.871 362.25 215.751 358.43 221.201" stroke="#263238" stroke-linecap="round" stroke-linejoin="round"></path> <path d="M367.481 202.789C367.481 202.789 365.841 215.909 362.031 221.359" stroke="#263238" stroke-linecap="round" stroke-linejoin="round"></path> <path d="M371.311 203.16C371.311 203.16 370.311 216.22 366.531 221.67" stroke="#263238" stroke-linecap="round" stroke-linejoin="round"></path> <path d="M338.09 204.699L374.78 207.359" stroke="#263238" stroke-linecap="round" stroke-linejoin="round"></path> <path d="M337.262 208.34L374.212 211.43" stroke="#263238" stroke-linecap="round" stroke-linejoin="round"></path> <path d="M336.211 212.012L373.201 215.542" stroke="#263238" stroke-linecap="round" stroke-linejoin="round"></path> <path d="M334.922 215.469L371.932 219.219" stroke="#263238" stroke-linecap="round" stroke-linejoin="round"></path> <path d="M341.751 195.901C341.215 196.018 340.655 195.967 340.148 195.757C339.641 195.547 339.209 195.188 338.912 194.726C338.614 194.265 338.464 193.724 338.482 193.175C338.5 192.626 338.684 192.096 339.011 191.655C339.338 191.214 339.792 190.883 340.312 190.706C340.832 190.529 341.393 190.515 341.921 190.666C342.449 190.817 342.919 191.125 343.267 191.549C343.616 191.974 343.826 192.494 343.871 193.041" stroke="#263238" stroke-linecap="round" stroke-linejoin="round"></path> <path d="M347.142 196.14C346.605 196.256 346.046 196.206 345.539 195.996C345.031 195.786 344.6 195.426 344.302 194.965C344.005 194.503 343.855 193.962 343.873 193.413C343.89 192.864 344.075 192.334 344.402 191.893C344.729 191.452 345.183 191.121 345.703 190.944C346.223 190.768 346.784 190.754 347.312 190.904C347.84 191.055 348.31 191.363 348.658 191.788C349.006 192.212 349.217 192.732 349.262 193.28" stroke="#263238" stroke-linecap="round" stroke-linejoin="round"></path> <path d="M352.533 196.378C351.996 196.494 351.437 196.444 350.929 196.234C350.422 196.024 349.991 195.664 349.693 195.203C349.395 194.741 349.245 194.2 349.263 193.651C349.281 193.103 349.466 192.572 349.793 192.131C350.12 191.69 350.573 191.359 351.093 191.183C351.613 191.006 352.175 190.992 352.703 191.143C353.231 191.293 353.7 191.601 354.049 192.026C354.397 192.45 354.608 192.971 354.653 193.518" stroke="#263238" stroke-linecap="round" stroke-linejoin="round"></path> <path d="M357.919 196.62C357.383 196.736 356.823 196.686 356.316 196.476C355.809 196.266 355.377 195.906 355.08 195.445C354.782 194.984 354.632 194.442 354.65 193.894C354.668 193.345 354.852 192.815 355.179 192.373C355.506 191.932 355.96 191.601 356.48 191.425C357 191.248 357.561 191.234 358.089 191.385C358.617 191.536 359.087 191.844 359.435 192.268C359.784 192.692 359.994 193.213 360.039 193.76" stroke="#263238" stroke-linecap="round" stroke-linejoin="round"></path> <path d="M363.31 196.858C362.773 196.975 362.214 196.924 361.707 196.714C361.199 196.504 360.768 196.145 360.47 195.683C360.173 195.222 360.023 194.681 360.04 194.132C360.058 193.583 360.243 193.053 360.57 192.612C360.897 192.171 361.351 191.84 361.871 191.663C362.391 191.486 362.952 191.473 363.48 191.623C364.008 191.774 364.477 192.082 364.826 192.506C365.174 192.931 365.385 193.451 365.43 193.998" stroke="#263238" stroke-linecap="round" stroke-linejoin="round"></path> <path d="M368.701 197.101C368.164 197.217 367.605 197.166 367.097 196.957C366.59 196.747 366.159 196.387 365.861 195.926C365.563 195.464 365.413 194.923 365.431 194.374C365.449 193.825 365.634 193.295 365.961 192.854C366.288 192.413 366.741 192.082 367.261 191.905C367.781 191.729 368.343 191.715 368.871 191.865C369.399 192.016 369.868 192.324 370.217 192.748C370.565 193.173 370.776 193.693 370.821 194.241" stroke="#263238" stroke-linecap="round" stroke-linejoin="round"></path> <path d="M374.091 197.339C373.555 197.455 372.995 197.405 372.488 197.195C371.981 196.985 371.549 196.625 371.252 196.164C370.954 195.702 370.804 195.161 370.822 194.612C370.84 194.064 371.024 193.533 371.351 193.092C371.678 192.651 372.132 192.32 372.652 192.143C373.172 191.967 373.733 191.953 374.261 192.104C374.789 192.254 375.259 192.562 375.607 192.987C375.956 193.411 376.166 193.932 376.211 194.479" stroke="#263238" stroke-linecap="round" stroke-linejoin="round"></path> <path d="M133.311 135.32C133.311 135.32 111.841 107.44 123.901 73.1698C135.961 38.8998 175.081 46.8598 178.821 65.8098C182.561 84.7598 159.821 77.6899 159.171 60.7199C158.521 43.7499 181.051 19.7199 216.031 22.1199C251.011 24.5199 245.091 52.3599 259.031 51.2399C272.971 50.1199 267.731 30.5599 295.441 25.3799C323.151 20.1999 331.271 29.1799 333.661 68.2099C336.051 107.24 344.751 105.07 371.341 104.42C397.931 103.77 420.061 139.75 402.061 155.25C384.061 170.75 367.671 160.25 338.251 181.09C308.831 201.93 291.801 201.83 309.491 228.54C327.181 255.25 362.491 234.65 373.651 262.63C384.811 290.61 377.331 317.84 354.761 304.11C332.191 290.38 299.691 226.36 282.071 218.89C264.451 211.42 204.141 216.25 172.201 242.49C140.261 268.73 94.7408 264.23 82.7408 225.22C70.7408 186.21 63.8608 164.57 94.4308 148.8C125.001 133.03 150.671 148.74 166.001 164.53C181.331 180.32 214.591 161.38 213.801 142.2C213.011 123.02 177.471 85.8999 187.111 58.4799C196.751 31.0599 235.301 31.6799 246.541 61.1299C257.781 90.5799 247.861 105.43 254.721 126.34C261.581 147.25 286.721 165.97 308.401 159.05C330.081 152.13 329.501 135.9 348.821 109.19C368.141 82.4799 416.771 88.9999 422.161 128.48C427.551 167.96 390.651 169.48 390.541 186.48C390.431 203.48 415.161 188.95 408.871 221.28C402.581 253.61 377.981 242.28 358.211 254.2C338.441 266.12 349.741 296.33 324.031 289.51C324.031 289.51 313.031 291.97 305.721 253.88C298.411 215.79 268.441 194.72 240.891 202.01" stroke="#30B46F" stroke-miterlimit="10"></path> <path d="M190.372 360.09L190.112 361.45L172.422 453.23C172.332 453.812 172.371 454.406 172.537 454.971C172.704 455.535 172.992 456.057 173.383 456.497C173.774 456.937 174.257 457.286 174.797 457.518C175.338 457.75 175.924 457.86 176.512 457.84C177.416 457.849 178.298 457.56 179.021 457.018C179.744 456.476 180.268 455.71 180.512 454.84L204.082 362.68L190.372 360.09Z" fill="white" stroke="#263238" stroke-linecap="round" stroke-linejoin="round"></path> <path d="M269.929 360.09L270.199 361.45L287.879 453.23C287.969 453.811 287.93 454.404 287.764 454.968C287.599 455.532 287.311 456.053 286.922 456.493C286.532 456.933 286.05 457.282 285.511 457.515C284.971 457.748 284.387 457.859 283.799 457.84C282.895 457.849 282.014 457.56 281.291 457.018C280.567 456.476 280.043 455.71 279.799 454.84L256.199 362.68L269.929 360.09Z" fill="white" stroke="#263238" stroke-linecap="round" stroke-linejoin="round"></path> <path d="M247.621 242.782C247.621 242.782 229.621 237.942 213.841 243.862C198.061 249.782 192.191 260.002 176.361 283.092C160.531 306.182 161.581 321.262 165.801 335.232C170.021 349.202 182.171 365.332 219.111 371.782C244.911 376.292 290.111 369.192 300.011 339.942C303.801 328.682 302.491 316.292 299.671 304.942C294.781 285.262 283.371 268.712 270.311 253.512C262.921 244.932 247.621 242.782 247.621 242.782Z" fill="#5E5E5E" stroke="#263238" stroke-linecap="round" stroke-linejoin="round"></path> <path d="M246.272 248.588C246.272 248.588 229.952 244.188 215.552 249.588C201.152 254.988 195.862 264.248 181.462 285.268C167.062 306.288 168.002 319.998 171.862 332.678C175.722 345.358 186.743 360.048 220.353 365.918C243.812 370.018 284.953 363.558 293.923 336.918C297.383 326.678 296.182 315.398 293.622 305.098C289.172 287.208 278.792 272.148 266.912 258.328C260.192 250.538 246.272 248.588 246.272 248.588Z" fill="#3B3B3B" stroke="#263238" stroke-linecap="round" stroke-linejoin="round"></path> <path d="M199.873 291.371C199.873 291.371 182.283 302.541 176.463 318.901C170.643 335.261 179.883 351.581 196.823 358.451C213.763 365.321 250.593 364.711 270.413 355.601C290.233 346.491 291.293 332.471 289.413 317.481C287.533 302.491 274.653 290.621 263.303 282.191C251.953 273.761 217.183 278.861 210.093 283.441C206.399 285.691 202.971 288.352 199.873 291.371V291.371Z" fill="#30B46F" stroke="#263238" stroke-linecap="round" stroke-linejoin="round"></path> <path opacity="0.3" d="M202.611 295.678C202.611 295.678 197.561 296.518 191.241 302.418C184.921 308.318 179.871 317.158 183.661 314.628C187.451 312.098 192.921 305.368 197.561 306.628C202.201 307.888 200.501 317.578 211.871 320.948C223.241 324.318 227.871 323.478 241.351 320.108C254.831 316.738 258.621 316.318 266.201 320.948C273.781 325.578 280.521 325.578 280.521 317.578C280.521 309.578 273.361 305.368 262.411 300.308C251.461 295.248 220.721 290.208 202.611 295.678Z" fill="black"></path> <path d="M225.2 223.381C214.636 225.571 204.346 228.925 194.52 233.381C179.61 240.381 181.72 251.901 185.07 265.051C188.42 278.201 202.07 305.421 205.32 310.281C208.57 315.141 224.64 306.921 224.64 306.921C224.64 306.921 239.21 309.671 249.37 308.571C259.53 307.471 260.94 307.411 260.94 307.411C260.94 307.411 278.15 304.611 279.06 303.621C279.97 302.631 286.33 290.621 289.78 280.441C297.23 258.571 297.16 250.511 296.78 241.281C296.5 234.071 277.65 224.941 270.98 224.281C264.31 223.621 249.98 221.771 245.06 222.441C240.14 223.111 233.72 223.051 225.2 223.381Z" fill="#263238" stroke="#263238" stroke-linecap="round" stroke-linejoin="round"></path> <path d="M262.999 212.672C262.999 212.672 265.849 212.792 265.999 217.772C266.061 219.542 265.694 221.302 264.93 222.9C264.165 224.498 263.026 225.888 261.609 226.952C259.999 228.202 257.149 228.072 257.079 226.172C257.009 224.272 260.079 211.172 260.079 211.172L262.999 212.672Z" fill="white" stroke="#263238" stroke-linecap="round" stroke-linejoin="round"></path> <path d="M218.481 215.34C218.481 215.34 215.401 215.22 215.561 219.48C215.721 223.74 216.311 226.57 217.331 228.48C218.351 230.39 221.661 229.97 221.661 229.97L219.431 215.35L218.481 215.34Z" fill="white" stroke="#263238" stroke-linecap="round" stroke-linejoin="round"></path> <path d="M217.32 215.861C217.32 215.861 219.61 225.971 221.49 231.591C223.37 237.211 225.41 241.161 230.8 245.451C236.19 249.741 237.48 252.781 243.07 249.961C248.66 247.141 254.65 242.871 257.61 233.511C260.57 224.151 263.06 215.031 263.48 213.591C263.9 212.151 261.24 198.741 257.43 192.251C253.62 185.761 247.92 185.501 238.67 191.551C229.42 197.601 218.6 206.091 217.32 215.861Z" fill="white"></path> <path opacity="0.3" d="M260.87 222.721C262.25 218.011 263.23 214.451 263.48 213.591C263.89 212.161 261.24 198.741 257.43 192.251C253.62 185.761 247.92 185.501 238.67 191.551C229.42 197.601 218.6 206.091 217.32 215.861C217.32 215.861 217.91 218.451 218.73 221.741C224.14 222.331 241.21 223.141 245.42 210.581C247.23 205.201 248.52 201.291 249.42 198.471C248.24 205.001 248.88 215.241 260.87 222.721Z" fill="black"></path> <path d="M217.32 215.861C217.32 215.861 219.61 225.971 221.49 231.591C223.37 237.211 225.41 241.161 230.8 245.451C236.19 249.741 237.48 252.781 243.07 249.961C248.66 247.141 254.65 242.871 257.61 233.511C260.57 224.151 263.06 215.031 263.48 213.591C263.9 212.151 261.24 198.741 257.43 192.251C253.62 185.761 247.92 185.501 238.67 191.551C229.42 197.601 218.6 206.091 217.32 215.861Z" stroke="#263238" stroke-linecap="round" stroke-linejoin="round"></path> <path d="M242.001 222.25C242.001 222.25 241.631 231.04 241.711 233.17C241.791 235.3 238.041 236.17 236.961 232.88" stroke="#263238" stroke-linecap="round" stroke-linejoin="round"></path> <path d="M233.273 223.54C233.333 225.24 232.703 226.65 231.853 226.68C231.003 226.71 230.263 225.36 230.193 223.68C230.123 222 230.763 220.57 231.613 220.54C232.463 220.51 233.203 221.84 233.273 223.54Z" fill="#263238"></path> <path d="M248.422 223.001C248.492 224.701 247.852 226.111 247.002 226.141C246.152 226.171 245.412 224.821 245.352 223.141C245.292 221.461 245.912 220.041 246.762 220.001C247.612 219.961 248.362 221.251 248.422 223.001Z" fill="#263238"></path> <path d="M227.66 219.488L235.55 215.148" stroke="#263238" stroke-linecap="round" stroke-linejoin="round"></path> <path d="M245.051 215.488L253.281 219.678" stroke="#263238" stroke-linecap="round" stroke-linejoin="round"></path> <path d="M254.359 174.112C254.359 174.112 256.779 169.272 265.359 165.112C273.939 160.952 289.139 166.802 294.709 175.832C300.279 184.862 302.199 197.832 302.199 197.832C299.587 200.6 296.449 202.819 292.969 204.362C288.72 206.14 284.336 207.578 279.859 208.662C279.859 208.662 282.699 202.382 279.809 188.982C276.919 175.582 269.119 170.182 264.909 171.772C262.009 172.916 259.207 174.294 256.529 175.892C256.529 175.892 253.999 177.442 254.359 174.112Z" fill="#263238" stroke="#263238" stroke-linecap="round" stroke-linejoin="round"></path> <path d="M257.43 173.75C259.782 171.231 262.731 169.345 266.004 168.265C269.278 167.185 272.77 166.946 276.16 167.57C287.86 169.72 296.95 190 295.93 200.48" stroke="#6E6E6E" stroke-linecap="round" stroke-linejoin="round"></path> <path d="M258.832 173.219C258.832 173.219 266.652 166.989 276.072 171.369C285.492 175.749 286.592 185.899 286.592 185.899" stroke="#6E6E6E" stroke-linecap="round" stroke-linejoin="round"></path> <path d="M250.371 175.211C250.371 175.211 243.901 167.401 229.371 170.811C214.841 174.221 208.521 183.711 206.111 194.951C203.701 206.191 201.971 210.531 202.981 212.151C203.991 213.771 209.841 217.811 219.831 218.371C229.821 218.931 236.751 214.371 242.441 208.251C245.845 204.549 248.555 200.264 250.441 195.601C250.441 195.601 250.331 205.091 254.101 210.601C257.871 216.111 265.371 219.881 266.321 219.851C267.271 219.821 270.021 211.401 271.181 198.311C272.341 185.221 265.081 175.551 258.851 174.131C252.621 172.711 250.371 175.211 250.371 175.211Z" fill="#263238" stroke="#263238" stroke-linecap="round" stroke-linejoin="round"></path> <path d="M248.401 179.55C248.401 179.55 242.111 170.07 228.971 173.9C215.831 177.73 211.611 190.9 211.641 191.65" stroke="#6E6E6E" stroke-linecap="round" stroke-linejoin="round"></path> <path d="M249 188.539C249 188.539 243.18 203.999 229.41 209.699C215.64 215.399 209.99 210.449 206.98 206.059" stroke="#6E6E6E" stroke-linecap="round" stroke-linejoin="round"></path> <path d="M247.232 186C245.65 189.522 243.341 192.668 240.456 195.233C237.57 197.798 234.175 199.722 230.492 200.88C217.842 204.93 217.082 197.37 217.082 197.37" stroke="#6E6E6E" stroke-linecap="round" stroke-linejoin="round"></path> <path d="M252.23 186.52C252.23 186.52 259.39 187.67 260.38 194.98C261.37 202.29 262.43 211.03 267.16 210.84" stroke="#6E6E6E" stroke-linecap="round" stroke-linejoin="round"></path> <path d="M253.082 183.88C253.082 183.88 263.872 180.88 268.402 187.55" stroke="#6E6E6E" stroke-linecap="round" stroke-linejoin="round"></path> <path d="M254.359 174.11C254.359 174.11 254.789 160.81 268.429 157.91" stroke="#6E6E6E" stroke-linecap="round" stroke-linejoin="round"></path> <path d="M250.372 175.211C250.372 175.211 243.602 159.821 221.172 168.281" stroke="#6E6E6E" stroke-linecap="round" stroke-linejoin="round"></path> <path d="M212.382 241.432C212.382 241.432 211.202 235.542 211.172 234.592C211.142 233.642 214.052 229.502 215.382 227.082C216.712 224.662 217.582 222.492 218.382 225.082C219.182 227.672 219.472 228.832 218.832 230.752C218.192 232.672 216.652 235.582 216.702 237.002C216.752 238.422 213.472 245.182 212.382 241.432Z" fill="white" stroke="#263238" stroke-linecap="round" stroke-linejoin="round"></path> <path d="M202.391 301.808C203.461 305.088 207.681 316.068 210.391 318.578C213.101 321.088 218.011 325.398 222.711 318.338C227.411 311.278 231.961 293.788 232.861 286.398C233.761 279.008 234.811 263.318 235.401 260.218C235.991 257.118 238.401 239.468 237.641 238.308C236.881 237.148 217.581 228.648 217.581 228.648C217.581 228.648 211.581 240.268 212.211 243.088C212.841 245.908 222.841 260.468 222.921 262.358C223.001 264.248 219.271 272.458 214.991 278.078C210.711 283.698 206.341 287.428 204.641 292.478" fill="white"></path> <path opacity="0.3" d="M210.102 283.998C218.442 288.348 229.102 285.758 233.372 281.588C234.132 273.648 234.922 262.758 235.372 260.228C235.662 258.708 236.372 253.748 236.952 248.928C235.382 249.378 231.412 250.118 225.542 248.268C220.718 246.599 216.292 243.951 212.542 240.488C212.248 241.325 212.132 242.214 212.202 243.098C212.782 245.928 222.832 260.478 222.912 262.368C222.992 264.258 219.262 272.468 214.982 278.088C213.312 280.278 211.632 282.178 210.102 283.998Z" fill="black"></path> <path d="M202.391 301.808C203.461 305.088 207.681 316.068 210.391 318.578C213.101 321.088 218.011 325.398 222.711 318.338C227.411 311.278 231.961 293.788 232.861 286.398C233.761 279.008 234.811 263.318 235.401 260.218C235.991 257.118 238.401 239.468 237.641 238.308C236.881 237.148 217.581 228.648 217.581 228.648C217.581 228.648 211.581 240.268 212.211 243.088C212.841 245.908 222.841 260.468 222.921 262.358C223.001 264.248 219.271 272.458 214.991 278.078C210.711 283.698 206.341 287.428 204.641 292.478" stroke="#263238" stroke-linecap="round" stroke-linejoin="round"></path> <path d="M211.101 282.809C208.281 286.109 205.821 288.979 204.641 292.479L202.391 301.809C203.461 305.089 207.681 316.069 210.391 318.579C213.101 321.089 218.011 325.399 222.711 318.339C226.301 312.959 229.791 301.529 231.641 293.119C215.531 294.669 211.901 286.929 211.101 282.809Z" fill="#263238" stroke="#263238" stroke-linecap="round" stroke-linejoin="round"></path> <path d="M222.173 230.852L218.883 244.022" stroke="#263238" stroke-linecap="round" stroke-linejoin="round"></path> <path d="M228.71 234.391L226.57 246.571" stroke="#263238" stroke-linecap="round" stroke-linejoin="round"></path> <path d="M234.262 236.781L232.352 248.711" stroke="#263238" stroke-linecap="round" stroke-linejoin="round"></path> <path d="M265.793 240.071C265.793 240.071 266.513 234.071 266.473 233.161C266.433 232.251 263.203 228.311 261.693 226.001C260.183 223.691 259.153 221.591 258.543 224.221C257.933 226.851 257.743 228.051 258.543 229.911C259.343 231.771 261.093 234.561 261.153 235.981C261.213 237.401 265.003 243.891 265.793 240.071Z" fill="white" stroke="#263238" stroke-linecap="round" stroke-linejoin="round"></path> <path d="M280.43 299.498C279.61 302.848 276.25 314.128 273.75 316.828C271.25 319.528 266.68 324.218 261.44 317.548C256.2 310.878 250.33 293.788 248.86 286.488C247.39 279.188 245.13 263.628 244.3 260.578C243.47 257.528 239.71 240.128 240.37 238.918C241.03 237.708 259.62 227.738 259.62 227.738C259.62 227.738 266.46 238.848 266.09 241.738C265.72 244.628 256.84 259.888 256.91 261.738C256.98 263.588 261.32 271.528 266.03 276.808C270.74 282.088 275.38 285.458 277.47 290.358" fill="white"></path> <path opacity="0.3" d="M256.912 261.75C256.842 259.86 265.732 244.57 266.092 241.75C266.123 241.36 266.086 240.967 265.982 240.59C265.659 241.195 265.213 241.724 264.672 242.145C264.131 242.565 263.507 242.867 262.842 243.03C258.842 244.25 248.002 252.92 243.072 250.03C242.695 249.8 242.282 249.635 241.852 249.54C242.852 254.29 243.852 259.17 244.302 260.65C245.132 263.7 247.392 279.27 248.862 286.56C249.182 288.19 249.732 290.3 250.442 292.66C255.259 286.485 259.381 279.798 262.732 272.72C259.472 268.07 257.002 263.19 256.912 261.75Z" fill="black"></path> <path d="M280.43 299.498C279.61 302.848 276.25 314.128 273.75 316.828C271.25 319.528 266.68 324.218 261.44 317.548C256.2 310.878 250.33 293.788 248.86 286.488C247.39 279.188 245.13 263.628 244.3 260.578C243.47 257.528 239.71 240.128 240.37 238.918C241.03 237.708 259.62 227.738 259.62 227.738C259.62 227.738 266.46 238.848 266.09 241.738C265.72 244.628 256.84 259.888 256.91 261.738C256.98 263.588 261.32 271.528 266.03 276.808C270.74 282.088 275.38 285.458 277.47 290.358" stroke="#263238" stroke-linecap="round" stroke-linejoin="round"></path> <path d="M277.472 290.37C275.862 286.61 272.762 283.74 269.282 280.23C262.472 294.3 252.852 291.94 249.922 290.81C252.252 299.14 257.072 311.97 261.442 317.55C266.682 324.22 271.252 319.55 273.752 316.83C276.252 314.11 279.612 302.83 280.432 299.5L277.472 290.37Z" fill="#263238" stroke="#263238" stroke-linecap="round" stroke-linejoin="round"></path> <path d="M255.223 230.281L259.513 243.161" stroke="#263238" stroke-linecap="round" stroke-linejoin="round"></path> <path d="M248.973 234.32L252.043 246.29" stroke="#263238" stroke-linecap="round" stroke-linejoin="round"></path> <path d="M243.621 237.129L246.451 248.879" stroke="#263238" stroke-linecap="round" stroke-linejoin="round"></path> <path d="M216.211 324.349C216.211 324.349 233.411 324.039 243.111 324.349C252.811 324.659 251.751 343.729 243.361 349.439C234.971 355.149 228.481 353.959 219.841 353.219C211.201 352.479 210.431 332.469 216.211 324.349Z" fill="#263238" stroke="#263238" stroke-linecap="round" stroke-linejoin="round"></path> <path d="M230.083 342.809C230.223 336.069 227.933 329.889 220.923 325.599C213.213 320.879 203.003 325.939 195.313 340.219C187.623 354.499 183.013 383.729 186.203 401.219C189.393 418.709 193.693 446.469 196.793 452.449C199.893 458.429 208.723 464.179 212.793 466.179C216.863 468.179 224.463 471.099 231.563 469.389C238.663 467.679 240.433 457.569 236.983 451.969C233.533 446.369 220.213 444.729 216.363 438.069C212.513 431.409 209.753 424.699 210.963 418.909C212.173 413.119 213.493 391.559 220.673 373.349C223.893 364.999 229.873 353.229 230.083 342.809Z" fill="white"></path> <path opacity="0.3" d="M236.93 451.931C233.49 446.331 220.16 444.691 216.31 438.031C212.46 431.371 209.7 424.661 210.91 418.871C212.12 413.081 213.44 391.521 220.62 373.311C223.89 365.011 229.87 353.231 230.08 342.811C230.22 336.071 227.93 329.891 220.92 325.601C219.476 324.706 217.85 324.145 216.16 323.961L216.21 324.351C219.307 326.298 221.862 328.995 223.64 332.192C225.417 335.389 226.36 338.983 226.38 342.641C226.38 355.201 217.88 368.161 202.48 381.131C197.15 385.611 190.85 390.351 185.48 395.911C185.64 397.761 185.87 399.521 186.18 401.181C189.36 418.631 193.67 446.431 196.77 452.411C199.87 458.391 208.7 464.141 212.77 466.141C216.84 468.141 224.44 471.061 231.54 469.351C238.64 467.641 240.38 457.531 236.93 451.931Z" fill="black"></path> <path d="M230.083 342.809C230.223 336.069 227.933 329.889 220.923 325.599C213.213 320.879 203.003 325.939 195.313 340.219C187.623 354.499 183.013 383.729 186.203 401.219C189.393 418.709 193.693 446.469 196.793 452.449C199.893 458.429 208.723 464.179 212.793 466.179C216.863 468.179 224.463 471.099 231.563 469.389C238.663 467.679 240.433 457.569 236.983 451.969C233.533 446.369 220.213 444.729 216.363 438.069C212.513 431.409 209.753 424.699 210.963 418.909C212.173 413.119 213.493 391.559 220.673 373.349C223.893 364.999 229.873 353.229 230.083 342.809Z" stroke="#263238" stroke-linecap="round" stroke-linejoin="round"></path> <path d="M236.93 451.928C233.66 446.608 221.48 444.848 216.93 438.978C214.79 437.978 208.93 435.768 205.93 440.218C202.2 445.738 203.59 453.938 203.59 453.938C203.59 453.938 198.71 450.178 195 447.458C195.414 449.176 195.99 450.85 196.72 452.458C199.82 458.458 208.65 464.188 212.72 466.188C216.79 468.188 224.39 471.108 231.49 469.398C238.59 467.688 240.38 457.528 236.93 451.928Z" fill="#525252" stroke="#263238" stroke-linecap="round" stroke-linejoin="round"></path> <path d="M231.511 469.349C237.361 467.949 239.581 460.859 238.271 455.269C237.121 461.549 233.921 468.149 225.341 467.439C215.341 466.609 204.231 459.209 198.141 454.539C201.941 459.709 209.201 464.379 212.741 466.139C216.761 468.129 224.411 471.059 231.511 469.349Z" fill="white" stroke="#263238" stroke-linecap="round" stroke-linejoin="round"></path> <path d="M261.121 335.88C261.121 335.88 251.701 324.05 243.121 324.39C234.541 324.73 230.531 332.76 231.351 344.57C232.171 356.38 239.661 383.33 243.471 398.24C247.281 413.15 243.731 432.66 242.881 438.43C242.031 444.2 240.321 446.43 239.261 446.82C238.201 447.21 226.561 452.33 218.421 455.16C210.281 457.99 208.991 461.62 214.861 464.98C220.731 468.34 234.861 471.73 245.111 468.47C268.111 461.17 263.221 455.26 266.811 433.08C271.731 402.66 282.001 362.55 261.121 335.88Z" fill="white"></path> <path opacity="0.3" d="M262.4 337.621C263.479 340.154 264.306 342.786 264.87 345.481C268.92 364.481 257.57 375.861 243.8 376.671C241.6 376.801 239.66 376.841 237.92 376.831C239.92 384.721 241.97 392.411 243.46 398.241C247.27 413.161 243.72 432.661 242.87 438.431C242.02 444.201 240.31 446.431 239.25 446.821C238.19 447.211 226.55 452.331 218.41 455.161C210.27 457.991 208.98 461.621 214.85 464.981C220.72 468.341 234.85 471.731 245.1 468.471C268.1 461.171 263.21 455.261 266.8 433.081C271.63 403.311 281.51 364.271 262.4 337.621Z" fill="black"></path> <path d="M261.121 335.88C261.121 335.88 251.701 324.05 243.121 324.39C234.541 324.73 230.531 332.76 231.351 344.57C232.171 356.38 239.661 383.33 243.471 398.24C247.281 413.15 243.731 432.66 242.881 438.43C242.031 444.2 240.321 446.43 239.261 446.82C238.201 447.21 226.561 452.33 218.421 455.16C210.281 457.99 208.991 461.62 214.861 464.98C220.731 468.34 234.861 471.73 245.111 468.47C268.111 461.17 263.221 455.26 266.811 433.08C271.731 402.66 282.001 362.55 261.121 335.88Z" stroke="#263238" stroke-linecap="round" stroke-linejoin="round"></path> <path d="M264.781 458.001C265.451 455.851 265.351 453.121 265.211 449.771C261.726 451.733 258.038 453.309 254.211 454.471C253.873 450.796 252.354 447.329 249.881 444.591C246.881 441.291 242.541 444.011 240.441 445.701C240.138 446.172 239.713 446.553 239.211 446.801C238.151 447.201 226.511 452.311 218.371 455.141C210.231 457.971 208.941 461.601 214.811 464.961C220.681 468.321 234.811 471.711 245.071 468.451C255.331 465.191 262.871 464.191 264.781 458.001Z" fill="#525252" stroke="#263238" stroke-linecap="round" stroke-linejoin="round"></path> <path d="M264.78 458C264.87 457.725 264.943 457.444 265 457.16C254.78 463.63 242.4 468.16 227.46 466.62C215.59 465.39 212.4 461.72 211.58 459.45C210.58 461.25 211.68 463.14 214.85 464.96C220.72 468.32 234.85 471.71 245.11 468.45C255.37 465.19 262.87 464.19 264.78 458Z" fill="white" stroke="#263238" stroke-linecap="round" stroke-linejoin="round"></path> <path d="M178.677 94.25H183.749V99.3214H178.677V94.25ZM178.677 102.607H183.749V107.679H178.677V102.607ZM170.32 94.25H175.392V99.3214H170.32V94.25ZM170.32 102.607H175.392V107.679H170.32V102.607Z" stroke="black" stroke-width="0.5"></path> <path d="M183.214 113.499V121.857C183.214 122.961 182.319 123.857 181.214 123.857H147.786C146.681 123.857 145.786 122.961 145.786 121.857V99.5709C145.786 98.4663 146.681 97.5709 147.786 97.5709H164.5V96.7852H147.786C147.047 96.7852 146.338 97.0787 145.816 97.6011C145.293 98.1235 145 98.8321 145 99.5709V121.857C145 122.595 145.293 123.304 145.816 123.826C146.338 124.349 147.047 124.642 147.786 124.642H158.929V130.214H153.357V130.999H175.643V130.214H170.071V124.642H181.214C181.953 124.642 182.662 124.349 183.184 123.826C183.707 123.304 184 122.595 184 121.857V113.499H183.214ZM169.286 130.214H159.714V124.642H169.286V130.214Z" fill="black"></path> <path d="M385.614 142.8V142.55H385.364H381.727C379.863 142.55 378.341 141.04 378.341 139.2V135.6C378.341 133.76 379.863 132.25 381.727 132.25H388.75V135.35H381.727H381.477V135.6V139.2V139.45H381.727H385.364C387.228 139.45 388.75 140.96 388.75 142.8V146.4C388.75 148.24 387.228 149.75 385.364 149.75H378.341V146.65H385.364H385.614V146.4V142.8ZM367.182 135.35H366.932V135.6V146.4V146.65H367.182H370.818H371.068V146.4V135.6V135.35H370.818H367.182ZM352.636 142.55H352.386V142.8V149.75H349.25V135.6C349.25 133.76 350.772 132.25 352.636 132.25H356.273C358.137 132.25 359.659 133.76 359.659 135.6V149.75H356.523V142.8V142.55H356.273H352.636ZM352.636 135.35H352.386V135.6V139.2V139.45H352.636H356.273H356.523V139.2V135.6V135.35H356.273H352.636ZM363.795 149.75V132.25H370.818C372.682 132.25 374.205 133.76 374.205 135.6V146.4C374.205 148.24 372.682 149.75 370.818 149.75H363.795Z" stroke="black" stroke-width="0.5"></path> </svg> 