<?xml version="1.0" encoding="UTF-8"?> <svg xmlns="http://www.w3.org/2000/svg" width="164" height="313" viewBox="0 0 164 313" fill="none"> <path opacity="0.2" d="M162.762 145.38C162.001 144.424 161.147 143.546 160.212 142.76C159.912 142.5 159.652 142.26 159.442 142.06C159.232 141.86 135.802 113.42 133.882 110.16C133.312 109.16 132.612 107.71 131.882 106.16C129.782 101.78 128.192 98.6304 126.782 97.9904C126.682 97.9404 119.462 94.7404 113.952 92.6404C117.412 91.2604 121.082 89.1704 120.362 84.4404C119.842 81.0204 117.992 78.4404 116.362 76.0904C114.362 73.2604 112.642 70.8204 113.922 67.7404C114.799 65.8128 115.958 64.0265 117.362 62.4404C119.612 59.6604 121.932 56.7704 121.582 51.3704C121.102 44.0804 116.732 26.0004 106.862 19.7504C97.6816 13.9404 75.1116 13.5004 73.8616 13.4804C72.6116 13.4604 63.4016 12.4804 61.2416 15.6204L60.9516 16.0404C60.4852 16.6808 60.0578 17.3487 59.6716 18.0404C56.9316 17.5704 53.3416 17.6004 51.4316 20.2104C49.0816 23.4104 52.6416 28.8504 55.0716 31.9104C54.4216 32.9804 53.7816 34.0604 53.1816 35.1004C49.7116 41.1004 49.6516 41.2404 50.3616 42.4504L50.4616 42.6204C50.9365 43.6446 51.2728 44.7275 51.4616 45.8404C49.3516 48.3304 45.8916 52.2604 45.1116 52.7004C44.9485 52.787 44.8082 52.911 44.7022 53.0622C44.5961 53.2134 44.5274 53.3876 44.5016 53.5704C44.3616 54.5704 45.5016 55.8604 46.9716 57.3004L48.2416 58.5904C48.4216 59.5904 49.3416 65.1804 50.0616 69.3004C50.0225 69.2497 49.9751 69.2057 49.9216 69.1704C49.1516 68.7004 48.2216 69.5604 47.9216 69.8304C45.9216 71.6504 41.5116 78.8304 41.1516 80.8304C40.8997 83.5295 40.7896 86.2399 40.8216 88.9504C40.3216 89.5904 39.8716 90.2004 39.4816 90.7504C28.5316 93.4604 18.2016 96.4104 17.9816 97.9504C17.6216 100.49 17.0616 130.66 17.9816 144.59C18.3051 149.759 18.2249 154.945 17.7416 160.1C17.4316 163.93 17.2316 166.46 18.2216 168.24C19.3913 169.992 20.7942 171.577 22.3916 172.95C24.3416 176.41 28.3916 182.58 31.9316 185.25C31.8616 185.42 31.8016 185.59 31.7316 185.77C27.8816 195.66 20.3716 216.89 19.1816 235.08C17.5816 259.6 32.9116 311.88 33.0616 312.4C33.0899 312.501 33.15 312.589 33.233 312.652C33.316 312.716 33.4173 312.75 33.5216 312.75H67.2516C67.3789 312.75 67.501 312.7 67.591 312.61C67.681 312.52 67.7316 312.398 67.7316 312.27V247.76C67.7316 247.495 67.837 247.241 68.0245 247.053C68.212 246.866 68.4664 246.76 68.7316 246.76C68.9968 246.76 69.2512 246.866 69.4387 247.053C69.6263 247.241 69.7316 247.495 69.7316 247.76V312.33C69.7342 312.457 69.7856 312.578 69.875 312.667C69.9645 312.756 70.0851 312.808 70.2116 312.81H103.942C104.036 312.812 104.128 312.785 104.206 312.733C104.285 312.681 104.346 312.607 104.382 312.52C104.592 312.04 124.952 264.68 120.822 233.95C119.682 225.46 118.192 217.77 116.632 211.07C117.342 211.238 118.072 211.309 118.802 211.28C121.026 210.782 123.043 209.613 124.582 207.93C125.463 206.461 126.232 204.926 126.882 203.34L147.422 178.56C148.338 179.134 149.357 179.524 150.422 179.71C150.511 179.723 150.603 179.709 150.685 179.67C150.767 179.631 150.835 179.568 150.882 179.49C151.002 179.3 151.322 178.86 151.742 178.28C157.412 170.36 157.582 169.46 157.182 168.93C156.393 168.39 155.553 167.931 154.672 167.56C156.532 164.8 161.912 156.71 162.832 153.62C164.002 149.82 164.002 147 162.762 145.38ZM133.762 158.65L133.062 160.06C133.056 160.097 133.056 160.134 133.062 160.17L131.302 168.24C131.282 168.335 131.292 168.434 131.329 168.523C131.367 168.612 131.43 168.688 131.512 168.74L132.222 169.21L118.662 196.58C117.572 195.39 116.012 193.68 115.282 192.81L115.112 192.61C114.642 192.06 113.672 190.91 111.972 188.61C111.389 187.626 110.945 186.566 110.652 185.46C110.062 183.66 109.602 182.24 108.702 181.94C108.476 181.856 108.227 181.856 108.002 181.94C107.791 180.328 107.487 178.728 107.092 177.15C106.793 175.97 106.556 174.775 106.382 173.57C106.212 171.65 107.642 161.57 107.632 161.57L117.552 132L136.122 153.3C135.122 153.35 133.812 153.53 133.292 154.17C133.178 154.308 133.099 154.47 133.061 154.644C133.022 154.818 133.026 154.998 133.072 155.17C133.262 155.91 133.672 157.23 134.072 158.37C133.995 158.382 133.923 158.414 133.863 158.464C133.803 158.513 133.758 158.577 133.732 158.65H133.762ZM50.8416 73.6504C51.0489 74.5448 51.5119 75.3595 52.1742 75.9951C52.8365 76.6308 53.6695 77.06 54.5716 77.2304C55.5716 77.2904 59.1116 77.0404 60.3616 76.9504C60.4916 77.5704 60.7516 78.8704 61.1316 80.6204C59.6481 81.33 58.4746 82.5568 57.8316 84.0704C56.8316 83.1604 55.5516 82.0704 54.3616 81.2104C54.1516 78.7204 53.6916 77.2604 52.9216 76.6504C52.7411 76.5033 52.5281 76.4012 52.3004 76.3525C52.0726 76.3039 51.8365 76.31 51.6116 76.3704C50.6116 76.6004 50.0616 77.5504 49.7516 78.7604C49.5753 78.7286 49.3942 78.7363 49.2213 78.783C49.0483 78.8297 48.8879 78.9142 48.7516 79.0304C48.6412 79.1358 48.5735 79.2783 48.5616 79.4304C48.1016 79.9604 47.3016 80.9104 46.3516 82.0504L46.2116 79.4004C46.8716 78.4004 50.0116 73.4004 50.3316 72.1104C50.3316 72.0404 50.3916 71.8304 50.4416 71.5604C50.5816 72.5504 50.7316 73.3104 50.8116 73.6604L50.8416 73.6504Z" fill="black"></path> <path d="M107.591 230.719C103.261 198.459 94.2114 177.499 94.2114 177.499L18.0614 174.879C18.0614 174.879 4.34137 206.169 2.65137 231.879C0.961368 257.589 17.1014 312.269 17.1014 312.269H52.2414V244.999C52.2414 244.585 52.4057 244.188 52.6983 243.896C52.9908 243.603 53.3876 243.439 53.8014 243.439C54.2151 243.439 54.6119 243.603 54.9045 243.896C55.197 244.188 55.3614 244.585 55.3614 244.999V312.269H90.5114C90.5114 312.269 111.931 262.999 107.591 230.719Z" fill="#263238" stroke="#263238" stroke-linecap="round" stroke-linejoin="round"></path> <path d="M94.2092 177.499L18.0592 174.879C18.0592 174.879 17.1192 177.029 15.6992 180.649C20.0592 182.359 31.2292 185.909 52.4792 187.869C73.7292 189.829 88.6292 183.109 95.0092 179.469C94.5092 178.179 94.2092 177.499 94.2092 177.499Z" fill="#999999" stroke="#263238" stroke-linecap="round" stroke-linejoin="round"></path> <path d="M54.3809 189.859C54.3809 189.859 69.5909 194.549 71.8809 193.789C74.1709 193.029 74.0409 189.219 71.8809 187.689C69.7209 186.159 54.9809 182.409 54.9809 182.409C54.9809 182.409 51.4209 181.719 50.0309 183.409C49.4528 184.246 49.1757 185.255 49.2447 186.27C49.3138 187.286 49.7248 188.247 50.4109 188.999C51.5509 189.849 54.3809 189.859 54.3809 189.859Z" fill="#999999" stroke="#263238" stroke-linecap="round" stroke-linejoin="round"></path> <path d="M54.3825 189.859C53.3879 189.859 52.4341 189.464 51.7308 188.76C51.0275 188.057 50.6325 187.103 50.6325 186.109C50.6325 185.114 51.0275 184.16 51.7308 183.457C52.4341 182.754 53.3879 182.359 54.3825 182.359C54.5834 182.36 54.784 182.377 54.9825 182.409C54.2996 182.043 53.5372 181.85 52.7625 181.849C52.161 181.82 51.56 181.914 50.9958 182.125C50.4317 182.335 49.9162 182.658 49.4804 183.073C49.0447 183.489 48.6978 183.989 48.4608 184.542C48.2238 185.096 48.1016 185.692 48.1016 186.294C48.1016 186.896 48.2238 187.492 48.4608 188.045C48.6978 188.599 49.0447 189.098 49.4804 189.514C49.9162 189.93 50.4317 190.252 50.9958 190.463C51.56 190.673 52.161 190.767 52.7625 190.739C53.9625 190.739 53.6425 190.999 54.4625 190.289C54.0025 190.469 54.9125 189.859 54.3825 189.859Z" fill="white" stroke="#263238" stroke-linecap="round" stroke-linejoin="round"></path> <path d="M44.5105 77.0899C44.5105 77.0899 1.79052 86.3899 1.41052 89.0899C1.03052 91.7899 0.460517 123.18 1.41052 137.57C2.36052 151.96 -0.299481 158.57 1.60052 162.01C3.50052 165.45 11.8305 171.85 12.9605 172.8C14.0905 173.75 19.2105 178.29 19.2105 178.29C19.2105 178.29 28.1105 181.51 51.7905 183.79C75.4705 186.07 94.0205 179.43 94.2105 177.54C94.4005 175.65 92.7005 169.96 92.5105 167.88C92.3205 165.8 93.8405 155.19 93.8405 155.19L104.441 123.56L125.091 147.23C125.091 147.23 120.92 147.04 121.3 148.56C121.68 150.08 123.001 154 123.001 154L142.321 162.14C142.321 162.14 150.321 150.59 151.411 146.8C152.501 143.01 152.551 140.17 151.411 138.66C150.375 137.426 149.234 136.285 148.001 135.25C147.251 134.49 123.19 105.14 121.3 101.92C119.41 98.6999 116.181 90.3599 114.101 89.4199C112.021 88.4799 97.6205 82.23 95.0005 82C92.3805 81.77 74.9205 73.8499 44.5105 77.0899Z" fill="#30B46F" stroke="#263238" stroke-linecap="round" stroke-linejoin="round"></path> <path d="M21.4019 109.92L20.9219 106.66" stroke="#263238" stroke-linecap="round" stroke-linejoin="round"></path> <path d="M24.3308 129.768L21.8008 112.668" stroke="#263238" stroke-linecap="round" stroke-linejoin="round"></path> <path d="M104.441 123.52L109.561 108.18" stroke="#263238" stroke-linecap="round" stroke-linejoin="round"></path> <path d="M111.391 110.719L112.781 107.609" stroke="#263238" stroke-linecap="round" stroke-linejoin="round"></path> <path d="M106.711 121.239L110.361 113.039" stroke="#263238" stroke-linecap="round" stroke-linejoin="round"></path> <path d="M53.3516 167.309C52.3516 173.309 50.6016 177.829 51.0316 178.249C51.7177 179.094 52.349 179.983 52.9216 180.909" stroke="#263238" stroke-linecap="round" stroke-linejoin="round"></path> <path d="M54.0622 120.301C54.0622 120.301 54.4422 151.741 54.0622 160.831C54.0122 162.131 53.9022 163.401 53.7422 164.621" stroke="#263238" stroke-linecap="round" stroke-linejoin="round"></path> <path d="M74.7202 135.768C73.1848 135.79 71.6527 135.619 70.1602 135.258" stroke="#263238" stroke-linecap="round" stroke-linejoin="round"></path> <path d="M69.2109 127.867C69.2109 127.867 80.7709 128.997 84.0009 128.997C87.2309 128.997 99.0009 128.047 99.0009 128.047L98.2409 134.677C98.2409 134.677 84.601 135.817 78.171 135.817" stroke="#263238" stroke-linecap="round" stroke-linejoin="round"></path> <path d="M91.3711 151.169C95.1611 149.839 96.4911 138.859 96.4911 138.859" stroke="#263238" stroke-linecap="round" stroke-linejoin="round"></path> <path d="M69.4013 138.098C69.4013 138.098 67.8913 150.218 68.6513 151.168C69.2113 151.878 79.5813 152.268 86.3313 151.858" stroke="#263238" stroke-linecap="round" stroke-linejoin="round"></path> <path d="M39.8624 124.461H47.2424L47.4323 131.661H38.1523" stroke="#263238" stroke-linecap="round" stroke-linejoin="round"></path> <path d="M46.662 137.34C47.012 142.16 47.312 149.46 45.922 149.84C43.832 150.41 36.832 150.22 36.832 150.22" stroke="#263238" stroke-linecap="round" stroke-linejoin="round"></path> <path d="M46.3008 133.18C46.3008 133.18 46.4308 134.42 46.5708 136.23" stroke="#263238" stroke-linecap="round" stroke-linejoin="round"></path> <path d="M144.23 147.199C145.181 147.257 146.127 147.381 147.06 147.569" stroke="#263238" stroke-linecap="round" stroke-linejoin="round"></path> <path d="M128.121 147.568C128.121 147.568 135.581 146.958 141.571 147.078" stroke="#263238" stroke-linecap="round" stroke-linejoin="round"></path> <path d="M139.479 140.938C139.479 140.938 131.339 141.887 126.219 145.867" stroke="#263238" stroke-linecap="round" stroke-linejoin="round"></path> <path d="M48.049 7.17011C48.049 7.17011 39.459 3.80012 36.209 8.24012C32.959 12.6801 41.999 22.1301 41.999 22.1301L54.299 7.13012L48.049 7.17011Z" fill="#263238" stroke="#263238" stroke-linecap="round" stroke-linejoin="round"></path> <path d="M46.7992 71.0485C45.8234 71.4056 44.9445 71.9858 44.2327 72.7428C43.5209 73.4998 42.9957 74.4126 42.6992 75.4085C41.9392 78.6285 43.6392 100.028 43.0792 104.578C42.5192 109.128 46.8592 104.578 46.8592 104.578L50.6492 98.3285C50.6492 98.3285 57.3492 106.608 58.5492 106.158C59.7492 105.708 63.9092 100.218 64.6692 100.978C65.4292 101.738 70.3492 110.258 70.9192 105.148C71.4892 100.038 76.4092 88.2885 74.3292 78.2485C72.2492 68.2085 70.0192 70.2485 70.0192 70.2485L46.7992 71.0485Z" fill="#30B46F" stroke="#263238" stroke-linecap="round" stroke-linejoin="round"></path> <path d="M47.002 9.27011C47.002 9.27011 41.802 17.2101 38.062 23.7101C34.322 30.2101 34.542 29.8401 35.232 31.0501C35.761 32.2459 36.1276 33.5071 36.322 34.8001C36.322 34.8001 30.632 41.5501 29.422 42.2301C28.212 42.9101 30.012 44.7901 31.422 46.2301L32.862 47.6901C32.862 47.6901 35.172 61.5701 35.612 63.5301C35.8062 64.3564 36.2336 65.1095 36.8434 65.6999C37.4533 66.2902 38.2199 66.6929 39.052 66.8601C40.202 66.9401 45.452 66.5401 45.452 66.5401C45.452 66.5401 48.862 83.8001 52.712 94.7801C56.562 105.76 57.342 107.12 58.502 106.15C59.662 105.18 65.632 94.7801 70.452 75.7001C75.272 56.6201 76.552 55.5801 76.552 55.5801C76.552 55.5801 80.142 34.7701 74.072 24.8801C68.002 14.9901 54.432 5.35011 47.002 9.27011Z" fill="white" stroke="#263238" stroke-linecap="round" stroke-linejoin="round"></path> <path d="M47.8219 33.9276C47.8219 35.3476 47.0619 36.5076 46.1219 36.5076C45.1819 36.5076 44.4219 35.3476 44.4219 33.9276C44.4219 32.5076 45.1819 31.3477 46.1219 31.3477C47.0619 31.3477 47.8219 32.4976 47.8219 33.9276Z" fill="#263238"></path> <path d="M53.2689 27.5405C47.9189 19.8705 43.1289 26.5405 43.1289 26.5405" stroke="#263238" stroke-linecap="round" stroke-linejoin="round"></path> <path d="M36.332 34.7978C36.7467 34.5006 37.0846 34.1088 37.3177 33.6549C37.5507 33.201 37.6722 32.6981 37.672 32.1878L37.812 30.2578" stroke="#263238" stroke-linecap="round" stroke-linejoin="round"></path> <path d="M45.5 66.5491L55.47 65.7891L48.72 79.8991L45.5 66.5491Z" fill="#263238" stroke="#263238" stroke-linecap="round" stroke-linejoin="round"></path> <path d="M38.3906 50.5697L41.5906 49.6797" stroke="#263238" stroke-linecap="round" stroke-linejoin="round"></path> <path d="M59.1513 1.42913C59.1513 1.42913 48.6013 0.299132 46.4513 3.42913C44.3013 6.55913 42.4513 8.74913 47.1513 12.7591C51.8513 16.7691 57.7913 20.8491 57.5513 24.3091C57.3113 27.7691 60.6913 31.8691 63.3213 32.8291C65.9513 33.7891 69.5113 29.9791 67.9713 35.4691C66.4313 40.9591 56.9213 41.4691 58.6913 49.3091C60.4613 57.1491 67.0813 59.1791 64.4213 61.3091C61.7613 63.4391 53.1513 69.5391 54.6913 78.5991C56.2313 87.6591 66.8313 94.0191 65.4813 98.0691C64.1313 102.119 52.5713 103.069 52.3813 109.069C52.1913 115.069 59.5113 121.789 63.9413 122.749C68.3713 123.709 73.9413 122.359 73.9413 122.359C73.9413 122.359 68.7413 115.429 70.6713 114.459C72.6013 113.489 81.8512 113.459 90.3312 110.219C98.8112 106.979 100.161 95.2191 98.4213 91.7191C96.6813 88.2191 93.4213 87.8591 95.1513 85.5491C96.8813 83.2391 108.301 82.7591 107.151 74.9391C106.001 67.1191 97.9013 63.4691 100.461 57.2791C103.021 51.0891 108.971 48.9891 108.411 40.4491C107.851 31.9091 102.901 13.9991 93.2813 7.87914C83.6613 1.75914 59.1513 1.42913 59.1513 1.42913Z" fill="#263238" stroke="#263238" stroke-linecap="round" stroke-linejoin="round"></path> <path d="M10.6924 148.898C10.6924 148.898 4.0624 162.338 4.8224 164.618C5.5824 166.898 14.6724 181.848 19.0224 180.718C23.3724 179.588 29.2524 172.718 30.5824 169.348C31.9124 165.978 33.4224 155.898 33.4224 155.898C33.4224 155.898 23.1924 158.248 20.5424 157.458C17.8924 156.668 10.6924 148.898 10.6924 148.898Z" fill="#30B46F" stroke="#263238" stroke-linecap="round" stroke-linejoin="round"></path> <path d="M41.3814 94.7795C41.3814 94.7795 40.5014 92.7796 39.2414 89.4896C37.9814 86.1996 38.4914 78.9196 38.4914 75.2696C38.4914 71.6196 38.2414 66.4596 36.1014 66.9596C33.9614 67.4596 34.1014 72.3696 34.4614 74.7696C34.8214 77.1696 33.6914 84.5495 33.1314 85.1995C32.7668 85.6297 32.4516 86.0993 32.1914 86.5996C32.1914 86.5996 37.1014 95.6595 38.9914 97.4195C40.8814 99.1795 41.3814 94.7795 41.3814 94.7795Z" fill="white" stroke="#263238" stroke-linecap="round" stroke-linejoin="round"></path> <path d="M25.1992 81.2279C25.1992 81.2279 25.1992 73.1179 25.5392 71.2279C25.8792 69.3379 30.3692 61.9079 32.4392 60.0179C34.5092 58.1279 34.5092 60.5279 34.1592 61.9079C33.8092 63.2879 29.8492 69.4979 29.8492 69.4979L30.1992 76.2279L25.1992 81.2279Z" fill="white" stroke="#263238" stroke-linecap="round" stroke-linejoin="round"></path> <path d="M33.3017 69.8505C33.3017 69.8505 22.4417 82.6105 22.3017 84.1605C22.1617 85.7105 32.3017 102.101 32.4817 102.621C32.6617 103.141 19.7217 132.621 19.7217 132.621L13.5117 146.941C13.5117 146.941 18.3417 154.701 20.5817 157.461C22.8217 160.221 24.7217 160.561 26.4417 159.701C28.1617 158.841 33.5117 154.351 33.5117 154.351L40.9317 103.131C40.9317 103.131 42.6517 99.5105 42.6517 97.4405C42.6517 95.3705 33.1717 85.2005 33.1717 85.2005L34.7217 82.9505C34.7217 82.9505 45.0717 86.4005 46.2817 85.5405C47.4917 84.6805 46.0717 83.2005 46.0717 83.2005L43.0017 81.4005C43.0017 81.4005 45.7617 81.8205 45.7617 80.7105C45.6395 80.2041 45.4035 79.7322 45.0717 79.3305C45.1611 78.9422 45.1607 78.5386 45.0706 78.1504C44.9805 77.7623 44.803 77.3998 44.5517 77.0905C43.6917 76.0905 36.8917 70.1505 35.0017 69.6305C33.1117 69.1105 33.3017 69.8505 33.3017 69.8505Z" fill="white" stroke="#263238" stroke-linecap="round" stroke-linejoin="round"></path> <path d="M45.0017 79.3299C45.0017 79.3299 36.5417 73.4599 35.1717 72.1899C33.8017 70.9199 29.3917 76.6698 28.5117 77.8398" fill="white"></path> <path d="M45.0017 79.3299C45.0017 79.3299 36.5417 73.4599 35.1717 72.1899C33.8017 70.9199 29.3917 76.6698 28.5117 77.8398" stroke="#263238" stroke-linecap="round" stroke-linejoin="round"></path> <path d="M43.0003 81.3998C40.5134 80.4689 38.0999 79.3524 35.7803 78.0598C33.9203 76.7898 32.1603 77.0598 31.6703 77.4698C31.1803 77.8798 26.5703 83.2598 26.5703 83.2598" fill="white"></path> <path d="M43.0003 81.3998C40.5134 80.4689 38.0999 79.3524 35.7803 78.0598C33.9203 76.7898 32.1603 77.0598 31.6703 77.4698C31.1803 77.8798 26.5703 83.2598 26.5703 83.2598" stroke="#263238" stroke-linecap="round" stroke-linejoin="round"></path> <path d="M14.8609 139.998C14.8609 139.998 22.6209 155.158 24.8609 155.158C27.1009 155.158 34.7109 148.528 34.7109 148.528C34.7109 148.528 37.7109 154.968 37.1709 156.288C36.6309 157.608 23.7309 165.758 21.2709 165.758C18.8109 165.758 6.87092 151.938 8.58092 148.908C10.2909 145.878 13.7209 139.238 14.8609 139.998Z" fill="#30B46F" stroke="#263238" stroke-linecap="round" stroke-linejoin="round"></path> <path d="M106.671 193.387C106.671 193.387 103.151 189.597 101.891 188.107C101.471 187.597 100.451 186.437 98.4313 183.747C96.9413 181.747 96.3514 175.917 94.6414 177.087C92.9314 178.257 93.0214 181.807 93.7214 183.087C94.2949 183.925 94.7587 184.832 95.1014 185.787C95.1814 186.357 97.2614 191.787 97.2614 191.787C97.2614 191.787 104.881 199.067 105.361 197.477C105.841 195.887 106.671 193.387 106.671 193.387Z" fill="white" stroke="#263238" stroke-linecap="round" stroke-linejoin="round"></path> <path d="M121.469 161.199L105.209 193.999C105.209 193.999 90.7488 184.369 90.0188 184.369C89.2888 184.369 81.2488 189.309 80.0188 190.219C78.7888 191.129 76.9088 196.989 76.5388 198.629C76.1688 200.269 76.3588 201.559 77.6388 200.629C78.9188 199.699 82.5788 193.499 82.5788 193.499L88.4288 190.949C88.4288 190.949 82.4288 197.529 82.2088 198.259C81.9888 198.989 78.0088 207.029 78.0088 208.129C78.0088 209.229 80.3788 207.759 80.3788 207.759C80.3788 207.759 79.4688 211.239 80.3788 211.239C81.2888 211.239 85.1388 208.499 86.3788 207.399L90.3788 203.929L94.5788 201.549C94.5788 201.549 90.1988 207.399 89.4588 208.309C88.7188 209.219 84.5288 213.799 86.3588 214.159C88.1888 214.519 93.8488 209.039 93.8488 209.039L98.9688 205.039C98.9688 205.039 104.269 206.689 105.919 206.499C108.096 205.995 110.071 204.849 111.589 203.209C112.492 201.685 113.284 200.097 113.959 198.459L137.909 169.579L121.469 161.199Z" fill="white" stroke="#263238" stroke-linecap="round" stroke-linejoin="round"></path> <path d="M80.332 207.81L88.742 198.489C88.742 198.489 92.2221 195.2 95.1421 195.75" fill="white"></path> <path d="M80.332 207.81L88.742 198.489C88.742 198.489 92.2221 195.2 95.1421 195.75" stroke="#263238" stroke-linecap="round" stroke-linejoin="round"></path> <path d="M88.3789 191.001C88.3789 191.001 90.5689 188.801 92.2189 188.801Z" fill="white"></path> <path d="M88.3789 191.001C88.3789 191.001 90.5689 188.801 92.2189 188.801" stroke="#263238" stroke-linecap="round" stroke-linejoin="round"></path> <path d="M121.291 153.878L119.461 162.288C119.461 162.288 138.291 174.718 139.021 173.628C139.751 172.538 146.151 163.938 145.601 163.208C145.051 162.478 122.001 152.418 122.001 152.418L121.291 153.878Z" fill="#30B46F" stroke="#263238" stroke-linecap="round" stroke-linejoin="round"></path> </svg> 