<?xml version="1.0" encoding="UTF-8"?> <svg xmlns="http://www.w3.org/2000/svg" width="74" height="75" viewBox="0 0 74 75" fill="none"> <path d="M55.5605 55.7389C65.6594 45.64 65.6594 29.2663 55.5605 19.1673C45.4615 9.06839 29.0879 9.06839 18.9889 19.1673C8.88995 29.2663 8.88995 45.6399 18.9889 55.7389C29.0879 65.8379 45.4615 65.8379 55.5605 55.7389Z" fill="white" stroke="#263238" stroke-linecap="round" stroke-linejoin="round"></path> <path d="M37.2797 57.5594C48.3806 57.5594 57.3797 48.5603 57.3797 37.4594C57.3797 26.3584 48.3806 17.3594 37.2797 17.3594C26.1788 17.3594 17.1797 26.3584 17.1797 37.4594C17.1797 48.5603 26.1788 57.5594 37.2797 57.5594Z" fill="#30B46F" stroke="#263238" stroke-width="2" stroke-linecap="round" stroke-linejoin="round"></path> <path d="M26.4506 37.1961L34.4493 46.683L49.231 28.336" stroke="#263238" stroke-width="5" stroke-linecap="round" stroke-linejoin="round"></path> </svg> 