<?xml version="1.0" encoding="UTF-8"?> <svg xmlns="http://www.w3.org/2000/svg" width="63" height="63" viewBox="0 0 63 63" fill="none"> <path d="M37.3234 56.7162C51.2321 53.4718 59.8772 39.5665 56.6329 25.6578C53.3886 11.7491 39.4833 3.10393 25.5746 6.34826C11.6659 9.5926 3.02068 23.4979 6.26501 37.4066C9.50935 51.3153 23.4147 59.9605 37.3234 56.7162Z" fill="white" stroke="#263238" stroke-linecap="round" stroke-linejoin="round"></path> <path d="M49.4488 40.4841C54.4003 30.5486 50.36 18.4804 40.4245 13.5289C30.4891 8.57746 18.4208 12.6178 13.4693 22.5532C8.51787 32.4887 12.5582 44.5569 22.4937 49.5084C32.4291 54.4599 44.4974 50.4196 49.4488 40.4841Z" fill="#6D75FE" stroke="#263238" stroke-width="2" stroke-linecap="round" stroke-linejoin="round"></path> <path d="M22.6914 22.7422L40.2114 40.2622" stroke="#263238" stroke-width="5" stroke-linecap="round" stroke-linejoin="round"></path> <path d="M40.2114 22.7422L22.6914 40.2622" stroke="#263238" stroke-width="5" stroke-linecap="round" stroke-linejoin="round"></path> </svg> 