<?xml version="1.0" encoding="UTF-8"?> <svg xmlns="http://www.w3.org/2000/svg" width="283" height="258" viewBox="0 0 283 258" fill="none"> <path d="M176.418 227.641V203.941H106.618V227.641C106.619 235.374 104.008 242.879 99.2085 248.941L96.1484 252.801H186.888L183.838 248.941C179.036 242.88 176.421 235.375 176.418 227.641V227.641Z" fill="white" stroke="#263238" stroke-width="1.09543" stroke-linecap="round" stroke-linejoin="round"></path> <g style="mix-blend-mode:multiply"> <path d="M102.328 244.231H180.708C177.899 239.153 176.423 233.445 176.418 227.641V203.941H106.618V227.641C106.618 233.446 105.142 239.155 102.328 244.231V244.231Z" fill="#30B46F"></path> </g> <path d="M176.417 207.5H106.617V217.51H176.417V207.5Z" fill="#263238" stroke="#263238" stroke-width="1.09543" stroke-linecap="round" stroke-linejoin="round"></path> <path d="M272.51 1H10.54C5.40928 1 1.25 5.15927 1.25 10.29V202.12C1.25 207.251 5.40928 211.41 10.54 211.41H272.51C277.641 211.41 281.8 207.251 281.8 202.12V10.29C281.8 5.15927 277.641 1 272.51 1Z" fill="#263238" stroke="#263238" stroke-width="1.09543" stroke-linecap="round" stroke-linejoin="round"></path> <path d="M1.24875 178.699H281.799V202.109C281.799 204.573 280.82 206.936 279.078 208.678C277.336 210.42 274.973 211.399 272.509 211.399H10.5088C8.04489 211.399 5.68194 210.42 3.93973 208.678C2.19751 206.936 1.21875 204.573 1.21875 202.109V178.699H1.24875Z" fill="white" stroke="#263238" stroke-width="1.09543" stroke-linecap="round" stroke-linejoin="round"></path> <path d="M267.679 14.0898H15.3594V162.74H267.679V14.0898Z" fill="#30B46F" stroke="#263238" stroke-width="1.09543" stroke-linecap="round" stroke-linejoin="round"></path> <path d="M146.7 195.061C146.702 194.036 146.4 193.034 145.832 192.181C145.264 191.327 144.455 190.662 143.509 190.268C142.563 189.875 141.521 189.771 140.515 189.969C139.51 190.168 138.586 190.661 137.861 191.385C137.135 192.109 136.641 193.032 136.44 194.037C136.239 195.042 136.341 196.084 136.733 197.031C137.125 197.978 137.789 198.788 138.641 199.357C139.493 199.927 140.495 200.231 141.52 200.231C142.892 200.231 144.208 199.687 145.179 198.717C146.15 197.748 146.697 196.433 146.7 195.061V195.061Z" fill="#263238" stroke="#263238" stroke-width="1.09543" stroke-linecap="round" stroke-linejoin="round"></path> <path d="M186.908 252.801H96.1484V257.031H186.908V252.801Z" fill="white" stroke="#263238" stroke-width="1.09543" stroke-linecap="round" stroke-linejoin="round"></path> <path d="M251.867 30.7383H37.977C36.033 30.7383 34.457 32.3142 34.457 34.2583V49.5783C34.457 51.5223 36.033 53.0983 37.977 53.0983H251.867C253.811 53.0983 255.387 51.5223 255.387 49.5783V34.2583C255.387 32.3142 253.811 30.7383 251.867 30.7383Z" fill="#263238" stroke="#263238" stroke-linecap="round" stroke-linejoin="round"></path> <path d="M94.1089 95.6992H36.8989C34.9549 95.6992 33.3789 97.2752 33.3789 99.2192V141.689C33.3789 143.633 34.9549 145.209 36.8989 145.209H94.1089C96.0529 145.209 97.6289 143.633 97.6289 141.689V99.2192C97.6289 97.2752 96.0529 95.6992 94.1089 95.6992Z" fill="#263238" stroke="#263238" stroke-linecap="round" stroke-linejoin="round"></path> <path d="M74.8987 106.61C74.8987 105.504 74.5709 104.423 73.9567 103.504C73.3424 102.585 72.4694 101.868 71.448 101.445C70.4265 101.022 69.3026 100.911 68.2182 101.127C67.1339 101.343 66.1378 101.875 65.356 102.657C64.5742 103.439 64.0419 104.435 63.8262 105.519C63.6105 106.603 63.7212 107.727 64.1443 108.749C64.5674 109.77 65.2838 110.643 66.2031 111.257C67.1224 111.872 68.2032 112.2 69.3088 112.2C70.0428 112.2 70.7697 112.055 71.448 111.774C72.1262 111.493 72.7424 111.081 73.2615 110.562C73.7806 110.043 74.1923 109.427 74.4732 108.749C74.7542 108.071 74.8987 107.344 74.8987 106.61V106.61Z" fill="white" stroke="#263238" stroke-linecap="round" stroke-linejoin="round"></path> <path d="M37.1195 145.211H93.8795C94.8741 145.211 95.8279 144.816 96.5312 144.112C97.2344 143.409 97.6295 142.455 97.6295 141.461V123.881L79.6995 111.141L66.9195 133.001L56.2695 122.351L35.2695 144.741C35.835 145.055 36.4725 145.217 37.1195 145.211V145.211Z" fill="white" stroke="#263238" stroke-linecap="round" stroke-linejoin="round"></path> <path d="M130.989 61.6211H39.5591C37.615 61.6211 36.0391 63.1971 36.0391 65.1411V80.4611C36.0391 82.4051 37.615 83.9811 39.5591 83.9811H130.989C132.933 83.9811 134.509 82.4051 134.509 80.4611V65.1411C134.509 63.1971 132.933 61.6211 130.989 61.6211Z" fill="white" stroke="#263238" stroke-linecap="round" stroke-linejoin="round"></path> <path d="M251.88 61.6211H160.45C158.506 61.6211 156.93 63.1971 156.93 65.1411V80.4611C156.93 82.4051 158.506 83.9811 160.45 83.9811H251.88C253.824 83.9811 255.4 82.4051 255.4 80.4611V65.1411C255.4 63.1971 253.824 61.6211 251.88 61.6211Z" fill="white" stroke="#263238" stroke-linecap="round" stroke-linejoin="round"></path> <path d="M253.769 96.7617H113.859" stroke="#263238" stroke-linecap="round" stroke-linejoin="round"></path> <path d="M253.769 106.34H113.859" stroke="#263238" stroke-linecap="round" stroke-linejoin="round"></path> <path d="M253.769 115.93H113.859" stroke="#263238" stroke-linecap="round" stroke-linejoin="round"></path> <path d="M253.769 125.512H113.859" stroke="#263238" stroke-linecap="round" stroke-linejoin="round"></path> <path d="M253.769 135.09H113.859" stroke="#263238" stroke-linecap="round" stroke-linejoin="round"></path> <path d="M253.769 144.68H113.859" stroke="#263238" stroke-linecap="round" stroke-linejoin="round"></path> <path d="M259.999 23.6406H32.1289V155.681H259.999V23.6406Z" stroke="white" stroke-width="2" stroke-linecap="round" stroke-linejoin="round"></path> <path d="M36.5387 23.6405C36.5387 22.7683 36.2801 21.9156 35.7955 21.1904C35.311 20.4652 34.6222 19.8999 33.8164 19.5662C33.0106 19.2324 32.1239 19.145 31.2684 19.3152C30.413 19.4854 29.6272 19.9054 29.0104 20.5221C28.3937 21.1389 27.9736 21.9247 27.8035 22.7801C27.6333 23.6356 27.7207 24.5223 28.0544 25.3281C28.3882 26.1339 28.9535 26.8227 29.6787 27.3072C30.4039 27.7918 31.2565 28.0505 32.1288 28.0505C32.7083 28.0518 33.2823 27.9386 33.818 27.7175C34.3536 27.4963 34.8403 27.1715 35.25 26.7617C35.6598 26.352 35.9846 25.8653 36.2058 25.3297C36.4269 24.794 36.5401 24.22 36.5387 23.6405V23.6405Z" fill="white"></path> <path d="M264.41 23.6405C264.41 22.7678 264.151 21.9148 263.666 21.1894C263.181 20.4639 262.492 19.8987 261.685 19.5652C260.879 19.2317 259.992 19.145 259.136 19.3159C258.28 19.4869 257.494 19.9079 256.878 20.5257C256.262 21.1434 255.842 21.9301 255.673 22.7863C255.504 23.6424 255.593 24.5294 255.928 25.335C256.264 26.1407 256.831 26.8287 257.557 27.3121C258.284 27.7955 259.137 28.0524 260.01 28.0505C260.589 28.0505 261.161 27.9363 261.696 27.7146C262.23 27.4928 262.716 27.1678 263.125 26.7582C263.533 26.3486 263.857 25.8623 264.078 25.3273C264.298 24.7924 264.411 24.2191 264.41 23.6405V23.6405Z" fill="white"></path> <path d="M148.429 23.6405C148.429 22.7683 148.171 21.9156 147.686 21.1904C147.202 20.4652 146.513 19.8999 145.707 19.5662C144.901 19.2324 144.014 19.145 143.159 19.3152C142.304 19.4854 141.518 19.9054 140.901 20.5221C140.284 21.1389 139.864 21.9247 139.694 22.7801C139.524 23.6356 139.611 24.5223 139.945 25.3281C140.279 26.1339 140.844 26.8227 141.569 27.3072C142.295 27.7918 143.147 28.0505 144.019 28.0505C144.599 28.0518 145.173 27.9386 145.709 27.7175C146.244 27.4963 146.731 27.1715 147.141 26.7617C147.55 26.352 147.875 25.8653 148.096 25.3297C148.318 24.794 148.431 24.22 148.429 23.6405V23.6405Z" fill="white"></path> <path d="M148.429 155.842C148.431 154.969 148.174 154.116 147.691 153.389C147.208 152.663 146.52 152.096 145.714 151.76C144.908 151.425 144.021 151.336 143.165 151.505C142.309 151.674 141.522 152.094 140.905 152.71C140.287 153.326 139.866 154.112 139.695 154.968C139.524 155.824 139.611 156.711 139.944 157.517C140.278 158.324 140.843 159.013 141.568 159.498C142.294 159.983 143.147 160.242 144.019 160.242C144.598 160.243 145.171 160.13 145.706 159.91C146.241 159.689 146.727 159.365 147.137 158.957C147.547 158.548 147.872 158.062 148.093 157.528C148.315 156.994 148.429 156.421 148.429 155.842V155.842Z" fill="white"></path> <path d="M36.5387 155.842C36.5407 154.969 36.2838 154.116 35.8004 153.389C35.317 152.663 34.629 152.096 33.8233 151.76C33.0177 151.425 32.1307 151.336 31.2745 151.505C30.4184 151.674 29.6317 152.094 29.014 152.71C28.3962 153.326 27.9752 154.112 27.8042 154.968C27.6333 155.824 27.72 156.711 28.0535 157.517C28.387 158.324 28.9522 159.013 29.6776 159.498C30.4031 159.983 31.2561 160.242 32.1287 160.242C32.7074 160.243 33.2806 160.13 33.8156 159.91C34.3506 159.689 34.8368 159.365 35.2465 158.957C35.6561 158.548 35.9811 158.062 36.2029 157.528C36.4246 156.994 36.5387 156.421 36.5387 155.842V155.842Z" fill="white"></path> <path d="M264.41 154.24C264.412 153.367 264.155 152.513 263.671 151.786C263.187 151.06 262.498 150.493 261.692 150.158C260.886 149.823 259.998 149.735 259.142 149.905C258.286 150.074 257.499 150.495 256.882 151.112C256.264 151.729 255.844 152.516 255.674 153.372C255.504 154.229 255.592 155.116 255.927 155.923C256.262 156.729 256.829 157.417 257.556 157.901C258.283 158.385 259.137 158.642 260.01 158.64C261.177 158.64 262.296 158.177 263.121 157.352C263.946 156.526 264.41 155.407 264.41 154.24V154.24Z" fill="white"></path> </svg> 