<?xml version="1.0" encoding="UTF-8"?> <svg xmlns="http://www.w3.org/2000/svg" width="197" height="134" viewBox="0 0 197 134" fill="none"> <path d="M172.99 43.0078H34.1602V133.038H172.99V43.0078Z" fill="#30B46F" stroke="#263238" stroke-linecap="round" stroke-linejoin="round"></path> <path d="M172.99 43.0085H34.1602L56.8802 0.648438H195.71L172.99 43.0085Z" fill="#30B46F" stroke="#263238" stroke-linecap="round" stroke-linejoin="round"></path> <path d="M46.2812 21.3203H47.2812" stroke="#263238" stroke-miterlimit="10"></path> <path d="M49.25 21.3203H182.72" stroke="#263238" stroke-miterlimit="10" stroke-dasharray="1.98 1.98"></path> <path d="M183.711 21.3203H184.711" stroke="#263238" stroke-miterlimit="10"></path> <path d="M195.708 0.648438V89.2285L172.988 133.048V43.0085L195.708 0.648438Z" fill="#30B46F"></path> <path opacity="0.2" d="M195.708 0.648438V89.2285L172.988 133.048V43.0085L195.708 0.648438Z" fill="black"></path> <path d="M195.708 0.648438V89.2285L172.988 133.048V43.0085L195.708 0.648438Z" stroke="#263238" stroke-linecap="round" stroke-linejoin="round"></path> <path d="M90.5781 43.0085H110.418L131.748 0.648438H111.918L90.5781 43.0085Z" fill="white" stroke="#263238" stroke-miterlimit="10"></path> <path d="M110.558 80.5678L100.818 73.5378L90.5781 80.5678V43.0078H110.558V80.5678Z" fill="white" stroke="#263238" stroke-miterlimit="10"></path> <path d="M27.06 1.42969H20.5" stroke="#263238" stroke-miterlimit="10"></path> <path d="M51.7716 1.42969H32.1016" stroke="#263238" stroke-miterlimit="10"></path> <path d="M32.0999 42.2773H0.839844" stroke="#263238" stroke-miterlimit="10"></path> <path d="M5.36984 82.6172H0.839844" stroke="#263238" stroke-miterlimit="10"></path> <path d="M32.098 82.6172H10.418" stroke="#263238" stroke-miterlimit="10"></path> <path d="M32.0988 59.9297H16.9688" stroke="#263238" stroke-miterlimit="10"></path> <path d="M46.7316 14.0391H31.6016" stroke="#263238" stroke-miterlimit="10"></path> <path d="M32.0988 115.898H16.9688" stroke="#263238" stroke-miterlimit="10"></path> </svg> 