<?xml version="1.0" encoding="UTF-8"?> <svg xmlns="http://www.w3.org/2000/svg" width="166" height="215" viewBox="0 0 166 215" fill="none"> <path d="M123.539 70.3109L115.999 95.0009L99.2792 82.1509C99.027 80.5482 98.6932 78.9595 98.2792 77.3909C97.9492 76.6109 95.9592 74.2909 95.5092 73.3909C95.0592 72.4909 94.4092 73.2809 94.4092 73.9509C94.4092 74.6209 95.9592 76.8309 95.9592 76.8309L95.1792 77.6009L88.9792 74.6509C88.9071 74.6175 88.829 74.5988 88.7496 74.5958C88.6701 74.5928 88.5909 74.6056 88.5165 74.6336C88.442 74.6615 88.3739 74.7039 88.316 74.7584C88.2581 74.8129 88.2116 74.8783 88.1792 74.9509V74.9509C88.1203 75.073 88.1061 75.2119 88.139 75.3434C88.1719 75.475 88.2498 75.5908 88.3592 75.6709L91.7492 78.2709L91.3092 79.1509L85.6592 76.8309C85.5878 76.8022 85.5113 76.7883 85.4344 76.79C85.3575 76.7917 85.2817 76.809 85.2116 76.8407C85.1415 76.8725 85.0786 76.9181 85.0266 76.9749C84.9746 77.0316 84.9347 77.0983 84.9092 77.1709V77.1709C84.8707 77.293 84.8744 77.4245 84.9198 77.5442C84.9652 77.6639 85.0494 77.7649 85.1592 77.8309L90.3092 80.8309L86.9492 81.4909C86.8709 81.5068 86.7969 81.539 86.7318 81.5854C86.6668 81.6318 86.6122 81.6913 86.5717 81.7601C86.5311 81.829 86.5055 81.9056 86.4965 81.9849C86.4874 82.0643 86.4952 82.1447 86.5192 82.2209V82.2209C86.5583 82.3335 86.631 82.4313 86.7277 82.5011C86.8243 82.5709 86.94 82.6092 87.0592 82.6109H90.5292L87.5292 83.7109C87.5292 83.7109 87.9192 84.5809 88.5292 84.5509L92.0792 84.3809L97.2892 84.7109C97.2892 84.7109 114.219 102.461 114.779 103.001C115.339 103.541 118.659 104.751 119.319 104.091C119.979 103.431 127.409 94.4509 127.409 94.4509L126.299 71.2009C126.299 71.2009 125.199 69.0009 123.539 70.3109Z" fill="white" stroke="#263238" stroke-linecap="round" stroke-linejoin="round"></path> <path d="M127.538 41.8304C127.538 41.8304 124.308 42.0504 122.788 36.8304C121.268 31.6104 125.168 30.1304 127.328 29.7004C129.488 29.2704 129.918 24.5204 133.588 23.8704C137.258 23.2204 141.138 26.2504 142.008 28.8704C142.878 31.4904 148.488 27.5704 151.718 31.0304C154.948 34.4904 154.718 41.1704 154.718 43.5504C154.718 45.9304 162.058 46.3604 162.058 51.9704C162.058 57.5804 161.188 60.3904 161.618 61.2504C162.048 62.1104 165.288 79.7904 165.288 79.7904H124.998C124.998 79.7904 123.708 66.8704 125.218 63.6304C126.728 60.3904 128.028 60.1704 128.668 57.1504C129.308 54.1304 128.668 49.3804 128.238 47.2204C127.913 45.4369 127.679 43.6378 127.538 41.8304V41.8304Z" fill="#263238" stroke="#263238" stroke-linecap="round" stroke-linejoin="round"></path> <path d="M135.32 64.4991L123.23 64.7191L125.6 94.2891L148.49 96.019L159.281 65.359L146.331 64.2891L135.32 64.4991Z" fill="#263238" stroke="#263238" stroke-linecap="round" stroke-linejoin="round"></path> <path d="M131.432 34.9217C131.432 34.9217 128.192 39.4617 127.542 41.8317C126.691 44.572 126.506 47.4756 127.002 50.3017C127.652 53.5417 129.492 58.8917 130.782 59.3017C132.072 59.7117 135.532 59.3017 135.532 59.3017L135.322 64.4817H133.592L133.802 72.2517L142.012 72.6817L146.332 64.2617L144.172 63.8317L142.662 51.1017C142.662 51.1017 144.812 48.7217 145.032 46.9917C145.154 46.1332 145.227 45.2685 145.252 44.4017C145.252 44.4017 142.662 46.3517 140.502 44.4017C138.342 42.4517 137.692 40.3017 137.042 38.1417C136.392 35.9817 135.102 34.2617 134.042 34.2617C133.142 34.3403 132.261 34.5632 131.432 34.9217V34.9217Z" fill="white" stroke="#263238" stroke-linecap="round" stroke-linejoin="round"></path> <path d="M135.531 59.3195L139.201 58.0195L135.751 61.9095L135.531 59.3195Z" fill="#263238" stroke="#263238" stroke-linecap="round" stroke-linejoin="round"></path> <path d="M125.601 94.2891L123.231 101.849C123.231 101.849 114.591 111.129 112.861 128.399C111.131 145.669 113.941 162.729 114.811 169.639C115.681 176.549 124.001 207.089 124.001 207.089H129.621C129.621 207.089 127.541 178.709 127.541 175.899V160.139L143.411 203.779L148.601 203.999C148.601 203.999 146.521 183.389 145.231 174.999C144.339 169.485 143.12 164.029 141.581 158.659C141.581 158.659 153.001 135.999 153.001 120.419C153.001 104.839 149.111 101.419 149.111 101.419L148.471 96.019L125.601 94.2891Z" fill="#BABABA" stroke="#263238" stroke-linecap="round" stroke-linejoin="round"></path> <path d="M132.531 118C133.281 114.63 133.801 112.41 133.801 112.41" stroke="#263238" stroke-linecap="round" stroke-linejoin="round"></path> <path d="M127.539 160.14C127.539 160.14 126.679 155.82 127.329 146.54C127.709 141.06 129.889 130.18 131.619 122.18" stroke="#263238" stroke-linecap="round" stroke-linejoin="round"></path> <path d="M123.999 207.09C123.999 207.09 113.859 211.84 113.859 212.92C113.859 214 130.049 212.92 130.049 212.92C130.424 211.883 130.57 210.778 130.479 209.68C130.348 208.773 130.056 207.896 129.619 207.09H123.999Z" fill="white" stroke="#263238" stroke-linecap="round" stroke-linejoin="round"></path> <path d="M143.409 203.781C143.409 203.781 138.669 209.831 137.149 211.341C135.629 212.851 136.069 213.931 137.369 213.931C138.669 213.931 146.009 213.501 147.299 212.641C148.032 212.169 148.686 211.585 149.239 210.911L148.599 204.001L143.409 203.781Z" fill="white" stroke="#263238" stroke-linecap="round" stroke-linejoin="round"></path> <path d="M158.001 69.25C158.001 69.25 159.951 97.96 158.221 100.99C156.491 104.02 151.531 102.28 151.101 100.99C150.671 99.7 151.531 88.46 151.531 88.46L158.001 69.25Z" fill="white" stroke="#263238" stroke-linecap="round" stroke-linejoin="round"></path> <path d="M105.42 0.587789L13.9062 13.9219L36.9915 172.359L128.505 159.025L105.42 0.587789Z" fill="#30B46F" stroke="#263238" stroke-linecap="round" stroke-linejoin="round"></path> <path d="M99.8192 24.56C98.3693 24.7723 96.8918 24.6968 95.4711 24.3377C94.0504 23.9786 92.7144 23.343 91.5395 22.4672C90.3646 21.5914 89.3739 20.4925 88.624 19.2336C87.8741 17.9746 87.3798 16.5802 87.1692 15.13C87.111 14.6721 87.0777 14.2115 87.0692 13.75L34.5192 21.4C34.6498 21.8427 34.75 22.2937 34.8192 22.75C35.2424 25.6789 34.486 28.6561 32.7161 31.0279C30.9462 33.3996 28.3075 34.9721 25.3792 35.4C25.1492 35.4 24.9292 35.45 24.6992 35.47L41.1792 148.67C41.4092 148.62 41.6292 148.57 41.8592 148.54C43.3113 148.328 44.791 148.405 46.2134 148.766C47.6359 149.127 48.973 149.765 50.1483 150.644C51.3235 151.522 52.3137 152.625 53.0621 153.887C53.8104 155.149 54.3022 156.547 54.5092 158C54.5757 158.457 54.6124 158.918 54.6192 159.38L107.159 151.73C107.031 151.284 106.934 150.83 106.869 150.37C106.657 148.921 106.733 147.444 107.092 146.024C107.451 144.604 108.087 143.268 108.963 142.094C109.839 140.92 110.937 139.93 112.196 139.181C113.455 138.433 114.849 137.939 116.299 137.73C116.756 137.664 117.217 137.627 117.679 137.62L101.169 24.27C100.725 24.3925 100.274 24.4893 99.8192 24.56V24.56ZM73.8192 104.56C70.2398 105.082 66.586 104.53 63.3198 102.976C60.0537 101.421 57.3219 98.9327 55.4699 95.8255C53.6179 92.7182 52.7289 89.1316 52.9152 85.5191C53.1016 81.9066 54.3549 78.4305 56.5167 75.5303C58.6786 72.6301 61.6519 70.4361 65.0607 69.2257C68.4694 68.0152 72.1606 67.8428 75.6674 68.7301C79.1741 69.6174 82.3391 71.5246 84.762 74.2105C87.1848 76.8965 88.7569 80.2406 89.2792 83.82C89.6318 86.2 89.5114 88.6261 88.9248 90.9595C88.3382 93.2929 87.2971 95.4876 85.861 97.4179C84.4248 99.3482 82.6219 100.976 80.5556 102.209C78.4893 103.441 76.2001 104.254 73.8192 104.6V104.56Z" fill="white" stroke="#263238" stroke-linecap="round" stroke-linejoin="round"></path> <path d="M90.2173 3.97083L0.511719 28.0156L42.1403 183.322L131.846 159.278L90.2173 3.97083Z" fill="#30B46F" stroke="#263238" stroke-width="1.00424" stroke-linecap="round" stroke-linejoin="round"></path> <path d="M84.5392 28.3711C81.6815 29.1347 78.6377 28.7327 76.0763 27.2532C73.5149 25.7738 71.6456 23.338 70.8792 20.4811C70.7662 20.0327 70.676 19.5787 70.6092 19.1211L19.3192 32.8411C19.4945 33.2687 19.6448 33.7061 19.7692 34.1511C20.1485 35.5668 20.245 37.0433 20.0532 38.4963C19.8613 39.9493 19.3849 41.3502 18.6512 42.6189C17.9175 43.8876 16.9408 44.9992 15.7771 45.8902C14.6134 46.7811 13.2854 47.4338 11.8692 47.8111C11.6492 47.8711 11.4192 47.9111 11.1992 47.9611L40.7592 158.471L41.4192 158.261C42.8342 157.882 44.3101 157.785 45.7626 157.976C47.215 158.167 48.6156 158.643 49.8842 159.375C51.1528 160.108 52.2646 161.084 53.1559 162.246C54.0473 163.409 54.7009 164.736 55.0792 166.151C55.198 166.598 55.2881 167.053 55.3492 167.511L106.639 153.791C106.464 153.364 106.314 152.926 106.189 152.481C105.426 149.622 105.829 146.577 107.311 144.015C108.792 141.454 111.23 139.585 114.089 138.821C114.535 138.697 114.99 138.606 115.449 138.551L85.8492 27.9211C85.4222 28.0979 84.9847 28.2482 84.5392 28.3711V28.3711ZM67.9992 110.891C64.5033 111.815 60.812 111.682 57.3916 110.509C53.9712 109.336 50.9753 107.175 48.7825 104.3C46.5896 101.425 45.2982 97.9644 45.0714 94.3556C44.8445 90.7468 45.6925 87.1517 47.5081 84.0247C49.3237 80.8976 52.0256 78.3788 55.2722 76.7867C58.5187 75.1946 62.1644 74.6005 65.7485 75.0796C69.3325 75.5586 72.6942 77.0893 75.4086 79.4782C78.1231 81.8671 80.0686 85.007 80.9992 88.5011C81.6195 90.8249 81.7751 93.2483 81.4571 95.6323C81.1391 98.0163 80.3538 100.314 79.1461 102.394C77.9384 104.474 76.3322 106.295 74.4194 107.753C72.5066 109.211 70.3248 110.278 67.9992 110.891V110.891Z" fill="white" stroke="#263238" stroke-linecap="round" stroke-linejoin="round"></path> <path d="M153.002 96.2397L120.832 95.5897C120.832 95.5897 114.352 93.4297 113.272 93.4297C111.755 93.6741 110.262 94.0522 108.812 94.5597C108.673 94.6037 108.555 94.6975 108.481 94.823C108.407 94.9485 108.383 95.097 108.412 95.2397V95.2397C108.443 95.3896 108.532 95.5215 108.658 95.6074C108.785 95.6932 108.941 95.7263 109.092 95.6997L112.202 95.1597L113.062 95.7997L106.832 99.7997C106.705 99.882 106.614 100.009 106.577 100.156C106.54 100.302 106.559 100.457 106.632 100.59V100.59C106.704 100.724 106.825 100.826 106.97 100.874C107.115 100.923 107.273 100.914 107.412 100.85L112.092 98.6497L112.252 99.8297L107.252 102.44C107.093 102.523 106.971 102.662 106.908 102.83C106.846 102.998 106.847 103.183 106.912 103.35C106.978 103.51 107.098 103.642 107.252 103.722C107.405 103.802 107.582 103.826 107.752 103.79L109.582 103.37C109.793 103.628 110.074 103.819 110.392 103.921C110.71 104.022 111.05 104.028 111.372 103.94L114.782 102.94L112.622 104.32C112.537 104.37 112.466 104.439 112.414 104.522C112.362 104.605 112.33 104.699 112.322 104.797C112.313 104.894 112.327 104.993 112.364 105.083C112.4 105.174 112.458 105.255 112.532 105.32V105.32C112.64 105.404 112.774 105.45 112.912 105.45C113.049 105.45 113.183 105.404 113.292 105.32L117.612 102.37L121.312 100.01L153.912 105.75C153.912 105.75 156.662 105.99 157.142 105.44C157.622 104.89 158.552 99.6897 158.632 98.3497" fill="white"></path> <path d="M153.002 96.2397L120.832 95.5897C120.832 95.5897 114.352 93.4297 113.272 93.4297C111.755 93.6741 110.262 94.0522 108.812 94.5597C108.673 94.6037 108.555 94.6975 108.481 94.823C108.407 94.9485 108.383 95.097 108.412 95.2397V95.2397C108.443 95.3896 108.532 95.5215 108.658 95.6074C108.785 95.6932 108.941 95.7263 109.092 95.6997L112.202 95.1597L113.062 95.7997L106.832 99.7997C106.705 99.882 106.614 100.009 106.577 100.156C106.54 100.302 106.559 100.457 106.632 100.59V100.59C106.704 100.724 106.825 100.826 106.97 100.874C107.115 100.923 107.273 100.914 107.412 100.85L112.092 98.6497L112.252 99.8297L107.252 102.44C107.093 102.523 106.971 102.662 106.908 102.83C106.846 102.998 106.847 103.183 106.912 103.35C106.978 103.51 107.098 103.642 107.252 103.722C107.405 103.802 107.582 103.826 107.752 103.79L109.582 103.37C109.793 103.628 110.074 103.819 110.392 103.921C110.71 104.022 111.05 104.028 111.372 103.94L114.782 102.94L112.622 104.32C112.537 104.37 112.466 104.439 112.414 104.522C112.362 104.605 112.33 104.699 112.322 104.797C112.313 104.894 112.327 104.993 112.364 105.083C112.4 105.174 112.458 105.255 112.532 105.32V105.32C112.64 105.404 112.774 105.45 112.912 105.45C113.049 105.45 113.183 105.404 113.292 105.32L117.612 102.37L121.312 100.01L153.912 105.75C153.912 105.75 156.662 105.99 157.142 105.44C157.622 104.89 158.552 99.6897 158.632 98.3497" stroke="#263238" stroke-linecap="round" stroke-linejoin="round"></path> <path d="M109.59 103.388L114 101.738" stroke="#263238" stroke-linecap="round" stroke-linejoin="round"></path> <path d="M130.431 44.6603C130.431 45.4003 130.051 46.0103 129.571 46.0103C129.091 46.0103 128.711 45.4003 128.711 44.6603C128.711 43.9203 129.101 43.3203 129.571 43.3203C130.041 43.3203 130.431 43.9203 130.431 44.6603Z" fill="#263238"></path> <path d="M135.259 45.6798C135.259 46.4198 134.869 47.0198 134.399 47.0198C133.929 47.0198 133.539 46.4198 133.539 45.6798C133.539 44.9398 133.929 44.3398 134.399 44.3398C134.869 44.3398 135.259 44.9398 135.259 45.6798Z" fill="#263238"></path> <path d="M128.5 41.6079C128.5 41.6079 129.36 40.5279 131.07 41.7079" stroke="#263238" stroke-linecap="round" stroke-linejoin="round"></path> <path d="M133.43 42.2517C134.016 42.0205 134.668 42.0258 135.25 42.2664C135.832 42.5071 136.298 42.9643 136.55 43.5417" stroke="#263238" stroke-linecap="round" stroke-linejoin="round"></path> <path d="M131.291 44.7188C131.406 45.3618 131.368 46.023 131.181 46.6487C130.861 47.3987 129.361 48.7887 129.471 49.1187C129.581 49.4487 130.321 49.6487 130.321 49.6487" stroke="#263238" stroke-linecap="round" stroke-linejoin="round"></path> <path d="M129.359 52.2314C129.359 52.2314 132.359 53.6214 134.719 51.6914" stroke="#263238" stroke-linecap="round" stroke-linejoin="round"></path> </svg> 