<?xml version="1.0" encoding="UTF-8"?> <svg xmlns="http://www.w3.org/2000/svg" width="181" height="358" viewBox="0 0 181 358" fill="none"> <path d="M170 21.4897V324.55C170 328.533 168.422 332.355 165.61 335.178C162.799 338 158.984 339.594 155 339.61H24C20.0162 339.594 16.2011 338 13.3897 335.178C10.5784 332.355 8.99997 328.533 9 324.55V21.4897C8.99733 17.5051 10.5749 13.6821 13.3868 10.8589C16.1987 8.03576 20.0154 6.44292 24 6.42969H80.2V6.60969C81.6 11.6097 84.83 14.9297 88.4 14.9297H90.46C94.03 14.9297 97.26 11.6497 98.66 6.60969V6.42969H155C158.984 6.44556 162.799 8.03924 165.61 10.8618C168.422 13.6844 170 17.5059 170 21.4897V21.4897Z" fill="white" stroke="#263238" stroke-linecap="round" stroke-linejoin="round"></path> <path d="M170 30.0697V21.4897C170 17.5059 168.422 13.6844 165.61 10.8618C162.799 8.03924 158.984 6.44556 155 6.42969H98.78V6.60969C97.38 11.6097 94.15 14.9297 90.58 14.9297H88.52C84.95 14.9297 81.72 11.6497 80.32 6.60969V6.42969H24C20.0154 6.44292 16.1987 8.03576 13.3868 10.8589C10.5749 13.6821 8.99733 17.5051 9 21.4897V30.0697H170Z" fill="#263238" stroke="#263238" stroke-miterlimit="10"></path> <path d="M9 316.449V324.549C8.99997 328.533 10.5784 332.354 13.3897 335.177C16.2011 338 20.0162 339.593 24 339.609H155C158.984 339.593 162.799 338 165.61 335.177C168.422 332.354 170 328.533 170 324.549V316.449H9Z" fill="#263238" stroke="#263238" stroke-miterlimit="10"></path> <path d="M180.281 93.88V63.61H177.541V24.86C177.53 18.53 175.009 12.4627 170.53 7.98953C166.051 3.51635 159.981 1.00264 153.651 1H25.3509C19.0157 1.00265 12.9407 3.52048 8.46107 8.00014C3.98141 12.4798 1.46359 18.5548 1.46094 24.89V332.78C1.46359 339.115 3.98141 345.19 8.46107 349.67C12.9407 354.15 19.0157 356.667 25.3509 356.67H153.651C159.986 356.667 166.061 354.15 170.541 349.67C175.02 345.19 177.538 339.115 177.541 332.78V119.67H180.281V101.79H177.541V93.88H180.281ZM170.001 315.72C170.001 322.054 167.485 328.129 163.007 332.609C158.529 337.089 152.455 339.607 146.121 339.61H32.8509C26.5218 339.599 20.4556 337.078 15.984 332.599C11.5124 328.12 9.00092 322.049 9.00093 315.72V30.31C9.00358 23.9774 11.5204 17.905 15.9982 13.4272C20.4759 8.94942 26.5484 6.43265 32.8809 6.43H80.2509V6.61C81.6509 11.61 84.8809 14.93 88.4509 14.93H90.5109C94.0809 14.93 97.3109 11.65 98.7109 6.61V6.43H146.081C149.22 6.42606 152.329 7.04075 155.23 8.23895C158.131 9.43714 160.768 11.1953 162.99 13.4131C165.211 15.6308 166.974 18.2646 168.177 21.1638C169.38 24.0631 170 27.171 170.001 30.31V315.72Z" fill="#30B46F" stroke="#263238" stroke-linecap="round" stroke-linejoin="round"></path> <path d="M151.742 4.26172H27.2617C21.1617 4.26172 15.3116 6.68492 10.9983 10.9983C6.68494 15.3116 4.26172 21.1617 4.26172 27.2617V330.262C4.26172 336.362 6.68494 342.212 10.9983 346.525C15.3116 350.839 21.1617 353.262 27.2617 353.262H151.742C157.842 353.262 163.692 350.839 168.005 346.525C172.319 342.212 174.742 336.362 174.742 330.262V27.2617C174.742 21.1617 172.319 15.3116 168.005 10.9983C163.692 6.68492 157.842 4.26172 151.742 4.26172V4.26172ZM170.002 316.572C170.002 322.672 167.579 328.522 163.265 332.835C158.952 337.149 153.102 339.572 147.002 339.572H32.0017C25.9017 339.572 20.0516 337.149 15.7383 332.835C11.4249 328.522 9.00172 322.672 9.00172 316.572V29.4717C9.00172 23.3717 11.4249 17.5216 15.7383 13.2083C20.0516 8.89492 25.9017 6.47172 32.0017 6.47172H80.2217V6.65172C81.6217 11.6517 84.8517 14.9717 88.4217 14.9717H90.4817C94.0517 14.9717 97.2817 11.6917 98.6817 6.65172V6.47172H147.002C153.102 6.47172 158.952 8.89492 163.265 13.2083C167.579 17.5216 170.002 23.3717 170.002 29.4717V316.572Z" fill="#263238" stroke="#263238" stroke-linecap="round" stroke-linejoin="round"></path> <path d="M91.2495 7.57982C91.2495 7.13722 91.1184 6.70454 90.8727 6.33639C90.627 5.96825 90.2778 5.68113 89.869 5.5113C89.4603 5.34147 89.0104 5.29654 88.5762 5.38216C88.1419 5.46778 87.7428 5.68013 87.4292 5.9924C87.1155 6.30467 86.9014 6.70287 86.8138 7.13672C86.7262 7.57058 86.7692 8.02065 86.9372 8.43013C87.1052 8.8396 87.3908 9.19013 87.7578 9.43746C88.1248 9.68479 88.5569 9.81784 88.9995 9.81982C89.2945 9.82114 89.5869 9.76417 89.8598 9.65219C90.1327 9.54021 90.3809 9.37542 90.5899 9.16729C90.799 8.95915 90.9649 8.71177 91.0781 8.43935C91.1913 8.16693 91.2495 7.87483 91.2495 7.57982V7.57982Z" fill="white"></path> <path d="M23.2823 16.1691C23.2823 18.4391 20.7324 19.2491 20.7224 20.9891V21.0991H23.2023V21.8691H19.9023V21.2191C19.9023 18.7891 22.4424 18.3191 22.4424 16.2191C22.4424 15.4491 22.1923 15.0391 21.5623 15.0391C20.9323 15.0391 20.6823 15.4791 20.6823 16.1491V16.8091H19.9023V16.1991C19.9023 15.0491 20.4224 14.2891 21.5824 14.2891C22.7424 14.2891 23.2823 14.9991 23.2823 16.1691Z" fill="white"></path> <path d="M27.4 16.1595V16.3495C27.4361 16.6715 27.3669 16.9965 27.2029 17.2759C27.0388 17.5553 26.7887 17.7741 26.49 17.8995C26.7905 18.0254 27.0419 18.2458 27.2061 18.5272C27.3703 18.8087 27.4383 19.136 27.4 19.4595V19.9995C27.4 21.1495 26.86 21.8995 25.7 21.8995C24.54 21.8995 24 21.1895 24 19.9995V19.4795H24.78V20.0495C24.78 20.7295 25.06 21.1395 25.66 21.1395C26.26 21.1395 26.54 20.7395 26.54 19.9795V19.3995C26.54 18.6595 26.23 18.2995 25.6 18.2795H25.15V17.5295H25.64C26.2 17.5295 26.54 17.1495 26.54 16.5295V16.1895C26.54 15.4195 26.27 15.0195 25.66 15.0195C25.05 15.0195 24.78 15.4395 24.78 16.1195V16.4995H24V16.1595C24 15.0095 24.53 14.2695 25.68 14.2695C26.83 14.2695 27.4 14.9995 27.4 16.1595Z" fill="white"></path> <path d="M29.0014 16.7305V17.7305H28.1914V16.7305H29.0014ZM29.0014 20.8205V21.8705H28.1914V20.8205H29.0014Z" fill="white"></path> <path d="M30.7316 17.4108C30.8386 17.212 30.9995 17.0474 31.1958 16.936C31.3922 16.8245 31.616 16.7707 31.8416 16.7808C32.8416 16.7808 33.2416 17.4908 33.2416 18.5708V20.0008C33.2416 21.1508 32.6915 21.9008 31.5415 21.9008C30.3915 21.9008 29.8516 21.1508 29.8516 20.0008V19.4908H30.6416V20.0508C30.6416 20.7308 30.9216 21.1408 31.5216 21.1408C32.1216 21.1408 32.4016 20.7308 32.4016 20.0508V18.5908C32.4016 17.9108 32.1216 17.5108 31.5216 17.5108C31.4127 17.5054 31.3039 17.522 31.2016 17.5597C31.0993 17.5973 31.0057 17.6552 30.9264 17.7299C30.847 17.8046 30.7835 17.8946 30.7397 17.9944C30.696 18.0942 30.6728 18.2018 30.6716 18.3108V18.4808H29.8916L30.0916 14.3008H33.0916V15.0508H30.8716L30.7316 17.4108Z" fill="white"></path> <path d="M37.43 16.1495V16.2895H36.64V16.0895C36.64 15.4195 36.36 15.0195 35.75 15.0195C35.14 15.0195 34.83 15.4295 34.83 16.2295V17.9195C34.921 17.6725 35.0883 17.4608 35.3077 17.3152C35.527 17.1696 35.787 17.0975 36.05 17.1095C37.05 17.1095 37.45 17.8095 37.45 18.8995V19.9995C37.45 21.1495 36.88 21.8995 35.73 21.8995C34.58 21.8995 34 21.1895 34 19.9995V16.1995C34 15.0095 34.53 14.2695 35.73 14.2695C36.93 14.2695 37.43 14.9995 37.43 16.1495ZM34.83 18.9595V20.0895C34.83 20.7695 35.11 21.1795 35.73 21.1795C36.35 21.1795 36.62 20.7695 36.62 20.0895V18.9995C36.62 18.3295 36.33 17.9195 35.73 17.9195C35.13 17.9195 34.83 18.2895 34.83 18.9995V18.9595Z" fill="white"></path> <path d="M119.581 16.4805H117.461V21.7905H119.581V16.4805Z" fill="white"></path> <path d="M122.431 15.4102H120.301V21.7902H122.431V15.4102Z" fill="white"></path> <path d="M125.263 14.6602H123.133V21.7902H125.263V14.6602Z" fill="white"></path> <path d="M128.081 13.3398H125.961V21.7898H128.081V13.3398Z" fill="white"></path> <path d="M154.391 21.6516H141.641V13.8516H154.391V21.6516ZM142.391 20.9416H153.721V14.5616H142.351L142.391 20.9416Z" fill="white"></path> <path d="M150.14 15.3281H143.41V20.1581H150.14V15.3281Z" fill="white"></path> <path d="M155.541 16.8281H153.941V18.6681H155.541V16.8281Z" fill="white"></path> <path d="M137.001 20.0004C136.915 20.002 136.832 19.9775 136.761 19.9304C134.161 18.3904 132.451 19.8204 132.381 19.9304C132.291 20.0177 132.171 20.0666 132.046 20.0666C131.92 20.0666 131.8 20.0177 131.711 19.9304C131.666 19.8866 131.631 19.8345 131.607 19.777C131.583 19.7195 131.57 19.6577 131.57 19.5954C131.57 19.533 131.583 19.4713 131.607 19.4138C131.631 19.3563 131.666 19.3041 131.711 19.2604C131.801 19.1804 134.001 17.2604 137.211 19.2004C137.264 19.2332 137.311 19.2763 137.349 19.3272C137.386 19.3782 137.413 19.4359 137.427 19.4972C137.442 19.5585 137.445 19.6221 137.435 19.6845C137.425 19.7468 137.403 19.8066 137.371 19.8604C137.322 19.9087 137.265 19.9461 137.201 19.9703C137.137 19.9944 137.069 20.0047 137.001 20.0004V20.0004Z" fill="white"></path> <path d="M137.921 18.3493C137.835 18.3508 137.752 18.3264 137.681 18.2793C133.931 16.0493 131.401 18.2093 131.381 18.2793C131.337 18.3237 131.285 18.359 131.227 18.3831C131.17 18.4072 131.108 18.4196 131.046 18.4196C130.983 18.4196 130.922 18.4072 130.864 18.3831C130.807 18.359 130.754 18.3237 130.711 18.2793C130.666 18.2355 130.631 18.1834 130.607 18.1259C130.583 18.0684 130.57 18.0066 130.57 17.9443C130.57 17.8819 130.583 17.8202 130.607 17.7627C130.631 17.7052 130.666 17.653 130.711 17.6093C130.711 17.6093 133.781 14.9693 138.131 17.5493C138.185 17.5821 138.231 17.6252 138.269 17.6761C138.306 17.7271 138.333 17.7848 138.347 17.8461C138.362 17.9074 138.365 17.971 138.355 18.0334C138.345 18.0957 138.324 18.1554 138.291 18.2093C138.242 18.2576 138.185 18.295 138.121 18.3192C138.057 18.3433 137.989 18.3536 137.921 18.3493Z" fill="white"></path> <path d="M138.791 16.4995C138.707 16.4949 138.624 16.471 138.551 16.4295C133.801 13.5995 130.641 16.2595 130.551 16.3795C130.46 16.4675 130.338 16.5167 130.211 16.5167C130.084 16.5167 129.962 16.4675 129.871 16.3795C129.79 16.2835 129.75 16.1596 129.759 16.0343C129.768 15.9091 129.827 15.7925 129.921 15.7095C129.921 15.7095 133.711 12.4695 139.081 15.7095C139.134 15.7414 139.181 15.7836 139.218 15.8336C139.255 15.8837 139.282 15.9406 139.297 16.0011C139.312 16.0615 139.315 16.1244 139.305 16.1859C139.295 16.2475 139.274 16.3065 139.241 16.3595C139.184 16.4188 139.112 16.4627 139.034 16.4872C138.955 16.5117 138.872 16.5159 138.791 16.4995Z" fill="white"></path> <path d="M135.533 20.7508C135.533 20.9882 135.462 21.2202 135.331 21.4175C135.199 21.6148 135.011 21.7687 134.792 21.8595C134.573 21.9503 134.331 21.9741 134.099 21.9278C133.866 21.8815 133.652 21.7672 133.484 21.5993C133.316 21.4315 133.202 21.2177 133.156 20.9849C133.11 20.7522 133.133 20.5109 133.224 20.2916C133.315 20.0723 133.469 19.8849 133.666 19.7531C133.863 19.6212 134.095 19.5508 134.333 19.5508C134.491 19.5495 134.647 19.5796 134.794 19.6394C134.94 19.6993 135.073 19.7876 135.184 19.8993C135.296 20.011 135.384 20.1438 135.444 20.29C135.504 20.4362 135.534 20.5929 135.533 20.7508V20.7508Z" fill="white"></path> <path d="M150.81 164.762H28.7403C24.7804 164.762 21.5703 167.972 21.5703 171.932V242.222C21.5703 246.182 24.7804 249.392 28.7403 249.392H150.81C154.77 249.392 157.98 246.182 157.98 242.222V171.932C157.98 167.972 154.77 164.762 150.81 164.762Z" fill="#30B46F" stroke="#263238" stroke-linecap="round" stroke-linejoin="round"></path> <path d="M119.626 106.299C123.895 87.9388 112.473 69.5946 94.1129 65.3255C75.7532 61.0565 57.409 72.4792 53.14 90.8389C48.8709 109.199 60.2936 127.543 78.6533 131.812C97.013 136.081 115.357 124.658 119.626 106.299Z" fill="#263238"></path> <path d="M86.7607 130.39V124.84C82.6607 124.68 79.594 123.347 77.5607 120.84C75.5273 118.333 74.434 114.667 74.2807 109.84L82.7007 108.41C82.7397 110.094 82.9507 111.769 83.3306 113.41C83.5487 114.532 84.0751 115.571 84.8507 116.41C85.1998 116.744 85.6125 117.005 86.0642 117.177C86.516 117.349 86.9977 117.428 87.4807 117.41C87.9736 117.465 88.4721 117.381 88.9205 117.169C89.3689 116.958 89.7498 116.625 90.0207 116.21C90.4916 115.375 90.7299 114.429 90.7107 113.47C90.7745 111.663 90.2823 109.879 89.3006 108.36C88.2068 106.812 86.9122 105.417 85.4507 104.21L80.3707 99.85C79.2649 98.8239 78.2292 97.7248 77.2707 96.56C76.3333 95.4191 75.5961 94.1274 75.0907 92.74C74.5179 91.109 74.2436 89.3882 74.2807 87.66C74.2807 83.92 75.344 81.0033 77.4707 78.91C79.8108 76.7336 82.8568 75.4732 86.0506 75.36V70H88.9107V75.32C90.769 75.3519 92.589 75.8542 94.2007 76.78C95.5073 77.5692 96.5887 78.6816 97.3407 80.01C98.0667 81.3377 98.5892 82.767 98.8907 84.25C99.2023 85.7161 99.4029 87.2037 99.4907 88.7L90.9407 90C90.919 88.6899 90.802 87.3831 90.5907 86.09C90.4626 85.1259 90.0909 84.2104 89.5107 83.43C89.2132 83.0999 88.841 82.8459 88.4251 82.6893C88.0093 82.5327 87.562 82.4781 87.1207 82.53C86.6208 82.521 86.1267 82.637 85.6831 82.8675C85.2395 83.0981 84.8605 83.4358 84.5806 83.85C84.0121 84.6761 83.7118 85.6572 83.7207 86.66C83.6505 88.209 84.1011 89.737 85.0007 91C85.9146 92.1504 86.9177 93.227 88.0007 94.22L93.0007 98.52C94.3185 99.7179 95.539 101.019 96.6507 102.41C97.7683 103.81 98.6746 105.367 99.3407 107.03C100.038 108.893 100.378 110.871 100.341 112.86C100.365 114.853 99.9269 116.825 99.0607 118.62C98.2274 120.33 96.9494 121.784 95.3606 122.83C93.6498 123.942 91.6855 124.602 89.6507 124.75V130.36L86.7607 130.39Z" fill="white" stroke="#263238" stroke-linecap="round" stroke-linejoin="round"></path> <path d="M113.15 89.8322C118.491 89.8322 122.82 85.5028 122.82 80.1622C122.82 74.8216 118.491 70.4922 113.15 70.4922C107.81 70.4922 103.48 74.8216 103.48 80.1622C103.48 85.5028 107.81 89.8322 113.15 89.8322Z" fill="#30B46F" stroke="#263238" stroke-linecap="round" stroke-linejoin="round"></path> <path d="M113.122 84.3714C112.928 84.3632 112.737 84.3124 112.565 84.2226C112.392 84.1327 112.241 84.006 112.122 83.8514L107.352 77.6814C107.136 77.4016 107.04 77.0474 107.085 76.6967C107.13 76.346 107.313 76.0276 107.592 75.8114C107.872 75.5953 108.226 75.4991 108.577 75.5441C108.928 75.5891 109.246 75.7716 109.462 76.0514L113.232 80.9414L123.122 69.5414C123.361 69.3085 123.679 69.174 124.013 69.1646C124.347 69.1552 124.672 69.2716 124.923 69.4907C125.175 69.7097 125.335 70.0155 125.372 70.3472C125.409 70.6789 125.32 71.0124 125.122 71.2814L114.172 83.9114C114.043 84.0615 113.881 84.1807 113.699 84.2603C113.518 84.3399 113.321 84.3779 113.122 84.3714V84.3714Z" fill="#263238"></path> </svg> 