<?xml version="1.0" encoding="UTF-8"?> <svg xmlns="http://www.w3.org/2000/svg" width="304" height="236" viewBox="0 0 304 236" fill="none"> <path d="M43.6107 1.12109H260.071C262.23 1.12109 264.3 1.9787 265.827 3.50524C267.353 5.03179 268.211 7.10223 268.211 9.26109V160.581H35.4707V9.25109C35.4734 7.09396 36.3321 5.02609 37.8584 3.50171C39.3846 1.97732 41.4536 1.12109 43.6107 1.12109V1.12109Z" fill="#263238" stroke="#263238" stroke-linecap="round" stroke-linejoin="round"></path> <path d="M303.111 231.072H0.560547L35.4706 160.582H268.201L303.111 231.072Z" fill="white" stroke="#263238" stroke-linecap="round" stroke-linejoin="round"></path> <path d="M254.11 13.7422H49.5703V147.952H254.11V13.7422Z" fill="#30B46F" stroke="#263238" stroke-linecap="round" stroke-linejoin="round"></path> <path d="M106.398 108.692C117.688 97.4024 117.688 79.0976 106.398 67.8076C95.1076 56.5175 76.8028 56.5175 65.5128 67.8075C54.2227 79.0976 54.2227 97.4024 65.5128 108.692C76.8028 119.983 95.1076 119.983 106.398 108.692Z" fill="#263238"></path> <path d="M173.21 108.689C184.5 97.3985 184.5 79.0937 173.21 67.8036C161.92 56.5136 143.615 56.5136 132.325 67.8036C121.035 79.0937 121.035 97.3985 132.325 108.689C143.615 119.979 161.92 119.979 173.21 108.689Z" fill="#263238"></path> <path d="M226.145 116.393C241.695 112.769 251.363 97.225 247.738 81.6753C244.114 66.1255 228.57 56.458 213.021 60.0822C197.471 63.7065 187.803 79.2501 191.428 94.7999C195.052 110.35 210.595 120.017 226.145 116.393Z" fill="#263238"></path> <path d="M66.0898 80.882C66.0898 80.882 78.8299 46.082 86.3199 46.082C93.8099 46.082 107 80.472 107 80.472L104.77 80.672C104.77 80.672 91.8198 50.532 87.9798 48.672C84.1398 46.812 77.0499 57.772 68.3499 80.842L66.0898 80.882Z" fill="white" stroke="#263238" stroke-linecap="round" stroke-linejoin="round"></path> <path d="M67.3803 78.8516H105.67C106.816 78.8516 107.915 79.3067 108.725 80.1169C109.535 80.927 109.99 82.0258 109.99 83.1716V103.712C109.99 104.629 109.626 105.509 108.977 106.158C108.328 106.807 107.448 107.172 106.53 107.172H66.5303C65.6127 107.172 64.7326 106.807 64.0837 106.158C63.4348 105.509 63.0703 104.629 63.0703 103.712V83.1815C63.069 82.6142 63.1794 82.0522 63.3953 81.5276C63.6112 81.003 63.9283 80.526 64.3285 80.1239C64.7288 79.7218 65.2043 79.4025 65.7279 79.1842C66.2515 78.9659 66.813 78.8529 67.3803 78.8516V78.8516Z" fill="white" stroke="#263238" stroke-linecap="round" stroke-linejoin="round"></path> <path d="M63.4609 94.0312H105.941" stroke="#263238" stroke-linecap="round" stroke-linejoin="round"></path> <path d="M107.771 79.8594C107.771 79.8594 106.771 81.0794 106.771 84.5194C106.771 87.9594 105.561 106.169 105.771 106.969C105.981 107.769 107.191 107.179 107.191 107.179" fill="white"></path> <path d="M107.771 79.8594C107.771 79.8594 106.771 81.0794 106.771 84.5194C106.771 87.9594 105.561 106.169 105.771 106.969C105.981 107.769 107.191 107.179 107.191 107.179" stroke="#263238" stroke-linecap="round" stroke-linejoin="round"></path> <path d="M86.3201 89.9805H83.0801V97.2605H86.3201V89.9805Z" fill="white" stroke="#263238" stroke-linecap="round" stroke-linejoin="round"></path> <path d="M127.471 71.3401C127.471 71.3401 140.981 70.1602 156.841 70.1602C172.701 70.1602 180.151 71.1602 180.341 72.1602C180.531 73.1602 178.191 85.8701 178.191 87.0401C178.191 88.2101 178.191 104.67 177.801 105.65C177.411 106.63 175.641 107.41 174.861 107.6C174.081 107.79 132.951 108.19 131.781 108.19C131.191 108.142 130.641 107.874 130.241 107.438C129.84 107.002 129.619 106.432 129.621 105.84C129.621 104.67 130.211 91.7401 129.231 87.0401C128.251 82.3401 127.471 71.3401 127.471 71.3401Z" fill="white" stroke="#263238" stroke-linecap="round" stroke-linejoin="round"></path> <path d="M142 77.8009C142 77.8009 141.8 62.3309 143.37 57.0409C144.044 54.8021 145.413 52.8361 147.28 51.4282C149.146 50.0202 151.413 49.2436 153.75 49.2109C156.785 49.4153 159.68 50.5663 162.026 52.5019C164.373 54.4375 166.053 57.0603 166.83 60.0009C168.83 67.6309 167.22 77.2309 167.03 78.2109C166.84 79.1909 164.68 81.9309 164.28 76.6409C163.88 71.3509 164.68 59.0209 163.11 55.4909C162.213 53.6383 160.728 52.1345 158.886 51.2139C157.045 50.2932 154.951 50.0074 152.93 50.4009C148.81 51.4009 146.66 53.1409 145.88 58.2309C145.1 63.3209 146.66 75.0809 145.68 77.6209C144.7 80.1609 142.35 81.3209 142 77.8009Z" fill="white" stroke="#263238" stroke-linecap="round" stroke-linejoin="round"></path> <path d="M131.19 71.5312C131.19 71.5312 130.19 81.9113 130.19 85.8313C130.19 89.7513 129.99 92.2912 129.99 92.2912" fill="white"></path> <path d="M131.19 71.5312C131.19 71.5312 130.19 81.9113 130.19 85.8313C130.19 89.7513 129.99 92.2912 129.99 92.2912" stroke="#263238" stroke-linecap="round" stroke-linejoin="round"></path> <path d="M177 71.7305C177 71.7305 177.4 82.1105 177.4 88.1805" stroke="#263238" stroke-linecap="round" stroke-linejoin="round"></path> <path d="M227.5 69.7417C227.258 69.7441 227.023 69.6581 226.839 69.4999C226.655 69.3417 226.534 69.1219 226.5 68.8817C224.57 56.8117 222.15 43.5017 220.91 39.1817C219.08 43.2617 215.06 56.2517 211.73 68.0617C211.658 68.3269 211.482 68.5523 211.243 68.6882C211.004 68.8242 210.721 68.8596 210.455 68.7867C210.19 68.7137 209.965 68.5384 209.829 68.2993C209.693 68.0602 209.658 67.7769 209.73 67.5117C209.73 67.4317 211.87 59.9017 214.19 52.3917C219.02 36.7317 219.93 36.3917 220.65 36.1617C220.83 36.1002 221.022 36.0827 221.21 36.1105C221.398 36.1383 221.576 36.2107 221.73 36.3217C222.26 36.7117 222.99 37.2417 225.87 53.1617C227.26 60.8417 228.48 68.4817 228.49 68.5617C228.515 68.6946 228.512 68.8312 228.482 68.963C228.452 69.0947 228.395 69.2191 228.316 69.3284C228.236 69.4378 228.135 69.5299 228.019 69.5992C227.903 69.6685 227.774 69.7136 227.64 69.7317C227.594 69.74 227.547 69.7433 227.5 69.7417V69.7417Z" fill="white" stroke="#263238" stroke-linecap="round" stroke-linejoin="round"></path> <path d="M195.051 66.3796C195.051 66.3796 214.961 65.1596 221.821 65.4296C228.681 65.6996 240.871 66.4296 240.821 67.2196C240.771 68.0096 240.531 93.2196 239.821 98.2196C239.111 103.22 235.541 109.5 232.441 110.65C229.341 111.8 218.921 111.38 213.581 111.16C208.241 110.94 203.431 110.24 201.031 106.83C198.631 103.42 196.911 89.0996 196.911 89.0996L195.051 66.3796Z" fill="white" stroke="#263238" stroke-linecap="round" stroke-linejoin="round"></path> <path d="M210.871 71.8628C210.88 71.4705 210.773 71.0842 210.564 70.752C210.355 70.4198 210.053 70.1563 209.696 69.9945C209.339 69.8326 208.941 69.7795 208.554 69.8417C208.167 69.9039 207.806 70.0787 207.517 70.3444C207.228 70.61 207.024 70.9548 206.93 71.3357C206.835 71.7166 206.855 72.1168 206.987 72.4865C207.118 72.8563 207.356 73.1791 207.669 73.415C207.983 73.6508 208.359 73.7891 208.751 73.8128C209.019 73.829 209.288 73.7909 209.541 73.7008C209.795 73.6107 210.027 73.4704 210.225 73.2884C210.423 73.1064 210.582 72.8863 210.693 72.6413C210.804 72.3964 210.864 72.1316 210.871 71.8628Z" fill="white" stroke="#263238" stroke-linecap="round" stroke-linejoin="round"></path> <path d="M229.879 73.1321C230.063 72.0262 229.315 70.9805 228.209 70.7967C227.103 70.6128 226.058 71.3603 225.874 72.4662C225.69 73.5722 226.438 74.6178 227.544 74.8017C228.649 74.9856 229.695 74.2381 229.879 73.1321Z" fill="white" stroke="#263238" stroke-linecap="round" stroke-linejoin="round"></path> <path d="M198.531 99.8816C198.531 99.8816 212.831 98.6716 239.001 99.9916Z" fill="white"></path> <path d="M198.531 99.8816C198.531 99.8816 212.831 98.6716 239.001 99.9916" stroke="#263238" stroke-linecap="round" stroke-linejoin="round"></path> <path d="M250.25 17.6992H52.7402V33.7592H250.25V17.6992Z" fill="#263238"></path> <path d="M148.531 26.8516H168.111" stroke="white" stroke-width="2" stroke-miterlimit="10"></path> <path d="M190.76 26.8516H210.34" stroke="white" stroke-width="2" stroke-miterlimit="10"></path> <path d="M244.061 21.8814C244.023 21.8285 243.974 21.7854 243.917 21.7558C243.859 21.7262 243.795 21.711 243.731 21.7114H233.001L232.591 20.4714C232.561 20.3889 232.507 20.3175 232.436 20.2673C232.364 20.2171 232.278 20.1906 232.191 20.1914H229.471C229.362 20.1914 229.258 20.2346 229.181 20.3115C229.104 20.3884 229.061 20.4927 229.061 20.6014C229.059 20.6561 229.069 20.7105 229.089 20.7614C229.109 20.8123 229.139 20.8587 229.177 20.8978C229.215 20.937 229.261 20.9681 229.311 20.9893C229.362 21.0105 229.416 21.0214 229.471 21.0214H231.891L234.511 28.8914C234.54 28.974 234.594 29.0453 234.666 29.0955C234.738 29.1457 234.823 29.1723 234.911 29.1714H235.061C234.914 29.402 234.835 29.6685 234.831 29.9414C234.814 30.1399 234.839 30.3397 234.903 30.5282C234.968 30.7166 235.071 30.8896 235.206 31.0362C235.341 31.1829 235.505 31.2999 235.687 31.3799C235.869 31.46 236.066 31.5013 236.266 31.5013C236.465 31.5013 236.662 31.46 236.844 31.3799C237.027 31.2999 237.191 31.1829 237.325 31.0362C237.46 30.8896 237.563 30.7166 237.628 30.5282C237.692 30.3397 237.717 30.1399 237.701 29.9414C237.702 29.6677 237.621 29.3998 237.471 29.1714H239.471C239.327 29.4028 239.251 29.6693 239.251 29.9414C239.234 30.1399 239.259 30.3397 239.323 30.5282C239.388 30.7166 239.491 30.8896 239.626 31.0362C239.761 31.1829 239.925 31.2999 240.107 31.3799C240.289 31.46 240.486 31.5013 240.686 31.5013C240.885 31.5013 241.082 31.46 241.264 31.3799C241.447 31.2999 241.611 31.1829 241.745 31.0362C241.88 30.8896 241.983 30.7166 242.048 30.5282C242.112 30.3397 242.137 30.1399 242.121 29.9414C242.116 29.6685 242.037 29.402 241.891 29.1714H242.211C242.322 29.1714 242.429 29.1272 242.508 29.0484C242.586 28.9696 242.631 28.8628 242.631 28.7514C242.631 28.6967 242.62 28.6426 242.599 28.5922C242.577 28.5418 242.546 28.4961 242.507 28.4579C242.468 28.4197 242.422 28.3897 242.371 28.3697C242.32 28.3497 242.265 28.3401 242.211 28.3414H235.211L234.751 26.9614H242.551C242.641 26.9625 242.729 26.9337 242.802 26.8795C242.874 26.8252 242.926 26.7485 242.951 26.6614L244.141 22.2414C244.156 22.1793 244.156 22.1146 244.142 22.0522C244.128 21.9898 244.101 21.9314 244.061 21.8814ZM236.261 30.5514C236.14 30.5534 236.021 30.5193 235.919 30.4535C235.817 30.3877 235.738 30.2931 235.69 30.1819C235.642 30.0706 235.629 29.9476 235.651 29.8287C235.674 29.7097 235.731 29.6001 235.816 29.5138C235.901 29.4274 236.009 29.3683 236.128 29.344C236.247 29.3196 236.37 29.3311 236.482 29.377C236.594 29.4228 236.69 29.501 236.757 29.6015C236.825 29.702 236.861 29.8204 236.861 29.9414C236.861 30.1015 236.798 30.2552 236.686 30.3693C236.573 30.4834 236.421 30.5488 236.261 30.5514V30.5514ZM240.671 30.5514C240.55 30.5534 240.431 30.5193 240.329 30.4535C240.227 30.3877 240.148 30.2931 240.1 30.1819C240.052 30.0706 240.039 29.9476 240.061 29.8287C240.084 29.7097 240.141 29.6001 240.226 29.5138C240.311 29.4274 240.419 29.3683 240.538 29.344C240.657 29.3196 240.78 29.3311 240.892 29.377C241.004 29.4228 241.1 29.501 241.167 29.6015C241.235 29.702 241.271 29.8204 241.271 29.9414C241.272 30.0211 241.257 30.1002 241.228 30.1741C241.198 30.2481 241.154 30.3154 241.099 30.3722C241.043 30.4289 240.976 30.474 240.903 30.5048C240.829 30.5356 240.75 30.5514 240.671 30.5514V30.5514ZM241.781 26.1314H240.241V22.5514H241.781V26.1314ZM237.861 22.5514H239.411V26.1314H237.861V22.5514ZM237.031 26.1314H235.481V22.5514H237.001L237.031 26.1314ZM233.271 22.5514H234.651V26.1314H234.461L233.271 22.5514ZM242.621 24.6614V22.5514H243.181L242.621 24.6614Z" fill="white"></path> <path d="M247.291 21.6195C247.301 21.0143 247.131 20.4198 246.801 19.9116C246.472 19.4035 246 19.0048 245.443 18.7663C244.887 18.5278 244.272 18.4602 243.677 18.5722C243.082 18.6841 242.534 18.9706 242.103 19.3951C241.671 19.8196 241.376 20.3629 241.254 20.9559C241.132 21.5488 241.189 22.1646 241.419 22.7249C241.648 23.2851 242.039 23.7644 242.541 24.1018C243.044 24.4392 243.636 24.6195 244.241 24.6195C245.041 24.6171 245.807 24.3018 246.377 23.7411C246.947 23.1804 247.275 22.4189 247.291 21.6195V21.6195Z" fill="white"></path> <path d="M243.001 23.501C242.927 23.4446 242.877 23.3625 242.861 23.271C242.84 23.1717 242.844 23.0687 242.872 22.971C242.899 22.8734 242.951 22.7841 243.021 22.711L244.421 21.341C244.502 21.281 244.569 21.2044 244.617 21.1164C244.665 21.0284 244.694 20.9311 244.701 20.831C244.702 20.7687 244.688 20.7072 244.66 20.6515C244.632 20.5959 244.592 20.5477 244.541 20.511C244.432 20.4288 244.298 20.3865 244.161 20.391H244.001H243.821L243.681 20.451L243.531 20.541L243.401 20.611C243.346 20.6308 243.286 20.6308 243.231 20.611C243.164 20.5951 243.104 20.5562 243.061 20.501C243.018 20.4432 242.985 20.3791 242.961 20.311C242.936 20.2433 242.936 20.1687 242.961 20.101C242.991 20.0235 243.048 19.9594 243.121 19.921C243.493 19.6919 243.925 19.5771 244.361 19.591C244.702 19.5836 245.032 19.7091 245.281 19.941C245.393 20.0418 245.482 20.1653 245.543 20.3033C245.603 20.4412 245.633 20.5904 245.631 20.741C245.631 20.9577 245.576 21.1709 245.471 21.361C245.346 21.5892 245.176 21.7899 244.971 21.951L243.901 22.801H245.301C245.34 22.8 245.378 22.8097 245.412 22.8292C245.445 22.8486 245.473 22.8769 245.491 22.911C245.537 22.9865 245.561 23.0729 245.561 23.161C245.56 23.2552 245.536 23.3477 245.491 23.431C245.471 23.4637 245.444 23.4909 245.41 23.5101C245.377 23.5293 245.34 23.5399 245.301 23.541H243.301C243.251 23.5565 243.199 23.5609 243.147 23.554C243.095 23.5471 243.045 23.529 243.001 23.501V23.501Z" fill="#263238"></path> <path d="M132.401 30.5519H60.101C59.4685 30.5519 58.8422 30.4271 58.258 30.1848C57.6738 29.9424 57.1431 29.5872 56.6963 29.1395C56.2495 28.6918 55.8954 28.1604 55.6543 27.5757C55.4132 26.9909 55.2897 26.3644 55.291 25.7319V25.7319C55.291 24.4562 55.7978 23.2327 56.6999 22.3307C57.6019 21.4286 58.8253 20.9219 60.101 20.9219H132.401C133.677 20.9219 134.9 21.4286 135.802 22.3307C136.704 23.2327 137.211 24.4562 137.211 25.7319C137.212 26.3644 137.089 26.9909 136.848 27.5757C136.607 28.1604 136.253 28.6918 135.806 29.1395C135.359 29.5872 134.828 29.9424 134.244 30.1848C133.66 30.4271 133.034 30.5519 132.401 30.5519V30.5519Z" fill="white"></path> <path d="M71.1113 126.16H100.711" stroke="#263238" stroke-width="2" stroke-linecap="round" stroke-linejoin="round"></path> <path d="M71.1113 131.77H100.711" stroke="#263238" stroke-width="2" stroke-linecap="round" stroke-linejoin="round"></path> <path d="M137.961 126.16H167.571" stroke="#263238" stroke-width="2" stroke-linecap="round" stroke-linejoin="round"></path> <path d="M137.961 131.77H167.571" stroke="#263238" stroke-width="2" stroke-linecap="round" stroke-linejoin="round"></path> <path d="M204.82 126.16H234.42" stroke="#263238" stroke-width="2" stroke-linecap="round" stroke-linejoin="round"></path> <path d="M204.82 131.77H234.42" stroke="#263238" stroke-width="2" stroke-linecap="round" stroke-linejoin="round"></path> <path d="M142.13 182.902L142.53 174.312H130.24L129.42 182.902H142.13Z" fill="#263238" stroke="white" stroke-linecap="round" stroke-linejoin="round"></path> <path d="M167.55 182.902L167.13 174.312H154.83L154.84 182.902H167.55Z" fill="#263238" stroke="white" stroke-linecap="round" stroke-linejoin="round"></path> <path d="M233.74 192.082H246.88L243.8 182.902H231.09L233.74 192.082Z" fill="#263238" stroke="white" stroke-linecap="round" stroke-linejoin="round"></path> <path d="M129.421 182.902L130.241 174.312H117.941L116.721 182.902H129.421Z" fill="#263238" stroke="white" stroke-linecap="round" stroke-linejoin="round"></path> <path d="M104.011 182.902L105.641 174.312H93.3508L91.3008 182.902H104.011Z" fill="#263238" stroke="white" stroke-linecap="round" stroke-linejoin="round"></path> <path d="M218.382 182.902L216.322 174.312H204.021L205.672 182.902H218.382Z" fill="#263238" stroke="white" stroke-linecap="round" stroke-linejoin="round"></path> <path d="M231.09 182.902L228.61 174.312H216.32L218.38 182.902H231.09Z" fill="#263238" stroke="white" stroke-linecap="round" stroke-linejoin="round"></path> <path d="M91.2999 182.902L93.3499 174.312H81.0499L78.5898 182.902H91.2999Z" fill="#263238" stroke="white" stroke-linecap="round" stroke-linejoin="round"></path> <path d="M180.261 182.902L179.431 174.312H167.131L167.551 182.902H180.261Z" fill="#263238" stroke="white" stroke-linecap="round" stroke-linejoin="round"></path> <path d="M243.801 182.902L240.911 174.312H228.611L231.091 182.902H243.801Z" fill="#263238" stroke="white" stroke-linecap="round" stroke-linejoin="round"></path> <path d="M205.671 182.902L204.021 174.312H191.721L192.961 182.902H205.671Z" fill="#263238" stroke="white" stroke-linecap="round" stroke-linejoin="round"></path> <path d="M192.96 182.902L191.72 174.312H179.43L180.26 182.902H192.96Z" fill="#263238" stroke="white" stroke-linecap="round" stroke-linejoin="round"></path> <path d="M154.841 182.902L154.831 174.312H142.531L142.131 182.902H154.841Z" fill="#263238" stroke="white" stroke-linecap="round" stroke-linejoin="round"></path> <path d="M65.8802 182.902H53.1702L49.6602 192.082H62.8102L65.8802 182.902Z" fill="#263238" stroke="white" stroke-linecap="round" stroke-linejoin="round"></path> <path d="M68.7499 174.312H56.4599L53.1699 182.902H65.8799L68.7499 174.312Z" fill="#263238" stroke="white" stroke-linecap="round" stroke-linejoin="round"></path> <path d="M78.5909 182.902L81.0509 174.312H68.7509L65.8809 182.902H78.5909Z" fill="#263238" stroke="white" stroke-linecap="round" stroke-linejoin="round"></path> <path d="M45.9013 201.922L41.8613 212.502H55.9913L59.5213 201.922H45.9013Z" fill="#263238" stroke="white" stroke-linecap="round" stroke-linejoin="round"></path> <path d="M62.8104 192.082H49.6604L45.9004 201.922H59.5204L62.8104 192.082Z" fill="#263238" stroke="white" stroke-linecap="round" stroke-linejoin="round"></path> <path d="M59.5202 201.922L55.9902 212.502H70.1202L73.1402 201.922H59.5202Z" fill="#263238" stroke="white" stroke-linecap="round" stroke-linejoin="round"></path> <path d="M116.72 182.902L117.94 174.312H105.64L104.01 182.902H116.72Z" fill="#263238" stroke="white" stroke-linecap="round" stroke-linejoin="round"></path> <path d="M115.4 192.082L116.72 182.902H104.01L102.26 192.082H115.4Z" fill="#263238" stroke="white" stroke-linecap="round" stroke-linejoin="round"></path> <path d="M102.261 192.082L104.011 182.902H91.3013L89.1113 192.082H102.261Z" fill="#263238" stroke="white" stroke-linecap="round" stroke-linejoin="round"></path> <path d="M128.55 192.082L129.42 182.902H116.72L115.4 192.082H128.55Z" fill="#263238" stroke="white" stroke-linecap="round" stroke-linejoin="round"></path> <path d="M78.5905 182.902H65.8806L62.8105 192.082H75.9606L78.5905 182.902Z" fill="#263238" stroke="white" stroke-linecap="round" stroke-linejoin="round"></path> <path d="M236.57 201.922H250.19L246.88 192.082H233.74L236.57 201.922Z" fill="#263238" stroke="white" stroke-linecap="round" stroke-linejoin="round"></path> <path d="M89.1109 192.082L91.3009 182.902H78.5909L75.9609 192.082H89.1109Z" fill="#263238" stroke="white" stroke-linecap="round" stroke-linejoin="round"></path> <path d="M62.8115 192.082L59.5215 201.922H73.1415L75.9615 192.082H62.8115Z" fill="#263238" stroke="white" stroke-linecap="round" stroke-linejoin="round"></path> <path d="M207.441 192.082L205.671 182.902H192.961L194.291 192.082H207.441Z" fill="#263238" stroke="white" stroke-linecap="round" stroke-linejoin="round"></path> <path d="M194.29 192.082L192.96 182.902H180.26L181.14 192.082H194.29Z" fill="#263238" stroke="white" stroke-linecap="round" stroke-linejoin="round"></path> <path d="M233.741 192.082L231.091 182.902H218.381L220.591 192.082H233.741Z" fill="#263238" stroke="white" stroke-linecap="round" stroke-linejoin="round"></path> <path d="M154.851 192.082L154.841 182.902H142.131L141.701 192.082H154.851Z" fill="#263238" stroke="white" stroke-linecap="round" stroke-linejoin="round"></path> <path d="M181.141 192.082L180.261 182.902H167.551L168.001 192.082H181.141Z" fill="#263238" stroke="white" stroke-linecap="round" stroke-linejoin="round"></path> <path d="M168 192.082L167.55 182.902H154.84L154.85 192.082H168Z" fill="#263238" stroke="white" stroke-linecap="round" stroke-linejoin="round"></path> <path d="M141.701 192.082L142.131 182.902H129.421L128.551 192.082H141.701Z" fill="#263238" stroke="white" stroke-linecap="round" stroke-linejoin="round"></path> <path d="M181.141 192.082L182.101 201.922H195.711L194.291 192.082H181.141Z" fill="#263238" stroke="white" stroke-linecap="round" stroke-linejoin="round"></path> <path d="M194.291 192.082L195.711 201.922H209.331L207.441 192.082H194.291Z" fill="#263238" stroke="white" stroke-linecap="round" stroke-linejoin="round"></path> <path d="M75.9606 192.082L73.1406 201.922H86.7606L89.1106 192.082H75.9606Z" fill="#263238" stroke="white" stroke-linecap="round" stroke-linejoin="round"></path> <path d="M207.441 192.082L209.331 201.922H222.951L220.591 192.082H207.441Z" fill="#263238" stroke="white" stroke-linecap="round" stroke-linejoin="round"></path> <path d="M154.85 192.082L154.86 201.922H168.48L168 192.082H154.85Z" fill="#263238" stroke="white" stroke-linecap="round" stroke-linejoin="round"></path> <path d="M220.59 192.082L222.95 201.922H236.57L233.74 192.082H220.59Z" fill="#263238" stroke="white" stroke-linecap="round" stroke-linejoin="round"></path> <path d="M168 192.082L168.48 201.922H182.1L181.14 192.082H168Z" fill="#263238" stroke="white" stroke-linecap="round" stroke-linejoin="round"></path> <path d="M102.261 192.082L100.381 201.922H114.001L115.401 192.082H102.261Z" fill="#263238" stroke="white" stroke-linecap="round" stroke-linejoin="round"></path> <path d="M89.1098 192.082L86.7598 201.922H100.38L102.26 192.082H89.1098Z" fill="#263238" stroke="white" stroke-linecap="round" stroke-linejoin="round"></path> <path d="M141.7 192.082L141.24 201.922H154.86L154.85 192.082H141.7Z" fill="#263238" stroke="white" stroke-linecap="round" stroke-linejoin="round"></path> <path d="M128.551 192.082L127.621 201.922H141.241L141.701 192.082H128.551Z" fill="#263238" stroke="white" stroke-linecap="round" stroke-linejoin="round"></path> <path d="M115.4 192.082L114 201.922H127.62L128.55 192.082H115.4Z" fill="#263238" stroke="white" stroke-linecap="round" stroke-linejoin="round"></path> <path d="M220.59 192.082L218.38 182.902H205.67L207.44 192.082H220.59Z" fill="#263238" stroke="white" stroke-linecap="round" stroke-linejoin="round"></path> <path d="M68.7509 174.312L71.6909 165.512H59.8109L56.4609 174.312H68.7509Z" fill="#263238" stroke="white" stroke-linecap="round" stroke-linejoin="round"></path> <path d="M56.4614 174.312H45.1014L41.4414 182.902H53.1714L56.4614 174.312Z" fill="#263238" stroke="white" stroke-linecap="round" stroke-linejoin="round"></path> <path d="M59.8096 165.512H48.8496L45.0996 174.312H56.4596L59.8096 165.512Z" fill="#263238" stroke="white" stroke-linecap="round" stroke-linejoin="round"></path> <path d="M53.1712 182.902H41.4413L37.5312 192.082H49.6613L53.1712 182.902Z" fill="#263238" stroke="white" stroke-linecap="round" stroke-linejoin="round"></path> <path d="M49.6601 192.082H37.5301L33.3301 201.922H45.9001L49.6601 192.082Z" fill="#263238" stroke="white" stroke-linecap="round" stroke-linejoin="round"></path> <path d="M45.9003 201.922H33.3303L28.8203 212.502H41.8603L45.9003 201.922Z" fill="#263238" stroke="white" stroke-linecap="round" stroke-linejoin="round"></path> <path d="M256.5 182.902L260.03 192.082H271.66L267.75 182.902H256.5Z" fill="#263238" stroke="white" stroke-linecap="round" stroke-linejoin="round"></path> <path d="M263.811 201.922H275.861L271.661 192.082H260.031L263.811 201.922Z" fill="#263238" stroke="white" stroke-linecap="round" stroke-linejoin="round"></path> <path d="M267.871 212.502H280.371L275.861 201.922H263.811L267.871 212.502Z" fill="#263238" stroke="white" stroke-linecap="round" stroke-linejoin="round"></path> <path d="M167.13 174.312L166.7 165.512H154.82L154.83 174.312H167.13Z" fill="#263238" stroke="white" stroke-linecap="round" stroke-linejoin="round"></path> <path d="M256.501 182.902H267.751L264.091 174.312H253.211L256.501 182.902Z" fill="#263238" stroke="white" stroke-linecap="round" stroke-linejoin="round"></path> <path d="M250.191 201.922H263.811L260.031 192.082H246.881L250.191 201.922Z" fill="#263238" stroke="white" stroke-linecap="round" stroke-linejoin="round"></path> <path d="M81.05 174.312L83.57 165.512H71.69L68.75 174.312H81.05Z" fill="#263238" stroke="white" stroke-linecap="round" stroke-linejoin="round"></path> <path d="M240.91 174.312L243.8 182.902H256.5L253.21 174.312H240.91Z" fill="#263238" stroke="white" stroke-linecap="round" stroke-linejoin="round"></path> <path d="M264.09 174.312L260.34 165.512H249.83L253.21 174.312H264.09Z" fill="#263238" stroke="white" stroke-linecap="round" stroke-linejoin="round"></path> <path d="M253.211 174.312L249.831 165.512H237.961L240.911 174.312H253.211Z" fill="#263238" stroke="white" stroke-linecap="round" stroke-linejoin="round"></path> <path d="M209.33 201.922L211.37 212.502H225.49L222.95 201.922H209.33Z" fill="#263238" stroke="white" stroke-linecap="round" stroke-linejoin="round"></path> <path d="M253.741 212.502H267.871L263.811 201.922H250.191L253.741 212.502Z" fill="#263238" stroke="white" stroke-linecap="round" stroke-linejoin="round"></path> <path d="M240.91 174.312L237.96 165.512H226.08L228.61 174.312H240.91Z" fill="#263238" stroke="white" stroke-linecap="round" stroke-linejoin="round"></path> <path d="M236.57 201.922L239.62 212.502H253.74L250.19 201.922H236.57Z" fill="#263238" stroke="white" stroke-linecap="round" stroke-linejoin="round"></path> <path d="M222.951 201.922L225.491 212.502H239.621L236.571 201.922H222.951Z" fill="#263238" stroke="white" stroke-linecap="round" stroke-linejoin="round"></path> <path d="M246.881 192.082H260.031L256.501 182.902H243.801L246.881 192.082Z" fill="#263238" stroke="white" stroke-linecap="round" stroke-linejoin="round"></path> <path d="M130.241 174.312L131.071 165.512H119.191L117.941 174.312H130.241Z" fill="#263238" stroke="white" stroke-linecap="round" stroke-linejoin="round"></path> <path d="M228.611 174.312L226.081 165.512H214.201L216.321 174.312H228.611Z" fill="#263238" stroke="white" stroke-linecap="round" stroke-linejoin="round"></path> <path d="M117.941 174.312L119.191 165.512H107.321L105.641 174.312H117.941Z" fill="#263238" stroke="white" stroke-linecap="round" stroke-linejoin="round"></path> <path d="M154.831 174.312L154.821 165.512H142.951L142.531 174.312H154.831Z" fill="#263238" stroke="white" stroke-linecap="round" stroke-linejoin="round"></path> <path d="M105.64 174.312L107.32 165.512H95.4396L93.3496 174.312H105.64Z" fill="#263238" stroke="white" stroke-linecap="round" stroke-linejoin="round"></path> <path d="M93.3508 174.312L95.4408 165.512H83.5708L81.0508 174.312H93.3508Z" fill="#263238" stroke="white" stroke-linecap="round" stroke-linejoin="round"></path> <path d="M142.53 174.312L142.95 165.512H131.07L130.24 174.312H142.53Z" fill="#263238" stroke="white" stroke-linecap="round" stroke-linejoin="round"></path> <path d="M216.32 174.312L214.2 165.512H202.33L204.02 174.312H216.32Z" fill="#263238" stroke="white" stroke-linecap="round" stroke-linejoin="round"></path> <path d="M204.021 174.312L202.331 165.512H190.451L191.721 174.312H204.021Z" fill="#263238" stroke="white" stroke-linecap="round" stroke-linejoin="round"></path> <path d="M179.431 174.312L178.571 165.512H166.701L167.131 174.312H179.431Z" fill="#263238" stroke="white" stroke-linecap="round" stroke-linejoin="round"></path> <path d="M209.331 201.922H195.711H182.101H168.481H154.861H141.241H127.621H114.001H100.381H86.7611H73.1411L70.1211 212.502H84.2411H98.3711H112.491H126.621H140.741H154.871H168.991H183.121H197.241H211.371L209.331 201.922Z" fill="#263238" stroke="white" stroke-linecap="round" stroke-linejoin="round"></path> <path d="M191.72 174.312L190.45 165.512H178.57L179.43 174.312H191.72Z" fill="#263238" stroke="white" stroke-linecap="round" stroke-linejoin="round"></path> <path d="M303.251 231.07H0.560547V235.37H303.251V231.07Z" fill="#263238" stroke="#263238" stroke-linecap="round" stroke-linejoin="round"></path> </svg> 